<svg xmlns="http://www.w3.org/2000/svg" viewBox="0 0 700 1000"><style>.st0{fill:none;stroke:rgba(0,0,0,.05);stroke-width:3}</style><path class="st0" d="M316.5 999.5V767.6c0-12.7-10.3-22.9-22.9-22.9H82.4c-12.7 0-22.9-10.3-22.9-22.9v-46.4c0-12.7 10.3-22.9 22.9-22.9h37.7c12.7 0 22.9-10.3 22.9-22.9V152.8c0-12.7-10.3-22.9-22.9-22.9L.2 131.7M143 1000v-86.1c0-12.7-10.3-22.9-22.9-22.9L.2 892.8"/><path class="st0" d="M.2 273.4l182.9-1.8c12.7 0 22.9 10.3 22.9 22.9V344c0 12.7-10.3 22.9-22.9 22.9h-68.9c-12.7 0-22.9 10.3-22.9 22.9v444.1c0 12.7 10.3 22.9 22.9 22.9h85c12.7 0 22.9 10.3 22.9 22.9v119.5"/><path class="st0" d="M605.3 999.5v-56.9c0-12.7-10.3-22.9-22.9-22.9H384.1c-12.7 0-22.9-10.3-22.9-22.9v-369c0-12.7-10.3-22.9-22.9-22.9l-338 1.8"/><path class="st0" d="M489.6 999.5V851.8c0-12.7-10.3-22.9-22.9-22.9H279.5c-12.7 0-22.9-10.3-22.9-22.9V474.5c0-12.7-10.3-22.9-22.9-22.9h-28.1c-12.7 0-22.9 10.3-22.9 22.9v77c0 12.7-10.3 22.9-22.9 22.9h-93c-12.7 0-22.9-10.3-22.9-22.9V0"/></svg>