
<svg version="1.1" xmlns="http://www.w3.org/2000/svg" xmlns:xlink="http://www.w3.org/1999/xlink" x="0px" y="0px"
	 viewBox="0 0 700 1000" xml:space="preserve">
<style type="text/css">
	.st0{
		fill:none;
		stroke: rgba(0,0,0,0.05);
		stroke-width: 3
	}
</style>
<g>
	<path class="st0" d="M383.7,999.5V767.6c0-12.7,10.3-22.9,22.9-22.9h211.3c12.7,0,22.9-10.3,22.9-22.9v-46.4
		c0-12.7-10.3-22.9-22.9-22.9h-37.7c-12.7,0-22.9-10.3-22.9-22.9V152.8c0-12.7,10.3-22.9,22.9-22.9l119.8,1.8"/>
	<path class="st0" d="M557.2,1000v-86.1c0-12.7,10.3-22.9,22.9-22.9l119.8,1.8"/>
	<path class="st0" d="M700,273.4l-182.9-1.8c-12.7,0-22.9,10.3-22.9,22.9v49.5c0,12.7,10.3,22.9,22.9,22.9H586
		c12.7,0,22.9,10.3,22.9,22.9v444.1c0,12.7-10.3,22.9-22.9,22.9h-85c-12.7,0-22.9,10.3-22.9,22.9v119.5"/>
	<path class="st0" d="M95,999.5v-56.9c0-12.7,10.3-22.9,22.9-22.9h198.2c12.7,0,22.9-10.3,22.9-22.9v-369
		c0-12.7,10.3-22.9,22.9-22.9l338,1.8"/>
	<path class="st0" d="M210.6,999.5V851.8c0-12.7,10.3-22.9,22.9-22.9h187.2c12.7,0,22.9-10.3,22.9-22.9V474.5
		c0-12.7,10.3-22.9,22.9-22.9h28.1c12.7,0,22.9,10.3,22.9,22.9v77c0,12.7,10.3,22.9,22.9,22.9h93c12.7,0,22.9-10.3,22.9-22.9V0"/>
</g>
</svg>
