<?xml version="1.0" encoding="utf-8"?>
<!-- Generator: Adobe Illustrator 24.1.2, SVG Export Plug-In . SVG Version: 6.00 Build 0)  -->
<svg version="1.1" id="Camada_1" xmlns="http://www.w3.org/2000/svg" xmlns:xlink="http://www.w3.org/1999/xlink" x="0px" y="0px"
	 viewBox="0 0 140.7 26.58" style="enable-background:new 0 0 140.7 26.58;" xml:space="preserve">
<path d="M88.86,10.65l3.33,1.89l0.03,3.83l-3.31,1.94l-3.33-1.89l-0.03-3.83C85.56,12.59,88.86,10.65,88.86,10.65z M85.23,26.58
	l3.95-2.32l-0.03-4.58l-3.98-2.26l-3.95,2.32l0.04,4.58L85.23,26.58z M77.98,18.57l2.58,1.46L80.58,23l-2.56,1.5l-2.58-1.46
	l-0.02-2.97C75.43,20.07,77.98,18.57,77.98,18.57z M71.73,10.67l3.95,2.24l0.03,4.54l-3.92,2.3l-3.95-2.25l-0.03-4.55
	C67.81,12.97,71.73,10.67,71.73,10.67z M75.73,4.57l3.2,1.82l0.03,3.68l-3.17,1.86l-3.2-1.82l-0.03-3.68
	C72.56,6.44,75.73,4.57,75.73,4.57z M85.47,11.89l5.13-3.01l-0.04-5.95L85.39,0l-5.13,3.01l0.04,5.95L85.47,11.89z"/>
<g>
	<path d="M99.29,4.58v9.9c0,2.99,1.15,4.5,3.12,4.5c2.04,0,3.17-1.43,3.17-4.5v-9.9h3.89v9.66c0,5.32-2.69,7.85-7.19,7.85
		c-4.35,0-6.88-2.43-6.88-7.9V4.58C95.4,4.58,99.29,4.58,99.29,4.58z M112.86,4.58h10.51v3.19h-6.62v3.94h6.19v3.17h-6.19v6.93
		h-3.89V4.58z M140.7,21.02c-1.2,0.41-3.48,0.97-5.75,0.97c-3.15,0-5.42-0.79-7.01-2.3c-1.56-1.51-2.43-3.76-2.43-6.29
		c0.03-5.73,4.19-9,9.84-9c2.23,0,3.94,0.44,4.78,0.82l-0.82,3.14c-0.95-0.44-2.1-0.74-3.99-0.74c-3.24,0-5.73,1.84-5.73,5.57
		c0,3.58,2.25,5.65,5.45,5.65c0.87,0,1.59-0.1,1.89-0.23v-3.63h-2.66v-3.04h6.42C140.7,11.94,140.7,21.02,140.7,21.02z"/>
</g>
<path d="M13.12,21.37c-0.73,0.36-2.35,0.76-4.42,0.76c-5.41,0-8.7-3.39-8.7-8.59c0-5.61,3.92-9,9.13-9c2.05,0,3.49,0.43,4.12,0.76
	l-0.66,2.48c-0.81-0.35-1.94-0.66-3.34-0.66c-3.46,0-5.96,2.17-5.96,6.27c0,3.77,2.17,6.14,5.94,6.14c1.24,0,2.55-0.25,3.39-0.6
	C12.61,18.92,13.12,21.37,13.12,21.37z M21.41,4.81v17.04H18.3V4.81H21.41z M30.92,17.02l-1.47,4.83h-3.21L31.7,4.81h3.97
	l5.54,17.04h-3.36l-1.54-4.83H30.92z M35.8,14.67l-1.34-4.2c-0.33-1.04-0.61-2.2-0.86-3.19h-0.05c-0.25,0.99-0.53,2.17-0.81,3.19
	l-1.31,4.2C31.43,14.67,35.8,14.67,35.8,14.67z M46.11,5.07c1.19-0.23,2.91-0.38,4.7-0.38c2.45,0,4.1,0.41,5.26,1.37
	c0.94,0.78,1.47,1.97,1.47,3.44c0,2.2-1.49,3.69-3.11,4.25v0.07c1.24,0.45,1.97,1.65,2.37,3.29c0.56,2.12,1.01,4.09,1.34,4.75h-3.19
	c-0.25-0.5-0.68-1.9-1.14-4.02c-0.5-2.22-1.28-2.93-3.06-2.98H49.2v7h-3.09C46.11,21.85,46.11,5.07,46.11,5.07z M49.2,12.58h1.85
	c2.1,0,3.39-1.11,3.39-2.81c0-1.85-1.29-2.73-3.31-2.73c-0.99,0-1.62,0.08-1.92,0.15L49.2,12.58L49.2,12.58z"/>
</svg>
