<svg xmlns="http://www.w3.org/2000/svg" width="198" height="198" viewBox="51 21 198 198"><path fill="#0098c1" d="M190 219H80c-15.991 0-29-13.01-29-29V80c0-15.991 13.009-29 29-29h60c4.971 0 9 4.029 9 9s-4.029 9-9 9H80c-6.065 0-11 4.935-11 11v110c0 6.064 4.935 11 11 11h110c6.064 0 11-4.936 11-11v-60c0-4.971 4.029-9 9-9s9 4.029 9 9v60c0 15.99-13.01 29-29 29z"/><path fill="#0098c1" d="M240 21h-60c-4.971 0-9 4.029-9 9s4.029 9 9 9h38.271l-94.635 94.636a9 9 0 0012.728 12.729L231 51.728V90c0 4.971 4.029 9 9 9s9-4.029 9-9V30a9 9 0 00-9-9z"/></svg>