
<svg version="1.1" id="Layer_1" xmlns="http://www.w3.org/2000/svg" xmlns:xlink="http://www.w3.org/1999/xlink" x="0px" y="0px"
	 width="198px" height="198px" viewBox="51 21 198 198" enable-background="new 51 21 198 198" xml:space="preserve">
<path fill="#0098c1" d="M190,219H80c-15.991,0-29-13.01-29-29V80c0-15.991,13.009-29,29-29h60c4.971,0,9,4.029,9,9s-4.029,9-9,9H80
	c-6.065,0-11,4.935-11,11v110c0,6.064,4.935,11,11,11h110c6.064,0,11-4.936,11-11v-60c0-4.971,4.029-9,9-9s9,4.029,9,9v60
	C219,205.99,205.99,219,190,219z"/>
<path fill="#0098c1" d="M240,21h-60c-4.971,0-9,4.029-9,9s4.029,9,9,9h38.271l-94.635,94.636c-3.515,3.515-3.515,9.213,0,12.729
	c1.757,1.757,4.061,2.636,6.364,2.636s4.606-0.879,6.364-2.636L231,51.728V90c0,4.971,4.029,9,9,9s9-4.029,9-9V30
	C249,25.029,244.971,21,240,21z"/>
</svg>
