<svg xmlns="http://www.w3.org/2000/svg" viewBox="-1.399 -7.399 380.961 380.961"><path fill="#fff" d="M284.321 123.555H93.841v-95.24c0-19.725 15.99-35.715 35.715-35.715h119.051c19.725 0 35.715 15.99 35.715 35.715v95.24zm95.241-11.905v154.765c0 19.726-15.991 35.715-35.716 35.715h-23.811v35.715c0 19.726-15.99 35.717-35.715 35.717H93.841c-19.725 0-35.715-15.991-35.715-35.717V302.13h-23.81c-19.726 0-35.715-15.989-35.715-35.715V111.65c0-19.725 15.99-35.715 35.715-35.715h23.81v83.336h261.91V75.936h23.81c19.726 0 35.716 15.989 35.716 35.714zM272.416 242.605h-166.67v83.336h166.67v-83.336z"/></svg>