<svg id="Camada_1" data-name="Camada 1" xmlns="http://www.w3.org/2000/svg" viewBox="0 0 453.32 96.34"><defs><style>.cls-2{fill:#2db3af}.cls-6{fill:#432216}</style></defs><path d="M50.37 15.82v1.88a1.41 1.41 0 00.33.95 2.58 2.58 0 00.86.64 4 4 0 001.25.36 9.84 9.84 0 001.53.11 10.23 10.23 0 001.66-.13 5.6 5.6 0 001.5-.43 2.84 2.84 0 001.09-.88 2.4 2.4 0 00.41-1.47 2 2 0 00-.29-1.09 2.33 2.33 0 00-.85-.74 6.06 6.06 0 00-1.3-.51c-.5-.15-1-.3-1.62-.44l-2.41-.56c-.92-.21-1.8-.44-2.66-.69a7.36 7.36 0 01-2.26-1.08A5.38 5.38 0 0146 9.9a6.44 6.44 0 01-.61-3 8.07 8.07 0 01.14-1.38A7.62 7.62 0 0146.06 4 6.74 6.74 0 0147 2.52a5.6 5.6 0 011.58-1.28 9.62 9.62 0 012.32-.9A13.48 13.48 0 0154.06 0a11.13 11.13 0 014 .66 8 8 0 012.7 1.64 6.15 6.15 0 011.5 2.14 5.7 5.7 0 01.47 2.19V8.5h-4.51V6.66a2.11 2.11 0 00-.22-.92 2.45 2.45 0 00-.75-.91 4.52 4.52 0 00-1.39-.69 8.15 8.15 0 00-2.14-.26 6.2 6.2 0 00-1.36.12 4.48 4.48 0 00-1.27.45 2.93 2.93 0 00-.92.83 2.14 2.14 0 00-.36 1.27A2.25 2.25 0 0050 7.64a2.06 2.06 0 00.6.68 2.54 2.54 0 00.78.37l.77.22 5.47 1.34a21.9 21.9 0 012.22.69A6.39 6.39 0 0161.75 12a5 5 0 011.3 1.72 6.1 6.1 0 01.48 2.53 7.5 7.5 0 01-.53 2.93 6.36 6.36 0 01-1.35 2 6.84 6.84 0 01-1.82 1.29 9.62 9.62 0 01-2 .74 11.32 11.32 0 01-1.83.33c-.56.05-1 .08-1.34.08a15.94 15.94 0 01-4.07-.46A10.24 10.24 0 0147.72 22 5.22 5.22 0 0146 20.35a3.53 3.53 0 01-.58-1.94v-2.59zM82 18.48a.83.83 0 00.23.54.67.67 0 00.52.27h1.13V23h-3.71a1.75 1.75 0 01-.71-.16 2.65 2.65 0 01-.72-.43 2.23 2.23 0 01-.54-.68 1.68 1.68 0 01-.22-.85v-.44a5.32 5.32 0 01-2.16 2.2 6.08 6.08 0 01-3.06.8 9 9 0 01-3.13-.44 6.55 6.55 0 01-2.52-1.59 7.18 7.18 0 01-1.68-2.74 11.27 11.27 0 01-.61-3.91 10 10 0 01.7-3.89A7.5 7.5 0 0170.1 6.5a10.08 10.08 0 013.22-.5 5.8 5.8 0 011.31.16 7.21 7.21 0 011.37.41 7.53 7.53 0 011.17.67 3.9 3.9 0 01.89.83v-1.5h4zm-4.69-3.76a9.35 9.35 0 00-.16-1.67 5.08 5.08 0 00-.57-1.64 3.65 3.65 0 00-1.22-1.25 3.85 3.85 0 00-2-.5 3.8 3.8 0 00-2.06.5 3.53 3.53 0 00-1.3 1.25 5.35 5.35 0 00-.58 1.64 9.34 9.34 0 00-.15 1.67 9.71 9.71 0 00.15 1.71 5.26 5.26 0 00.58 1.64 3.43 3.43 0 001.21 1.24 3.8 3.8 0 002.06.48 3.88 3.88 0 002-.48 3.53 3.53 0 001.22-1.24 5 5 0 00.57-1.64 8.85 8.85 0 00.17-1.71zm9.92-3.62a1 1 0 00-.27-.63.8.8 0 00-.57-.31h-1V6.41h4.1a1.53 1.53 0 01.72.2 2.81 2.81 0 01.62.52 2.87 2.87 0 01.46.69 1.79 1.79 0 01.17.75v.56a8.51 8.51 0 01.54-.92 5 5 0 011-1.05A5.41 5.41 0 0196.48 6a7.41 7.41 0 012.29.36 5.32 5.32 0 011.83 1.06 5.15 5.15 0 011.21 1.74 5.88 5.88 0 01.46 2.41v6.81a1 1 0 00.25.63.66.66 0 00.56.31h1.06V23h-3.53a1.8 1.8 0 01-1-.3 3.08 3.08 0 01-.86-.75 3.78 3.78 0 01-.61-1 2.75 2.75 0 01-.24-1.1v-6.91a8.34 8.34 0 000-1 2.66 2.66 0 00-.32-1.06 2.5 2.5 0 00-.86-.85 3.32 3.32 0 00-1.61-.34 3.39 3.39 0 00-2.46 1 3.92 3.92 0 00-1 2.88V20a2.64 2.64 0 01-.28 1 3.43 3.43 0 01-.62 1 3.2 3.2 0 01-.89.75 2 2 0 01-1 .3h-3.51v-3.76h1A.76.76 0 0087 19a.84.84 0 00.27-.6zM64 47h2.72v3.75h-2.56a3.63 3.63 0 01-1.38-.25 5.75 5.75 0 01-1.23-.64 6.76 6.76 0 01-1.06-.86 5.57 5.57 0 01-.8-1l-4.28-6H53v5.31a2.8 2.8 0 01-.3 1.24 4.24 4.24 0 01-1.87 1.92 2.56 2.56 0 01-1.21.31h-4V47h1.69a1.15 1.15 0 00.75-.31.88.88 0 00.34-.69V33.78a1.61 1.61 0 00-.4-1.06 1.31 1.31 0 00-1-.54h-1.41v-3.87h12a8 8 0 013.63.72 6.29 6.29 0 012.14 1.73 5.9 5.9 0 011 2.1 7.83 7.83 0 01.27 1.79 12.17 12.17 0 01-.16 2 6.33 6.33 0 01-.64 2 5.13 5.13 0 01-1.39 1.68A6 6 0 0160 41.38zm-7.72-8.81A4.49 4.49 0 0059 37.5a2.87 2.87 0 00.89-2.38 3.82 3.82 0 00-.13-.95 2.38 2.38 0 00-.48-1 2.72 2.72 0 00-1-.74 4 4 0 00-1.67-.3H53v6zm28.57 7.91a.87.87 0 00.29.62.82.82 0 00.62.28h1v3.75H83a2.33 2.33 0 01-.69-.12 2.38 2.38 0 01-.78-.39 2.35 2.35 0 01-.64-.69 1.85 1.85 0 01-.26-1v-.65a4.86 4.86 0 01-2 2.42 5.64 5.64 0 01-3.14.89 6.74 6.74 0 01-2.27-.36 4.5 4.5 0 01-1.8-1.11 5 5 0 01-1.17-1.9 8.08 8.08 0 01-.42-2.76v-6.36a.85.85 0 00-.25-.56.75.75 0 00-.53-.29H68v-3.75h3.82a2.72 2.72 0 011.08.33 2.86 2.86 0 01.76.67 3 3 0 01.46.88 3.34 3.34 0 01.14.94v7.5a4 4 0 00.25 1.56 2.15 2.15 0 00.65.92 2.2 2.2 0 00.93.46 4.21 4.21 0 001 .12 4 4 0 001.13-.17 2.87 2.87 0 001.09-.61 3.39 3.39 0 00.83-1.15 4.47 4.47 0 00.33-1.85v-5a1 1 0 00-.25-.58.74.74 0 00-.53-.3H78.6v-3.72h3.72a2.44 2.44 0 011.77.78 2.87 2.87 0 01.76 2.1zm5-7.38a.9.9 0 00-.25-.58.81.81 0 00-.57-.27H88v-3.75h3.38a2.85 2.85 0 01.92.19 3.19 3.19 0 01.87.52 2.87 2.87 0 01.64.75 1.65 1.65 0 01.25.86V37h.07c.23-.42.47-.82.72-1.22a5.06 5.06 0 01.9-1.06 3.91 3.91 0 011.19-.72 4.68 4.68 0 011.7-.29h.85v4.44a4.07 4.07 0 00-.61-.07h-.65a5.18 5.18 0 00-2.06.36 3.14 3.14 0 00-1.22.94 3.25 3.25 0 00-.59 1.28 5.93 5.93 0 00-.16 1.39v8.66h-4.37zm27.82 7.47a.85.85 0 00.23.55.71.71 0 00.52.26h1.12v3.75h-3.74a1.87 1.87 0 01-.7-.15 2.68 2.68 0 01-.72-.44 2.38 2.38 0 01-.55-.67 1.82 1.82 0 01-.21-.86v-.44a5.41 5.41 0 01-2.16 2.21 6.07 6.07 0 01-3.06.79 9.29 9.29 0 01-3.13-.51 6.69 6.69 0 01-2.52-1.6 7.51 7.51 0 01-1.69-2.73 11.55 11.55 0 01-.61-3.91 9.8 9.8 0 01.71-3.89 7.85 7.85 0 011.84-2.72 7.54 7.54 0 012.71-1.61 9.76 9.76 0 013.22-.54 6.43 6.43 0 011.31.16 7.47 7.47 0 011.31.44 7.63 7.63 0 011.18.67 5 5 0 01.89.83v-1.5h4zM113 42.44a9.35 9.35 0 00-.16-1.67 4.85 4.85 0 00-.58-1.65 3.59 3.59 0 00-1.26-1.25 4.53 4.53 0 00-4.12 0 3.51 3.51 0 00-1.2 1.25 5.41 5.41 0 00-.58 1.65 9.34 9.34 0 00-.15 1.67 9.68 9.68 0 00.15 1.7 5.26 5.26 0 00.58 1.64 3.4 3.4 0 001.2 1.24A4.63 4.63 0 00111 47a3.27 3.27 0 001.21-1.24 4.73 4.73 0 00.58-1.64 9.41 9.41 0 00.21-1.68zm14.22 3a.86.86 0 00.29.64.83.83 0 00.64.3h2.19v4.37h-4.13a2.45 2.45 0 01-1.18-.31 3.8 3.8 0 01-1-.84 4.44 4.44 0 01-.8-1.25 3.81 3.81 0 01-.31-1.53V32.94a1 1 0 00-.25-.6.76.76 0 00-.56-.28h-1.41v-3.75h3.75a2.6 2.6 0 011.19.28 3.1 3.1 0 01.89.72 3.41 3.41 0 01.55.94 2.71 2.71 0 01.19.93z" fill="#4a1d0e"/><path class="cls-2" d="M27.13 60.67h-1.87a2.14 2.14 0 00-1.72.89v4.67a6.57 6.57 0 006.57 6.57H41v-8.23a9.22 9.22 0 00-9.19-9.19h-4.68z"/><path class="cls-2" d="M30.11 78.92a12.69 12.69 0 01-12.69-12.69v-4.67a2.1 2.1 0 00-1.72-.89h-1.87v-5.29H9.18A9.21 9.21 0 000 64.57v22.59a9.21 9.21 0 009.18 9.18h22.59A9.21 9.21 0 0041 87.16v-8.24z"/><path d="M86.54 72.8v-8.23a9.22 9.22 0 00-9.19-9.19H54.76a9.21 9.21 0 00-9.18 9.19v8.23zm-41 6.12v8.24a9.21 9.21 0 009.18 9.18h22.63a9.21 9.21 0 009.19-9.18v-8.24z" fill="#45af75"/><path d="M132.11 72.8v-8.23a9.21 9.21 0 00-9.18-9.19h-22.59a9.22 9.22 0 00-9.19 9.19v8.23zm-41 6.12v8.24a9.21 9.21 0 009.19 9.18h22.59a9.21 9.21 0 009.18-9.18v-8.24z" fill="#50ac32"/><path d="M20.48 46.55a13 13 0 01-13-13c0-9.7 13-21.53 13-21.53s13 11.83 13 21.53a13 13 0 01-13 13z" fill="#0fb8e5"/><path class="cls-6" d="M157.55 56.57c2 0 5.19.85 5.19 2.94v1.14h-1.3v-.76c0-1.31-2.25-2-3.85-2a5.46 5.46 0 00-5.44 5.77 5.66 5.66 0 005.5 6 6.35 6.35 0 004.54-2l.79 1a7.35 7.35 0 01-5.35 2.25 7 7 0 01-6.93-7.28 6.83 6.83 0 016.85-7.06zM165.92 62.35a.39.39 0 00-.43-.43h-.83v-1.17h1.4c.85 0 1.2.36 1.2 1.17v4.79c0 1.56.26 2.94 2.18 2.94 2.25 0 3.65-2 3.65-4.14v-4.76h1.34v8.33a.39.39 0 00.43.44h.83v1.16h-1.36c-.83 0-1.2-.35-1.2-1.1v-.46a6.39 6.39 0 010-.71 4.24 4.24 0 01-3.87 2.51c-2.35 0-3.34-1.27-3.34-3.85zM178.46 62.35a.4.4 0 00-.44-.43h-.83v-1.17h1.39c.83 0 1.2.34 1.2 1.13v.67a7.18 7.18 0 010 .75 3.39 3.39 0 013.14-2.65 2.69 2.69 0 01.53.06V62a3.39 3.39 0 00-.49 0 3.17 3.17 0 00-2.88 2.56 6.51 6.51 0 00-.28 1.94v4.18h-1.34zM185.82 68.25a4.05 4.05 0 003.06 1.5c1.1 0 2.09-.53 2.09-1.58 0-2.17-5.56-1.77-5.56-5 0-1.79 1.53-2.68 3.53-2.68 1 0 3 .39 3 1.79v.85h-1.27v-.47c0-.73-1.06-1-1.71-1-1.38 0-2.21.47-2.21 1.44 0 2.23 5.56 1.72 5.56 5 0 1.65-1.5 2.78-3.47 2.78a4.75 4.75 0 01-3.81-1.74zM199.77 60.52a5.2 5.2 0 110 10.4 5.2 5.2 0 110-10.4zm0 9.19a3.9 3.9 0 003.85-4 3.86 3.86 0 10-7.71 0 3.91 3.91 0 003.88 4zM217.66 60.52a3.49 3.49 0 013.23 1.85 6.94 6.94 0 010-.75v-3.21a.39.39 0 00-.43-.44h-.83v-1.16H221c.85 0 1.21.35 1.21 1.2v11.07a.38.38 0 00.43.44h.83v1.16h-1.38c-.83 0-1.19-.37-1.19-1.1a4.65 4.65 0 010-.64 3.59 3.59 0 01-3.41 2c-2.66 0-4.32-2.13-4.32-5.21s1.88-5.21 4.49-5.21zm3.27 5.19c0-2-1-4-3.15-4-1.76 0-3.2 1.48-3.2 4s1.28 4 3.14 4c1.65 0 3.21-1.18 3.21-4zM230.25 60.52c2.74 0 4.17 2.11 4.17 4.58v.67h-7.62a3.76 3.76 0 003.85 3.94 4.45 4.45 0 003-1.22l.65 1a5.63 5.63 0 01-3.69 1.42 5 5 0 01-5.19-5.19 4.85 4.85 0 014.83-5.2zM233 64.7c-.07-2.05-1.34-3.06-2.8-3.06a3.4 3.4 0 00-3.41 3.06zM244.05 58h-1.28v-1.19h7.93c.85 0 1.2.35 1.2 1.2v1.38h-1.3v-.93a.39.39 0 00-.43-.43h-4.74v5h5.21v1.23h-5.21V69a.39.39 0 00.43.44h4.88a.38.38 0 00.43-.44v-.9h1.29v1.38c0 .85-.36 1.2-1.21 1.2h-6c-.85 0-1.2-.35-1.2-1.2zM254.89 68.25a4 4 0 003.06 1.5c1.1 0 2.09-.53 2.09-1.58 0-2.17-5.57-1.77-5.57-5 0-1.79 1.54-2.68 3.53-2.68 1 0 3 .39 3 1.79v.85h-1.26v-.47c0-.73-1.06-1-1.72-1-1.38 0-2.21.47-2.21 1.44 0 2.23 5.57 1.72 5.57 5 0 1.65-1.5 2.78-3.47 2.78a4.75 4.75 0 01-3.81-1.74zM264.54 62.35a.4.4 0 00-.44-.43h-.82v-1.17h1.36c.85 0 1.18.36 1.18 1v.67a3.56 3.56 0 013.42-1.95c2.66 0 4.32 2.13 4.32 5.21s-1.88 5.19-4.44 5.19a3.52 3.52 0 01-3.24-1.87v5.59h-1.34zm4.46 7.38c1.76 0 3.2-1.48 3.2-4s-1.29-4-3.14-4c-1.66 0-3.22 1.18-3.22 4 0 2.01 1.09 4 3.16 4zM280.68 60.52c2.75 0 4.17 2.11 4.17 4.58v.67h-7.62a3.77 3.77 0 003.77 3.94 4.45 4.45 0 003-1.22l.65 1a5.63 5.63 0 01-3.65 1.43 5 5 0 01-5.19-5.19 4.85 4.85 0 014.87-5.21zm2.79 4.18c-.08-2.05-1.35-3.06-2.81-3.06a3.41 3.41 0 00-3.41 3.06zM292.43 60.52c1.12 0 3.53.47 3.53 2.11v.89h-1.26v-.58c0-.82-1.44-1.22-2.27-1.22a4 4 0 000 8 4.41 4.41 0 003.2-1.4l.63 1a5.26 5.26 0 01-3.89 1.62 5 5 0 01-5.21-5.19 5.08 5.08 0 015.27-5.23zM299.24 62.35a.4.4 0 00-.44-.43h-.8v-1.17h1.4c.85 0 1.2.36 1.2 1.21v7.12a.39.39 0 00.44.44h.83v1.16h-1.41c-.85 0-1.2-.35-1.2-1.2zm0-5.54h1.3v1.69h-1.3zM309.84 64.56h.55v-.12c0-2.07-.75-2.8-2.56-2.8-.5 0-1.94.14-1.94.87v.63h-1.28v-1c0-1.38 2.37-1.67 3.24-1.67 3.13 0 3.88 1.67 3.88 3.81v4.75a.39.39 0 00.44.44h.83v1.16h-1.37c-.84 0-1.18-.37-1.18-1.18v-.73a3.52 3.52 0 01-3.3 2.15c-1.65 0-3.37-1-3.37-2.94-.02-3.25 4.34-3.37 6.06-3.37zm-2.49 5.21c1.9 0 3-2 3-3.69v-.45h-.57c-1.56 0-4.68 0-4.68 2.27a2 2 0 002.25 1.87zM315.7 58.41a.4.4 0 00-.43-.44h-.83v-1.16h1.4c.85 0 1.2.35 1.2 1.2v11.07a.39.39 0 00.44.44h.83v1.16h-1.4c-.85 0-1.21-.35-1.21-1.2zM321.25 62.35a.4.4 0 00-.44-.43H320v-1.17h1.41c.84 0 1.2.36 1.2 1.21v7.12a.39.39 0 00.43.44h.83v1.16h-1.4c-.85 0-1.2-.35-1.2-1.2zm0-5.54h1.3v1.69h-1.3zM325.75 69.81l5.58-7c.38-.48.79-.91.79-.91a9.12 9.12 0 01-1 0h-3.62a.39.39 0 00-.43.43v.77h-1.26V62c0-.85.35-1.21 1.2-1.21h6.89v.89l-5.57 7c-.39.47-.83.91-.83.91h5.11a.39.39 0 00.43-.44v-.77h1.26v1.19c0 .85-.35 1.2-1.2 1.2h-7.36zM342.29 64.56h.55v-.12c0-2.07-.75-2.8-2.57-2.8-.49 0-1.93.14-1.93.87v.63h-1.28v-1c0-1.38 2.37-1.67 3.23-1.67 3.14 0 3.89 1.67 3.89 3.81v4.75a.39.39 0 00.44.44h.83v1.16h-1.37c-.84 0-1.18-.37-1.18-1.18v-.73a3.52 3.52 0 01-3.3 2.15c-1.65 0-3.37-1-3.37-2.94-.02-3.25 4.34-3.37 6.06-3.37zm-2.49 5.21c1.9 0 3-2 3-3.69v-.45h-.57c-1.56 0-4.68 0-4.68 2.27a2 2 0 002.25 1.87zM352.47 60.52c1.13 0 3.54.47 3.54 2.11v.89h-1.27v-.58c0-.82-1.44-1.22-2.27-1.22a4 4 0 000 8 4.38 4.38 0 003.2-1.4l.63 1a5.36 5.36 0 01-3.93 1.62l-.15.85a1.42 1.42 0 011.38 1.4c0 1.14-.93 1.56-1.9 1.56a4.56 4.56 0 01-1-.1v-.95a3 3 0 00.83.12c.51 0 1-.14 1-.67s-.43-.67-1.12-.67h-.3l.38-1.64a5 5 0 01-4.31-5.11 5.08 5.08 0 015.29-5.21zM364.34 64.56h.55v-.12c0-2.07-.75-2.8-2.57-2.8-.49 0-1.93.14-1.93.87v.63h-1.28v-1c0-1.38 2.37-1.67 3.23-1.67 3.14 0 3.89 1.67 3.89 3.81v4.75a.39.39 0 00.44.44h.83v1.16h-1.37c-.85 0-1.18-.37-1.18-1.18v-.73a3.52 3.52 0 01-3.3 2.15c-1.66 0-3.37-1-3.37-2.94-.02-3.25 4.34-3.37 6.06-3.37zm-3-7.77c1.32 0 1.6 1.42 2.48 1.42.65 0 .79-.85.79-1.36h1.05c0 1.52-.63 2.3-1.84 2.3s-1.59-1.4-2.5-1.4c-.65 0-.79.83-.79 1.35h-1c-.05-1.52.56-2.31 1.79-2.31zm.53 13c1.89 0 3-2 3-3.69v-.45h-.57c-1.56 0-4.68 0-4.68 2.27a2 2 0 002.23 1.85zM374.52 60.52a5.2 5.2 0 11-5.23 5.15 5.14 5.14 0 015.23-5.15zm0 9.19a3.91 3.91 0 003.85-4 3.86 3.86 0 10-7.72 0 3.91 3.91 0 003.89 4zM392.8 60.52c2.74 0 4.17 2.11 4.17 4.58 0 .23-.05.67-.05.67h-7.61a3.76 3.76 0 003.85 3.94 4.45 4.45 0 003-1.22l.65 1a5.63 5.63 0 01-3.69 1.42 5 5 0 01-5.19-5.19 4.85 4.85 0 014.87-5.2zm2.78 4.18c-.08-2.05-1.34-3.06-2.8-3.06a3.4 3.4 0 00-3.41 3.06zM400.24 62.35a.39.39 0 00-.43-.43H399v-1.17h1.38c.83 0 1.21.36 1.21 1.11v.45a5 5 0 01-.05.71h.05a4.07 4.07 0 013.59-2.5 2.75 2.75 0 013.06 2.48 4.05 4.05 0 013.66-2.48c2.4 0 3.29 1.4 3.29 3.85v4.71a.39.39 0 00.44.44h.83v1.16h-1.41c-.85 0-1.2-.35-1.2-1.2V64.7c0-1.62-.34-3-2.15-3a3.57 3.57 0 00-3.14 2.8 4.7 4.7 0 00-.18 1.44v4.7h-1.34v-6c0-1.5-.22-3-2.09-3a3.64 3.64 0 00-3.24 2.92 4.82 4.82 0 00-.16 1.32v4.7h-1.34zM151.53 92.44a5.07 5.07 0 003.6 1.7 2.54 2.54 0 002.74-2.47c0-3.43-6.85-2.74-6.85-7 0-1.94 1.68-3.56 4.24-3.56 1.35 0 3.75.58 3.75 2.39v1h-1.3v-.7c0-.83-1.14-1.44-2.43-1.44-1.79 0-2.84 1-2.84 2.23 0 3.21 6.85 2.43 6.85 7a3.88 3.88 0 01-4.2 3.83 5.86 5.86 0 01-4.4-2zM167.64 89.07h.55V89c0-2.07-.75-2.8-2.56-2.8-.5 0-1.94.13-1.94.87v.63h-1.28v-1c0-1.38 2.37-1.68 3.24-1.68 3.13 0 3.88 1.68 3.88 3.81v4.76a.39.39 0 00.47.41h.83v1.17h-1.36c-.85 0-1.19-.38-1.19-1.19v-.73a3.51 3.51 0 01-3.29 2.15c-1.66 0-3.38-1-3.38-2.94-.05-3.27 4.31-3.39 6.03-3.39zm-2.49 5.21c1.9 0 3-2 3-3.69v-.46h-.57c-1.56 0-4.68 0-4.68 2.27a2 2 0 002.25 1.88zM173.52 86.86a.39.39 0 00-.43-.44h-.83v-1.16h1.38c.83 0 1.21.35 1.21 1.1v.46a6.39 6.39 0 010 .71 4.2 4.2 0 013.94-2.53c2.47 0 3.34 1.4 3.34 3.85v4.72a.39.39 0 00.43.43h.83v1.17H182c-.85 0-1.2-.36-1.2-1.21v-4.73c0-1.56-.24-3-2.16-3a3.79 3.79 0 00-3.64 2.86 4.83 4.83 0 00-.16 1.34v4.76h-1.34zM190.08 85c2.75 0 4.17 2.11 4.17 4.58v.67h-7.62a3.77 3.77 0 003.85 4 4.45 4.45 0 003-1.22l.65 1a5.63 5.63 0 01-3.69 1.42 5 5 0 01-5.19-5.19 4.86 4.86 0 014.83-5.26zm2.79 4.19c-.08-2.06-1.35-3.06-2.81-3.06a3.4 3.4 0 00-3.41 3.06zM202.68 89.07h.55V89c0-2.07-.75-2.8-2.57-2.8-.49 0-1.93.13-1.93.87v.63h-1.28v-1c0-1.38 2.36-1.68 3.23-1.68 3.14 0 3.89 1.68 3.89 3.81v4.76a.39.39 0 00.43.41h.82v1.17h-1.36c-.85 0-1.18-.38-1.18-1.19v-.73a3.52 3.52 0 01-3.3 2.15c-1.66 0-3.37-1-3.37-2.94-.01-3.27 4.39-3.39 6.07-3.39zm-2.49 5.21c1.89 0 3-2 3-3.69v-.46h-.57c-1.56 0-4.68 0-4.68 2.27a2 2 0 002.25 1.88zM208.56 86.86a.4.4 0 00-.43-.44h-.83v-1.16h1.38c.83 0 1.2.35 1.2 1.1v.46a6.39 6.39 0 010 .71 4.08 4.08 0 013.59-2.53 2.74 2.74 0 013.08 2.49 4 4 0 013.69-2.49c2.41 0 3.3 1.4 3.3 3.85v4.72a.39.39 0 00.46.43h.83v1.17h-1.4c-.85 0-1.2-.36-1.2-1.21v-4.75c0-1.62-.34-3-2.15-3a3.57 3.57 0 00-3.14 2.8 4.66 4.66 0 00-.18 1.44v4.7h-1.34v-6c0-1.5-.22-3-2.09-3a3.63 3.63 0 00-3.24 2.92 4.73 4.73 0 00-.16 1.32v4.7h-1.34zM231.49 85c2.75 0 4.17 2.11 4.17 4.58v.67H228a3.77 3.77 0 003.85 4 4.42 4.42 0 003-1.22l.65 1a5.63 5.63 0 01-3.69 1.42 5 5 0 01-5.19-5.19 4.86 4.86 0 014.87-5.26zm2.79 4.19c-.08-2.06-1.34-3.06-2.8-3.06a3.41 3.41 0 00-3.42 3.06zM238.94 86.86a.4.4 0 00-.44-.44h-.83v-1.16h1.39c.82 0 1.2.35 1.2 1.1v.46a6.39 6.39 0 010 .71 4.21 4.21 0 014-2.51c2.46 0 3.33 1.4 3.33 3.85v4.72a.39.39 0 00.41.41h.83v1.17h-1.43c-.85 0-1.2-.36-1.2-1.21v-4.73c0-1.56-.24-3-2.15-3a3.77 3.77 0 00-3.61 2.81 4.83 4.83 0 00-.16 1.34v4.76h-1.34zM251.65 86.38h-1.3v-1.12h1.32v-2.74H253v2.74h2.49v1.12H253v5.06c0 2.32 1.48 2.62 2.23 2.62a2.16 2.16 0 00.45 0v1.21a4.87 4.87 0 01-.57 0c-1.14 0-3.45-.37-3.45-3.69zM262.84 85a5.2 5.2 0 11-5.23 5.15 5.14 5.14 0 015.23-5.15zm0 9.2a3.92 3.92 0 003.85-4 3.86 3.86 0 10-7.72 0 3.92 3.92 0 003.89 4.02zM281.12 85c2.74 0 4.16 2.11 4.16 4.58v.67h-7.61a3.76 3.76 0 003.84 4 4.42 4.42 0 003-1.22l.65 1a5.63 5.63 0 01-3.69 1.42 5 5 0 01-5.19-5.19 4.86 4.86 0 014.84-5.26zm2.78 4.19c-.08-2.06-1.34-3.06-2.8-3.06a3.41 3.41 0 00-3.42 3.06zM294.38 92.44a5.09 5.09 0 003.6 1.7 2.54 2.54 0 002.74-2.47c0-3.43-6.85-2.74-6.85-7 0-1.94 1.68-3.56 4.24-3.56 1.35 0 3.75.58 3.75 2.39v1h-1.3v-.7c0-.83-1.14-1.44-2.43-1.44-1.79 0-2.84 1-2.84 2.23 0 3.21 6.85 2.43 6.85 7a3.88 3.88 0 01-4.2 3.83 5.86 5.86 0 01-4.4-2zM310.49 89.07h.51V89c0-2.07-.75-2.8-2.56-2.8-.5 0-1.94.13-1.94.87v.63h-1.28v-1c0-1.38 2.37-1.68 3.24-1.68 3.13 0 3.88 1.68 3.88 3.81v4.76a.39.39 0 00.44.43h.83v1.17h-1.37c-.84 0-1.18-.38-1.18-1.19v-.73a3.51 3.51 0 01-3.29 2.15c-1.66 0-3.38-1-3.38-2.94.02-3.29 4.38-3.41 6.1-3.41zM308 94.28c1.9 0 3-2 3-3.69v-.46h-.57c-1.56 0-4.68 0-4.68 2.27a2 2 0 002.25 1.88zM316.33 86.86a.4.4 0 00-.43-.44h-.83v-1.16h1.4c.85 0 1.2.35 1.2 1.16v4.8c0 1.56.26 2.94 2.17 2.94 2.26 0 3.66-2 3.66-4.15v-4.75h1.34v8.33a.39.39 0 00.43.43h.83v1.17h-1.36c-.83 0-1.2-.36-1.2-1.11v-.45-.71a4.25 4.25 0 01-3.87 2.5c-2.35 0-3.34-1.26-3.34-3.85zm4.94-5.55h1.5l-1.72 2.35h-1.16zM332.44 85a3.51 3.51 0 013.24 1.86v-3.95a.39.39 0 00-.44-.43h-.83v-1.17h1.4c.85 0 1.21.36 1.21 1.21v11.07a.39.39 0 00.43.43h.83v1.17h-1.38c-.83 0-1.19-.38-1.19-1.11a4.58 4.58 0 010-.63 3.57 3.57 0 01-3.41 2c-2.66 0-4.32-2.13-4.32-5.21s1.85-5.24 4.46-5.24zm3.27 5.19c0-2-1-4-3.15-4-1.76 0-3.2 1.48-3.2 4s1.28 4 3.14 4c1.66.03 3.21-1.19 3.21-3.98zM345 85c2.75 0 4.17 2.11 4.17 4.58v.67h-7.62a3.76 3.76 0 003.85 4 4.45 4.45 0 003-1.22l.65 1a5.63 5.63 0 01-3.69 1.42 5 5 0 01-5.19-5.19A4.86 4.86 0 01345 85zm2.79 4.19c-.08-2.06-1.35-3.06-2.81-3.06a3.4 3.4 0 00-3.41 3.06zM357 94h.25c.36 0 .57-.06.71-.43l4.54-12.22h1.48l4.54 12.22c.14.37.34.43.71.43h.24v1.23h-.63c-1 0-1.29-.2-1.64-1.15l-1.2-3.32h-5.51L359.23 94c-.36.95-.64 1.15-1.62 1.15H357zm8.62-4.4l-1.84-5c-.23-.65-.53-1.8-.53-1.8s-.29 1.15-.53 1.8l-1.82 5zM372 86.86a.4.4 0 00-.44-.44h-.83v-1.16h1.39c.82 0 1.2.35 1.2 1.1v.46a6.39 6.39 0 010 .71 4.08 4.08 0 013.59-2.53 2.75 2.75 0 013.09 2.51 4 4 0 013.68-2.51c2.41 0 3.3 1.4 3.3 3.85v4.72a.38.38 0 00.43.43h.83v1.17h-1.4c-.85 0-1.21-.36-1.21-1.21v-4.75c0-1.62-.33-3-2.15-3a3.58 3.58 0 00-3.14 2.8 5 5 0 00-.17 1.44v4.7h-1.35v-6c0-1.5-.21-3-2.09-3a3.62 3.62 0 00-3.23 2.92 4.73 4.73 0 00-.16 1.32v4.7H372zM390.91 82.91a.39.39 0 00-.44-.43h-.83v-1.17h1.41c.84 0 1.2.36 1.2 1.21v4.4a3.59 3.59 0 013.37-1.9c2.67 0 4.33 2.13 4.33 5.21s-1.88 5.19-4.49 5.19a3.62 3.62 0 01-3.25-1.91 7.45 7.45 0 010 .81v.87h-1.3zm4.46 11.33c1.75 0 3.19-1.48 3.19-4s-1.3-4-3.13-4c-1.66 0-3.22 1.18-3.22 4 0 2.01 1.03 4 3.16 4zM403.18 86.86a.39.39 0 00-.43-.44h-.83v-1.16h1.4c.85 0 1.21.35 1.21 1.2v7.13a.38.38 0 00.47.41h.83v1.17h-1.4c-.85 0-1.21-.36-1.21-1.21zm0-5.55h1.3V83h-1.3zM412.6 85c2.74 0 4.16 2.11 4.16 4.58v.67h-7.66a3.78 3.78 0 003.85 4 4.42 4.42 0 003-1.22l.66 1a5.64 5.64 0 01-3.7 1.42 5 5 0 01-5.19-5.19A4.86 4.86 0 01412.6 85zm2.78 4.19c-.08-2.06-1.34-3.06-2.8-3.06a3.41 3.41 0 00-3.42 3.06zM420 86.86a.4.4 0 00-.43-.44h-.83v-1.16h1.38c.83 0 1.2.35 1.2 1.1v.46a6.39 6.39 0 010 .71 4.22 4.22 0 013.99-2.53c2.47 0 3.34 1.4 3.34 3.85v4.72a.38.38 0 00.43.43h.83v1.17h-1.4c-.85 0-1.21-.36-1.21-1.21v-4.73c0-1.56-.23-3-2.15-3a3.79 3.79 0 00-3.61 2.81 4.83 4.83 0 00-.16 1.34v4.76H420zM432.75 86.38h-1.3v-1.12h1.32v-2.74h1.33v2.74h2.48v1.12h-2.48v5.06c0 2.32 1.48 2.62 2.22 2.62a2.34 2.34 0 00.46 0v1.21a5.09 5.09 0 01-.57 0c-1.15 0-3.46-.37-3.46-3.69zM444.85 89.07h.55V89c0-2.07-.75-2.8-2.56-2.8-.49 0-1.94.13-1.94.87v.63h-1.28v-1c0-1.38 2.37-1.68 3.24-1.68 3.14 0 3.89 1.68 3.89 3.81v4.76a.38.38 0 00.43.43h.82v1.17h-1.36c-.85 0-1.19-.38-1.19-1.19v-.73a3.51 3.51 0 01-3.29 2.15c-1.66 0-3.38-1-3.38-2.94-.01-3.29 4.36-3.41 6.07-3.41zm-2.48 5.21c1.89 0 3-2 3-3.69v-.46h-.57c-1.56 0-4.67 0-4.67 2.27a2 2 0 002.24 1.88zM450.71 82.91a.39.39 0 00-.43-.43h-.83v-1.17h1.4c.85 0 1.21.36 1.21 1.21v11.07a.39.39 0 00.43.43h.83v1.17h-1.4c-.85 0-1.21-.36-1.21-1.21z"/></svg>