<svg xmlns="http://www.w3.org/2000/svg" viewBox="0 0 453.32 96.34"><defs><style>.cls-1{fill:#4a1d0e}.cls-2{fill:#2db3af}.cls-3{fill:#45af75}.cls-4{fill:#50ac32}</style></defs><path class="cls-1" d="M50.37 15.82v1.88a1.43 1.43 0 0 0 .33.95 2.58 2.58 0 0 0 .86.64 4.28 4.28 0 0 0 1.25.36 10.59 10.59 0 0 0 1.53.11 10.47 10.47 0 0 0 1.66-.13 5.7 5.7 0 0 0 1.5-.43 2.85 2.85 0 0 0 1.09-.88 2.39 2.39 0 0 0 .41-1.47 1.94 1.94 0 0 0-.29-1.09 2.29 2.29 0 0 0-.85-.74 6.08 6.08 0 0 0-1.3-.51c-.5-.15-1-.3-1.62-.44l-2.41-.56c-.92-.21-1.8-.44-2.66-.69a7.39 7.39 0 0 1-2.26-1.08A5.3 5.3 0 0 1 46 9.9a6.45 6.45 0 0 1-.61-3 7.87 7.87 0 0 1 .14-1.38A7 7 0 0 1 46.06 4 6.83 6.83 0 0 1 47 2.52a5.51 5.51 0 0 1 1.58-1.28 9.43 9.43 0 0 1 2.32-.9A13.35 13.35 0 0 1 54.06 0a11 11 0 0 1 4 .66 8 8 0 0 1 2.7 1.64 6.05 6.05 0 0 1 1.5 2.14 5.69 5.69 0 0 1 .47 2.19V8.5h-4.51V6.66a2.17 2.17 0 0 0-.22-.92 2.52 2.52 0 0 0-.75-.91 4.3 4.3 0 0 0-1.39-.69 7.63 7.63 0 0 0-2.14-.26 6.48 6.48 0 0 0-1.36.12 4.25 4.25 0 0 0-1.27.45 2.82 2.82 0 0 0-.92.83 2.16 2.16 0 0 0-.36 1.27A2.26 2.26 0 0 0 50 7.64a2 2 0 0 0 .6.68 2.79 2.79 0 0 0 .78.37l.77.22 5.47 1.34a19.14 19.14 0 0 1 2.22.69A6.45 6.45 0 0 1 61.75 12a5 5 0 0 1 1.3 1.72 6 6 0 0 1 .48 2.53 7.39 7.39 0 0 1-.53 2.93 6.33 6.33 0 0 1-1.35 2 6.87 6.87 0 0 1-1.82 1.29 10.28 10.28 0 0 1-2 .74 12.72 12.72 0 0 1-1.83.33c-.56.05-1 .08-1.34.08a16.41 16.41 0 0 1-4.07-.46A10.43 10.43 0 0 1 47.72 22 5.16 5.16 0 0 1 46 20.35a3.59 3.59 0 0 1-.58-1.94v-2.59zM82 18.48a.83.83 0 0 0 .23.54.69.69 0 0 0 .52.27h1.13V23h-3.71a1.84 1.84 0 0 1-.71-.16 2.65 2.65 0 0 1-.72-.43 2.26 2.26 0 0 1-.54-.68 1.66 1.66 0 0 1-.22-.85v-.44a5.38 5.38 0 0 1-2.16 2.2 6.13 6.13 0 0 1-3.06.8 9.06 9.06 0 0 1-3.13-.44 6.67 6.67 0 0 1-2.52-1.59 7.3 7.3 0 0 1-1.68-2.74 11.19 11.19 0 0 1-.61-3.91 9.83 9.83 0 0 1 .7-3.89A7.52 7.52 0 0 1 70.1 6.5a9.84 9.84 0 0 1 3.22-.5 5.58 5.58 0 0 1 1.31.16 6.6 6.6 0 0 1 1.37.41 6.8 6.8 0 0 1 1.17.67 4.2 4.2 0 0 1 .89.83v-1.5h4zm-4.69-3.76a9.21 9.21 0 0 0-.16-1.67 5.07 5.07 0 0 0-.57-1.64 3.55 3.55 0 0 0-1.22-1.25 3.84 3.84 0 0 0-2.05-.5 3.78 3.78 0 0 0-2.06.5 3.44 3.44 0 0 0-1.21 1.25 5.34 5.34 0 0 0-.58 1.64 10.14 10.14 0 0 0-.15 1.67 10.32 10.32 0 0 0 .15 1.71 5.34 5.34 0 0 0 .58 1.64 3.42 3.42 0 0 0 1.21 1.24 3.88 3.88 0 0 0 2.06.48 3.94 3.94 0 0 0 2.05-.48 3.53 3.53 0 0 0 1.22-1.24 5.07 5.07 0 0 0 .57-1.64 9.39 9.39 0 0 0 .17-1.71zM87.23 11.1a1 1 0 0 0-.27-.63.77.77 0 0 0-.57-.31h-1V6.41h4.1a1.45 1.45 0 0 1 .72.2 2.56 2.56 0 0 1 .62.52 2.87 2.87 0 0 1 .46.69 1.86 1.86 0 0 1 .17.75v.56a7.1 7.1 0 0 1 .54-.92 4.84 4.84 0 0 1 1-1.05A5.42 5.42 0 0 1 96.48 6a7.09 7.09 0 0 1 2.29.36 5.21 5.21 0 0 1 1.83 1.06 5.08 5.08 0 0 1 1.21 1.74 5.82 5.82 0 0 1 .46 2.41v6.81a1 1 0 0 0 .25.63.69.69 0 0 0 .56.31h1.06V23h-3.53a1.88 1.88 0 0 1-1-.3 3.06 3.06 0 0 1-.86-.75 3.83 3.83 0 0 1-.61-1 2.8 2.8 0 0 1-.24-1.1v-6.91a9.68 9.68 0 0 0 0-1 2.66 2.66 0 0 0-.32-1.06 2.42 2.42 0 0 0-.86-.85 3.29 3.29 0 0 0-1.61-.34 3.36 3.36 0 0 0-2.46 1 3.89 3.89 0 0 0-1 2.88v6.4a2.64 2.64 0 0 1-.28 1.03 3.56 3.56 0 0 1-.62 1 3.32 3.32 0 0 1-.89.75 2 2 0 0 1-1 .3h-3.51v-3.76h1A.76.76 0 0 0 87 19a.87.87 0 0 0 .27-.6zM64 47h2.72v3.75h-2.56a3.79 3.79 0 0 1-1.38-.25 5.75 5.75 0 0 1-1.23-.64 6.92 6.92 0 0 1-1.06-.86 5.65 5.65 0 0 1-.8-1l-4.28-6H53v5.31a2.79 2.79 0 0 1-.3 1.24 4.27 4.27 0 0 1-1.87 1.92 2.62 2.62 0 0 1-1.21.31h-4V47h1.69a1.16 1.16 0 0 0 .75-.31.89.89 0 0 0 .34-.69V33.78a1.62 1.62 0 0 0-.4-1.06 1.29 1.29 0 0 0-1-.54h-1.41v-3.87h12a7.86 7.86 0 0 1 3.63.72 6.28 6.28 0 0 1 2.14 1.73 5.7 5.7 0 0 1 1 2.1 7.69 7.69 0 0 1 .27 1.79 12.35 12.35 0 0 1-.16 2 6.24 6.24 0 0 1-.64 2 5.25 5.25 0 0 1-1.39 1.68A6.13 6.13 0 0 1 60 41.38zm-7.72-8.81a4.47 4.47 0 0 0 2.74-.69 2.84 2.84 0 0 0 .89-2.38 3.73 3.73 0 0 0-.13-.95 2.31 2.31 0 0 0-.48-1 2.7 2.7 0 0 0-1-.74 4 4 0 0 0-1.67-.3H53v6zM84.85 46.1a.86.86 0 0 0 .29.62.83.83 0 0 0 .62.28h1v3.75H83a2.5 2.5 0 0 1-.69-.12 2.59 2.59 0 0 1-.78-.39 2.5 2.5 0 0 1-.64-.69 1.84 1.84 0 0 1-.26-1v-.65a4.92 4.92 0 0 1-2 2.42 5.64 5.64 0 0 1-3.14.89 7 7 0 0 1-2.27-.36 4.63 4.63 0 0 1-1.8-1.11 5.1 5.1 0 0 1-1.17-1.9 8.09 8.09 0 0 1-.42-2.76v-6.36a.81.81 0 0 0-.25-.56.72.72 0 0 0-.53-.29H68v-3.75h3.82a2.63 2.63 0 0 1 1.08.33 2.72 2.72 0 0 1 .76.67 2.85 2.85 0 0 1 .46.88 3.34 3.34 0 0 1 .14.94v7.5a4 4 0 0 0 .25 1.56 2.15 2.15 0 0 0 .65.92 2.26 2.26 0 0 0 .93.46 4.42 4.42 0 0 0 1 .12 3.88 3.88 0 0 0 1.13-.17 2.82 2.82 0 0 0 1.09-.61 3.48 3.48 0 0 0 .83-1.15 4.47 4.47 0 0 0 .33-1.85v-5a1 1 0 0 0-.25-.58.72.72 0 0 0-.53-.3H78.6v-3.72h3.72a2.41 2.41 0 0 1 1.77.78 2.88 2.88 0 0 1 .76 2.1zM89.83 38.72a.87.87 0 0 0-.25-.58.77.77 0 0 0-.57-.27H88v-3.75h3.38a2.7 2.7 0 0 1 .92.19 3.19 3.19 0 0 1 .87.52 2.84 2.84 0 0 1 .64.75 1.61 1.61 0 0 1 .25.86V37h.07c.23-.42.47-.82.72-1.22a4.82 4.82 0 0 1 .9-1.06 4 4 0 0 1 1.19-.72 4.51 4.51 0 0 1 1.7-.29h.85v4.44a3 3 0 0 0-.61-.07h-.65a5 5 0 0 0-2.06.36 3.19 3.19 0 0 0-1.22.94 3.25 3.25 0 0 0-.59 1.28 6.12 6.12 0 0 0-.16 1.39v8.66h-4.37zM117.65 46.19a.86.86 0 0 0 .23.55.71.71 0 0 0 .52.26h1.12v3.75h-3.72a2 2 0 0 1-.7-.15 2.68 2.68 0 0 1-.72-.44 2.56 2.56 0 0 1-.55-.67 1.79 1.79 0 0 1-.21-.86v-.44a5.47 5.47 0 0 1-2.16 2.21 6.12 6.12 0 0 1-3.06.79 9.3 9.3 0 0 1-3.13-.51 6.82 6.82 0 0 1-2.52-1.6 7.49 7.49 0 0 1-1.69-2.73 11.51 11.51 0 0 1-.61-3.91 9.79 9.79 0 0 1 .71-3.89 7.8 7.8 0 0 1 1.84-2.72 7.6 7.6 0 0 1 2.71-1.61 9.59 9.59 0 0 1 3.22-.54 6.24 6.24 0 0 1 1.31.16 7 7 0 0 1 1.31.44 7.19 7.19 0 0 1 1.18.67 4.47 4.47 0 0 1 .89.83v-1.5h4zM113 42.44a9.13 9.13 0 0 0-.16-1.67 4.92 4.92 0 0 0-.58-1.65 3.52 3.52 0 0 0-1.26-1.25 4.49 4.49 0 0 0-4.12 0 3.58 3.58 0 0 0-1.2 1.25 5.39 5.39 0 0 0-.58 1.65 10 10 0 0 0-.15 1.67 10.21 10.21 0 0 0 .15 1.7 5.24 5.24 0 0 0 .58 1.64 3.39 3.39 0 0 0 1.2 1.24A4.66 4.66 0 0 0 111 47a3.34 3.34 0 0 0 1.21-1.24 4.79 4.79 0 0 0 .58-1.64 9.28 9.28 0 0 0 .21-1.68zM127.22 45.44a.88.88 0 0 0 .29.64.89.89 0 0 0 .64.3h2.19v4.37h-4.13a2.48 2.48 0 0 1-1.18-.31 3.94 3.94 0 0 1-1.03-.84 4.46 4.46 0 0 1-.8-1.25 3.77 3.77 0 0 1-.31-1.53V32.94a.93.93 0 0 0-.25-.6.74.74 0 0 0-.56-.28h-1.38v-3.75h3.75a2.49 2.49 0 0 1 1.19.28 3 3 0 0 1 .89.72 3.31 3.31 0 0 1 .55.94 2.75 2.75 0 0 1 .19.93z"/><path class="cls-2" d="M27.13 60.67h-1.87a2.12 2.12 0 0 0-1.72.89v4.67a6.58 6.58 0 0 0 6.57 6.57H41v-8.23a9.22 9.22 0 0 0-9.19-9.19h-4.68z"/><path class="cls-2" d="M30.11 78.92a12.7 12.7 0 0 1-12.69-12.69v-4.67a2.1 2.1 0 0 0-1.72-.89h-1.87v-5.29H9.18A9.21 9.21 0 0 0 0 64.57v22.59a9.21 9.21 0 0 0 9.18 9.18h22.59A9.21 9.21 0 0 0 41 87.16v-8.24z"/><path class="cls-3" d="M86.54 72.8v-8.23a9.22 9.22 0 0 0-9.19-9.19H54.76a9.21 9.21 0 0 0-9.18 9.19v8.23zM45.58 78.92v8.24a9.21 9.21 0 0 0 9.18 9.18h22.59a9.21 9.21 0 0 0 9.19-9.18v-8.24z"/><path class="cls-4" d="M132.11 72.8v-8.23a9.21 9.21 0 0 0-9.18-9.19h-22.59a9.22 9.22 0 0 0-9.19 9.19v8.23zM91.15 78.92v8.24a9.21 9.21 0 0 0 9.19 9.18h22.59a9.21 9.21 0 0 0 9.18-9.18v-8.24z"/><path d="M20.48 46.55a13 13 0 0 1-13-13c0-9.7 13-21.53 13-21.53s13 11.83 13 21.53a13 13 0 0 1-13 13z" fill="#0fb8e5"/><path class="cls-1" d="M157.9 55.4c2.08 0 5.48.89 5.48 3.1v1.21H162v-.81c0-1.38-2.38-2.13-4.07-2.13a5.77 5.77 0 0 0-5.75 6.09c0 3.5 2.48 6.31 5.81 6.31a6.7 6.7 0 0 0 4.8-2.06l.83 1.06a7.77 7.77 0 0 1-5.62 2.38c-4.29 0-7.31-3.42-7.31-7.69a7.2 7.2 0 0 1 7.21-7.46zM166.11 61.5a.41.41 0 0 0-.46-.45h-.87v-1.23h1.48c.89 0 1.27.37 1.27 1.23v5.06c0 1.65.27 3.11 2.29 3.11 2.38 0 3.86-2.11 3.86-4.38v-5h1.41v8.79a.41.41 0 0 0 .46.46h.88v1.21H175c-.88 0-1.27-.37-1.27-1.17v-.48a7.18 7.18 0 0 1 0-.75 4.48 4.48 0 0 1-4.09 2.65c-2.48 0-3.52-1.33-3.52-4.06zM178.72 61.5a.41.41 0 0 0-.46-.45h-.87v-1.23h1.46c.87 0 1.27.35 1.27 1.18v.71a7.75 7.75 0 0 1 0 .79 3.57 3.57 0 0 1 3.31-2.79 2.93 2.93 0 0 1 .56.06v1.4a3.73 3.73 0 0 0-.52 0 3.36 3.36 0 0 0-3 2.71 6.85 6.85 0 0 0-.29 2v4.42h-1.42zM185.87 67.74a4.28 4.28 0 0 0 3.23 1.58c1.17 0 2.21-.56 2.21-1.67 0-2.29-5.88-1.87-5.88-5.25 0-1.9 1.63-2.83 3.73-2.83 1.07 0 3.19.41 3.19 1.89v.9H191v-.5c0-.77-1.13-1.06-1.82-1.06-1.45 0-2.33.5-2.33 1.52 0 2.35 5.88 1.81 5.88 5.29 0 1.75-1.59 2.94-3.67 2.94a5 5 0 0 1-4-1.83zM200 59.57a5.49 5.49 0 1 1-5.54 5.43 5.42 5.42 0 0 1 5.54-5.43zm0 9.71a4.13 4.13 0 0 0 4.06-4.28 4.07 4.07 0 1 0-8.14 0 4.13 4.13 0 0 0 4.08 4.28zM217.61 59.57a3.69 3.69 0 0 1 3.42 2v-4.23a.42.42 0 0 0-.46-.46h-.87v-1.23h1.48c.89 0 1.27.37 1.27 1.27v11.69a.41.41 0 0 0 .46.46h.87v1.23h-1.46c-.87 0-1.25-.4-1.25-1.17a5 5 0 0 1 0-.66 3.78 3.78 0 0 1-3.6 2.08c-2.82 0-4.57-2.25-4.57-5.5s1.96-5.48 4.71-5.48zm3.46 5.48c0-2.13-1.08-4.21-3.33-4.21-1.86 0-3.38 1.56-3.38 4.21s1.36 4.23 3.31 4.23c1.76 0 3.4-1.28 3.4-4.23zM230.28 59.57c2.9 0 4.4 2.23 4.4 4.83v.71h-8a4 4 0 0 0 4.06 4.17 4.68 4.68 0 0 0 3.07-1.28l.68 1.06a5.94 5.94 0 0 1-3.89 1.5 5.31 5.31 0 0 1-5.48-5.48 5.12 5.12 0 0 1 5.16-5.51zm2.94 4.43c-.08-2.17-1.41-3.24-3-3.24a3.6 3.6 0 0 0-3.6 3.24zM243.6 56.94h-1.35v-1.29h8.38c.89 0 1.27.37 1.27 1.27v1.46h-1.38v-1a.41.41 0 0 0-.46-.46h-5v5.34h5.51v1.29h-5.51v5a.41.41 0 0 0 .46.46h5.15a.41.41 0 0 0 .46-.46v-1h1.35V69c0 .9-.37 1.27-1.27 1.27h-6.34c-.89 0-1.27-.37-1.27-1.27zM254.42 67.74a4.28 4.28 0 0 0 3.23 1.58c1.17 0 2.21-.56 2.21-1.67 0-2.29-5.88-1.87-5.88-5.25 0-1.9 1.63-2.83 3.73-2.83 1.07 0 3.19.41 3.19 1.89v.9h-1.33v-.5c0-.77-1.13-1.06-1.82-1.06-1.45 0-2.33.5-2.33 1.52 0 2.35 5.88 1.81 5.88 5.29 0 1.75-1.59 2.94-3.67 2.94a5 5 0 0 1-4-1.83zM264 61.5a.41.41 0 0 0-.46-.45h-.88v-1.23h1.44c.9 0 1.25.37 1.25 1.1v.71a3.77 3.77 0 0 1 3.65-2.06c2.81 0 4.56 2.25 4.56 5.5s-2 5.48-4.69 5.48a3.72 3.72 0 0 1-3.44-2v5.92H264zm4.71 7.8c1.85 0 3.37-1.56 3.37-4.23s-1.35-4.21-3.31-4.21c-1.75 0-3.4 1.25-3.4 4.23-.01 2.11 1.14 4.21 3.33 4.21zM280.41 59.57c2.9 0 4.4 2.23 4.4 4.83v.71h-8a4 4 0 0 0 4.07 4.17 4.67 4.67 0 0 0 3.05-1.28l.69 1.06a6 6 0 0 1-3.9 1.5 5.31 5.31 0 0 1-5.48-5.48 5.13 5.13 0 0 1 5.17-5.51zm2.94 4.43c-.08-2.17-1.42-3.24-3-3.24a3.61 3.61 0 0 0-3.57 3.24zM292.19 59.57c1.18 0 3.73.5 3.73 2.23v.93h-1.34v-.6c0-.88-1.52-1.29-2.39-1.29a4.21 4.21 0 0 0 0 8.42 4.64 4.64 0 0 0 3.38-1.48l.66 1.06a5.51 5.51 0 0 1-4.1 1.71 5.31 5.31 0 0 1-5.51-5.48 5.36 5.36 0 0 1 5.57-5.5zM298.75 61.5a.41.41 0 0 0-.46-.45h-.87v-1.23h1.48c.89 0 1.27.37 1.27 1.27v7.52a.41.41 0 0 0 .46.46h.87v1.23H300c-.89 0-1.27-.37-1.27-1.27zm0-5.85h1.38v1.79h-1.38zM309.32 63.84h.58v-.13c0-2.18-.79-3-2.71-3-.52 0-2 .15-2 .92v.67h-1.39v-1c0-1.46 2.5-1.77 3.41-1.77 3.32 0 4.11 1.77 4.11 4v5a.41.41 0 0 0 .46.46h.87v1.31h-1.43c-.9 0-1.26-.4-1.26-1.25v-.77h-.05a3.7 3.7 0 0 1-3.48 2.27c-1.75 0-3.56-1-3.56-3.1.03-3.45 4.64-3.61 6.45-3.61zm-2.63 5.5c2 0 3.21-2.08 3.21-3.9V65h-.6c-1.65 0-4.94.05-4.94 2.4a2.08 2.08 0 0 0 2.33 1.94zM314.88 57.34a.41.41 0 0 0-.45-.46h-.88v-1.23H315c.9 0 1.27.37 1.27 1.27v11.69a.41.41 0 0 0 .46.46h.88v1.23h-1.48c-.9 0-1.28-.37-1.28-1.27zM320.12 61.5a.41.41 0 0 0-.46-.45h-.88v-1.23h1.48c.9 0 1.27.37 1.27 1.27v7.52a.41.41 0 0 0 .46.46h.88v1.23h-1.48c-.9 0-1.27-.37-1.27-1.27zm-.05-5.85h1.38v1.79h-1.38zM324.24 69.38l5.9-7.35c.4-.5.83-1 .83-1a10.26 10.26 0 0 1-1 0h-3.87a.4.4 0 0 0-.46.46v.81h-1.34v-1.21c0-.9.38-1.27 1.28-1.27h7.27v.93L327 68.09c-.41.5-.87 1-.87 1H331.52a.41.41 0 0 0 .46-.46v-.81h1.34V69c0 .9-.38 1.27-1.27 1.27h-7.78zM341.08 63.84h.59v-.13c0-2.18-.8-3-2.71-3-.52 0-2 .15-2 .92v.67h-1.35v-1c0-1.46 2.5-1.77 3.42-1.77 3.31 0 4.1 1.77 4.1 4v5a.41.41 0 0 0 .46.46h.88v1.31H343c-.9 0-1.25-.4-1.25-1.25v-.77a3.72 3.72 0 0 1-3.48 2.27c-1.75 0-3.57-1-3.57-3.1-.04-3.45 4.57-3.61 6.38-3.61zm-2.62 5.5c2 0 3.21-2.08 3.21-3.9V65h-.61c-1.65 0-4.94.05-4.94 2.4a2.08 2.08 0 0 0 2.34 1.94zM351.21 59.57c1.19 0 3.73.5 3.73 2.23v.93h-1.33v-.6c0-.88-1.52-1.29-2.4-1.29a4.21 4.21 0 0 0 0 8.42 4.64 4.64 0 0 0 3.38-1.48l.67 1.06a5.67 5.67 0 0 1-4.15 1.71l-.17.9a1.5 1.5 0 0 1 1.46 1.48c0 1.21-1 1.64-2 1.64a5.19 5.19 0 0 1-1-.1v-1a3.29 3.29 0 0 0 .87.12c.55 0 1.07-.14 1.07-.7s-.46-.71-1.19-.71h-.31l.39-1.73a5.24 5.24 0 0 1-4.54-5.4 5.36 5.36 0 0 1 5.52-5.48zM363.11 63.84h.59v-.13c0-2.18-.79-3-2.71-3-.52 0-2 .15-2 .92v.67h-1.36v-1c0-1.46 2.5-1.77 3.42-1.77 3.31 0 4.11 1.77 4.11 4v5a.4.4 0 0 0 .45.46h.88v1.31H365c-.9 0-1.25-.4-1.25-1.25v-.77a3.72 3.72 0 0 1-3.48 2.27c-1.75 0-3.57-1-3.57-3.1-.01-3.45 4.6-3.61 6.41-3.61zm-3.19-8.21c1.4 0 1.69 1.5 2.63 1.5.69 0 .83-.9.83-1.44h1.11c0 1.6-.67 2.44-1.94 2.44-1.42 0-1.69-1.48-2.65-1.48-.68 0-.83.87-.83 1.42H358c0-1.61.63-2.44 1.92-2.44zm.57 13.71c2 0 3.21-2.08 3.21-3.9V65h-.61c-1.64 0-4.94.05-4.94 2.4a2.08 2.08 0 0 0 2.34 1.94zM373.24 59.57a5.49 5.49 0 1 1-5.52 5.43 5.43 5.43 0 0 1 5.52-5.43zm0 9.71a4.13 4.13 0 0 0 4.09-4.28 4.08 4.08 0 1 0-8.15 0 4.13 4.13 0 0 0 4.08 4.28zM151.54 92.42a5.36 5.36 0 0 0 3.8 1.79 2.68 2.68 0 0 0 2.89-2.61c0-3.62-7.23-2.89-7.23-7.44 0-2 1.77-3.75 4.48-3.75 1.42 0 4 .6 4 2.52v1h-1.37v-.68c0-.88-1.21-1.53-2.57-1.53-1.89 0-3 1.11-3 2.36 0 3.4 7.23 2.56 7.23 7.4a4.09 4.09 0 0 1-4.44 4 6.19 6.19 0 0 1-4.64-2.08zM167.92 88.85h.59v-.12c0-2.19-.79-3-2.71-3-.52 0-2 .14-2 .91v.67h-1.4v-1c0-1.46 2.5-1.77 3.42-1.77 3.31 0 4.11 1.77 4.11 4v5a.4.4 0 0 0 .45.46h.88v1.23h-1.44c-.9 0-1.25-.39-1.25-1.25v-.77a3.7 3.7 0 0 1-3.48 2.27c-1.75 0-3.57-1-3.57-3.1-.02-3.38 4.59-3.53 6.4-3.53zm-2.62 5.5c2 0 3.21-2.08 3.21-3.89V90h-.61c-1.64 0-4.94 0-4.94 2.39a2.08 2.08 0 0 0 2.34 1.96zM173.51 86.52a.42.42 0 0 0-.46-.46h-.87v-1.23h1.45c.88 0 1.28.37 1.28 1.17v.47a5.83 5.83 0 0 1 0 .76 4.44 4.44 0 0 1 4.16-2.65c2.61 0 3.53 1.48 3.53 4.06v5a.4.4 0 0 0 .46.46h.87v1.23h-1.48c-.89 0-1.27-.37-1.27-1.27V89c0-1.65-.25-3.11-2.27-3.11a4 4 0 0 0-3.82 3 5.42 5.42 0 0 0-.16 1.42v5h-1.42zM190.37 84.58c2.9 0 4.4 2.23 4.4 4.83v.71h-8a4 4 0 0 0 4.07 4.17 4.67 4.67 0 0 0 3.05-1.29l.69 1.06a6 6 0 0 1-3.9 1.5 5.31 5.31 0 0 1-5.48-5.48 5.13 5.13 0 0 1 5.17-5.5zm2.94 4.42c-.08-2.17-1.42-3.23-3-3.23a3.6 3.6 0 0 0-3.57 3.23zM203 88.85h.59v-.12c0-2.19-.8-3-2.71-3-.52 0-2 .14-2 .91v.67h-1.35v-1c0-1.46 2.5-1.77 3.42-1.77 3.31 0 4.1 1.77 4.1 4v5a.41.41 0 0 0 .46.46h.88v1.23h-1.44c-.9 0-1.25-.39-1.25-1.25v-.77a3.72 3.72 0 0 1-3.48 2.27c-1.75 0-3.57-1-3.57-3.1-.03-3.38 4.58-3.53 6.35-3.53zm-2.62 5.5c2 0 3.21-2.08 3.21-3.89V90H203c-1.64 0-4.94 0-4.94 2.39a2.08 2.08 0 0 0 2.36 1.96zM208.63 86.52a.42.42 0 0 0-.46-.46h-.87v-1.23h1.45c.88 0 1.28.37 1.28 1.17v.47a5.83 5.83 0 0 1-.05.76h.02a4.3 4.3 0 0 1 3.79-2.65 2.89 2.89 0 0 1 3.25 2.62 4.28 4.28 0 0 1 3.96-2.62c2.54 0 3.48 1.48 3.48 4.06v5a.41.41 0 0 0 .46.46h.87v1.23h-1.51c-.89 0-1.27-.37-1.27-1.27V89c0-1.71-.35-3.13-2.27-3.13a3.77 3.77 0 0 0-3.31 3 4.87 4.87 0 0 0-.19 1.52v5h-1.42V89c0-1.59-.23-3.13-2.21-3.13a3.84 3.84 0 0 0-3.42 3.13 5.24 5.24 0 0 0-.16 1.39v5h-1.42zM232.22 84.58c2.9 0 4.4 2.23 4.4 4.83v.71h-8.05a4 4 0 0 0 4.07 4.17 4.68 4.68 0 0 0 3.11-1.29l.68 1.06a5.94 5.94 0 0 1-3.89 1.5 5.31 5.31 0 0 1-5.49-5.48 5.13 5.13 0 0 1 5.17-5.5zm2.94 4.42c-.08-2.17-1.42-3.23-3-3.23A3.59 3.59 0 0 0 228.6 89zM239.46 86.52a.42.42 0 0 0-.46-.46h-.88v-1.23h1.46c.88 0 1.27.37 1.27 1.17v.47a7.26 7.26 0 0 1 0 .76 4.46 4.46 0 0 1 4.15-2.65c2.61 0 3.52 1.48 3.52 4.06v5a.41.41 0 0 0 .46.46h.88v1.23h-1.46c-.9 0-1.27-.37-1.27-1.27V89c0-1.65-.25-3.11-2.28-3.11a4 4 0 0 0-3.81 3 5 5 0 0 0-.17 1.42v5h-1.41zM252.25 86h-1.37v-1.17h1.39v-2.9h1.4v2.9h2.63V86h-2.63v5.33c0 2.46 1.56 2.77 2.36 2.77a2.39 2.39 0 0 0 .47 0v1.27a3.38 3.38 0 0 1-.6.05c-1.21 0-3.65-.4-3.65-3.9zM263.45 84.58a5.49 5.49 0 1 1-5.53 5.42 5.42 5.42 0 0 1 5.53-5.42zm0 9.71a4.13 4.13 0 0 0 4.08-4.29 4.08 4.08 0 1 0-8.15 0 4.13 4.13 0 0 0 4.09 4.29zM281.49 84.58c2.9 0 4.4 2.23 4.4 4.83v.71h-8a4 4 0 0 0 4.06 4.17A4.68 4.68 0 0 0 285 93l.68 1.06a5.94 5.94 0 0 1-3.89 1.5 5.31 5.31 0 0 1-5.48-5.48 5.12 5.12 0 0 1 5.18-5.5zm2.94 4.42c-.08-2.17-1.41-3.23-3-3.23a3.59 3.59 0 0 0-3.6 3.23zM294.25 92.42a5.35 5.35 0 0 0 3.75 1.79 2.68 2.68 0 0 0 2.9-2.61c0-3.62-7.23-2.89-7.23-7.44 0-2 1.77-3.75 4.48-3.75 1.42 0 4 .6 4 2.52v1h-1.38v-.68c0-.88-1.21-1.53-2.56-1.53-1.9 0-3 1.11-3 2.36 0 3.4 7.23 2.56 7.23 7.4a4.1 4.1 0 0 1-4.44 4 6.23 6.23 0 0 1-4.65-2.08zM310.63 88.85h.59v-.12c0-2.19-.8-3-2.71-3-.52 0-2.05.14-2.05.91v.67h-1.35v-1c0-1.46 2.5-1.77 3.42-1.77 3.31 0 4.1 1.77 4.1 4v5a.41.41 0 0 0 .46.46h.91v1.23h-1.44c-.9 0-1.25-.39-1.25-1.25v-.77a3.72 3.72 0 0 1-3.48 2.27c-1.75 0-3.57-1-3.57-3.1-.05-3.38 4.56-3.53 6.37-3.53zm-2.63 5.5c2 0 3.21-2.08 3.21-3.89V90h-.61c-1.65 0-4.94 0-4.94 2.39a2.08 2.08 0 0 0 2.34 1.96zM316.18 86.52a.42.42 0 0 0-.46-.46h-.88v-1.23h1.48c.9 0 1.27.37 1.27 1.23v5.06c0 1.65.27 3.11 2.3 3.11 2.37 0 3.85-2.11 3.85-4.38v-5h1.42v8.79a.41.41 0 0 0 .46.46h.87v1.23h-1.43c-.88 0-1.28-.37-1.28-1.16v-.48a5.57 5.57 0 0 1 .05-.75h-.05a4.46 4.46 0 0 1-4.08 2.64c-2.48 0-3.52-1.33-3.52-4.06zm5.21-5.86H323l-1.81 2.48h-1.23zM332.56 84.58a3.71 3.71 0 0 1 3.42 2V82.39a.42.42 0 0 0-.46-.46h-.88v-1.27h1.48c.9 0 1.27.38 1.27 1.27v11.69a.41.41 0 0 0 .46.46h.88v1.23h-1.46c-.88 0-1.25-.39-1.25-1.16a5.05 5.05 0 0 1 0-.67 3.8 3.8 0 0 1-3.61 2.08c-2.81 0-4.56-2.25-4.56-5.5s1.96-5.48 4.71-5.48zm3.44 5.48c0-2.13-1.09-4.21-3.34-4.21-1.85 0-3.37 1.56-3.37 4.21s1.35 4.23 3.31 4.23c1.77 0 3.4-1.29 3.4-4.23zM345.23 84.58c2.9 0 4.4 2.23 4.4 4.83v.71h-8a4 4 0 0 0 4.07 4.17 4.67 4.67 0 0 0 3.05-1.29l.69 1.06a6 6 0 0 1-3.9 1.5 5.31 5.31 0 0 1-5.48-5.48 5.13 5.13 0 0 1 5.17-5.5zm2.94 4.42c-.08-2.17-1.42-3.23-3-3.23A3.6 3.6 0 0 0 341.6 89zM356.57 94h.27c.37 0 .6-.06.75-.46l4.79-12.9H364l4.79 12.9c.15.4.36.46.75.46h.25v1.29h-.67c-1 0-1.35-.21-1.73-1.21l-1.27-3.46h-5.81L359 94.1c-.38 1-.67 1.21-1.71 1.21h-.69zm9.11-4.65l-1.94-5.23c-.25-.69-.56-1.9-.56-1.9h-.05s-.31 1.21-.56 1.9l-1.92 5.23zM371.83 86.52a.42.42 0 0 0-.46-.46h-.88v-1.23H372c.88 0 1.27.37 1.27 1.17v.47a7.26 7.26 0 0 1 0 .76 4.31 4.31 0 0 1 3.8-2.65 2.9 2.9 0 0 1 3.25 2.62 4.26 4.26 0 0 1 3.85-2.62c2.55 0 3.49 1.48 3.49 4.06v5a.4.4 0 0 0 .45.46h.89v1.23h-1.5c-.9 0-1.27-.37-1.27-1.27V89c0-1.71-.36-3.13-2.27-3.13a3.78 3.78 0 0 0-3.32 3 5.19 5.19 0 0 0-.19 1.52v5H379V89c0-1.59-.23-3.13-2.21-3.13a3.84 3.84 0 0 0-3.38 3.13 4.86 4.86 0 0 0-.17 1.39v5h-1.41zM391.17 82.35a.42.42 0 0 0-.46-.46h-.88v-1.23h1.48c.9 0 1.27.38 1.27 1.27v4.65a3.81 3.81 0 0 1 3.57-2c2.81 0 4.56 2.25 4.56 5.5s-2 5.48-4.73 5.48a3.83 3.83 0 0 1-3.44-2v1.77h-1.37zm4.71 12c1.85 0 3.37-1.56 3.37-4.23s-1.37-4.21-3.31-4.21c-1.75 0-3.4 1.25-3.4 4.23 0 2.07 1.09 4.17 3.34 4.17zM403.51 86.52a.42.42 0 0 0-.46-.46h-.88v-1.23h1.48c.9 0 1.27.37 1.27 1.27v7.52a.41.41 0 0 0 .46.46h.88v1.23h-1.48c-.9 0-1.27-.37-1.27-1.27zm-.05-5.86h1.38v1.79h-1.38zM412.82 84.58c2.9 0 4.4 2.23 4.4 4.83v.71h-8.05a4 4 0 0 0 4.07 4.17 4.68 4.68 0 0 0 3.11-1.29l.68 1.06a5.94 5.94 0 0 1-3.89 1.5 5.31 5.31 0 0 1-5.49-5.48 5.13 5.13 0 0 1 5.17-5.5zm2.94 4.42c-.08-2.17-1.42-3.23-3-3.23A3.59 3.59 0 0 0 409.2 89zM420.05 86.52a.41.41 0 0 0-.45-.46h-.88v-1.23h1.46c.87 0 1.27.37 1.27 1.17v.47a7.26 7.26 0 0 1 0 .76 4.46 4.46 0 0 1 4.17-2.65c2.61 0 3.52 1.48 3.52 4.06v5a.41.41 0 0 0 .46.46h.88v1.23H429c-.9 0-1.28-.37-1.28-1.27V89c0-1.65-.25-3.11-2.27-3.11a4 4 0 0 0-3.81 3 5 5 0 0 0-.17 1.42v5h-1.42zM432.85 86h-1.37v-1.17h1.39v-2.9h1.4v2.9h2.63V86h-2.63v5.33c0 2.46 1.56 2.77 2.35 2.77a2.44 2.44 0 0 0 .48 0v1.27a3.38 3.38 0 0 1-.6.05c-1.21 0-3.65-.4-3.65-3.9zM445 88.85h.59v-.12c0-2.19-.8-3-2.71-3-.52 0-2.05.14-2.05.91v.67h-1.35v-1c0-1.46 2.5-1.77 3.42-1.77 3.31 0 4.1 1.77 4.1 4v5a.41.41 0 0 0 .46.46h.88v1.23h-1.44c-.9 0-1.25-.39-1.25-1.25v-.77a3.72 3.72 0 0 1-3.48 2.27c-1.75 0-3.57-1-3.57-3.1-.02-3.38 4.59-3.53 6.4-3.53zm-2.62 5.5c2 0 3.21-2.08 3.21-3.89V90H445c-1.64 0-4.94 0-4.94 2.39a2.08 2.08 0 0 0 2.32 1.96zM450.57 82.35a.42.42 0 0 0-.46-.46h-.88v-1.23h1.48c.9 0 1.28.38 1.28 1.27v11.69a.4.4 0 0 0 .45.46h.88v1.23h-1.48c-.9 0-1.27-.37-1.27-1.27z"/></svg>