<svg xmlns="http://www.w3.org/2000/svg" viewBox="0 0 89.73 98"><path fill="#fff" d="M1.22 20.93a1.74 1.74 0 00-1 1.27A14.28 14.28 0 000 24.7V98h5.46a17 17 0 002.84-.17c.58-.12.93-.31 1-.58a2.77 2.77 0 00.18-1.1V20.41c-2.32 0-4.14 0-5.46.05a7.8 7.8 0 00-2.8.47zM31.2 20.41H19.71a1.74 1.74 0 00-2 2V98h5.4a16.48 16.48 0 002.78-.17c.58-.12.93-.31 1-.58a3 3 0 00.17-1.1v-8C27.14 69 51.69 69 52.38 48.21c.11-1.26.18-2.83.18-4.83q0-12.18-5.17-17.58T31.2 20.41zm3.95 38.51c-7.34 6.59-8 9.11-8 9.65V28.64h5.8q5.12 0 7.14 3.78a21 21 0 012 9.92c.02 6.42.02 10.33-6.94 16.58zM69.54 87.34c0-11.38 11.82-22.92 20.19-24.09V52.61c-6.94 0-18.06 8.19-20.19 15.69V28.88H88a1.87 1.87 0 001-.24 1.72 1.72 0 00.52-1.1 14.61 14.61 0 00.21-2.54v-4.59H62a1.66 1.66 0 00-1.11.34 4 4 0 00-.64.7 2.13 2.13 0 00-.23.93V98h27.51a1.84 1.84 0 001-.23 1.6 1.6 0 00.52-1 15.14 15.14 0 00.24-2.5v-4.7H69.54v-2.2zM68.7 13.06a6.44 6.44 0 0112.36 0h8.56a14.85 14.85 0 00-29.48 0z"/></svg>