<svg xmlns="http://www.w3.org/2000/svg" viewBox="0 0 58.2 85.04"><path fill="#fff" d="M35 0C25.37 11.38 12 26.91 1.27 39.24c-2.52 3-1.08 5.88 3 5.88h54c-4.91-3.45-8.61-5.95-13.28-9.24C28 38.21 19.82 39.21 5.05 41.09 13.25 34 26.94 22.4 34.81 15.57c0-5.16.19-10.41.19-15.57zM9.36 85c5.18 0 7.91-2.5 7.91-7.24V67.71h-4V78c0 2.55-1.3 3.78-4 3.78-1.71 0-3.54-1-3.54-4V67.71h-4V78a7 7 0 001.5 4.67C5.06 84.74 7.86 85 9.36 85zm24.76-10.71h-8.55V71h9.77v-3.29H21.65v16.81h3.92v-6.93h8.55v-3.3zm13.48 4.06h4.52v1.52c0 .08-1.21 1.86-4.77 1.86-2.11 0-5.64-.74-5.64-5.72 0-4.64 3-5.62 5.56-5.62a4.5 4.5 0 014 2.35h4.06c-.59-2.32-2.8-5.56-8.29-5.56-5.68 0-9.21 3.36-9.21 8.77 0 8.19 6.64 9.08 9.49 9.08 6.38 0 8.15-3.81 8.26-4.06v-5.75h-8zM10.32 52.84a2.62 2.62 0 00-2.86-2.24c-1.3 0-3.2.87-3.2 4.52 0 2.32.92 4.41 3.2 4.41a2.75 2.75 0 002.86-2.43H13a5.37 5.37 0 01-5.61 4.77c-3.39 0-5.89-2.32-5.89-6.78s2.61-6.83 5.94-6.83c3.87 0 5.44 2.67 5.58 4.58zm12.54 5.88a4.13 4.13 0 01-4.21 3.06c-2.7 0-4.77-1.29-4.77-5.24 0-1.15.4-4.84 4.59-4.84 1.89 0 4.5.9 4.5 5.28v.45H16.4c.07.72.22 2.34 2.25 2.34a1.62 1.62 0 001.62-1.05zm-2.48-2.93a2 2 0 00-1.95-2c-1.18 0-1.81.76-2 2zM33.23 52v9c0 1.65-.13 4.41-4.85 4.41-2 0-4.06-.85-4.17-2.88h2.73c.11.48.31 1 1.77 1s2-.65 2-2.2v-1.15a2.59 2.59 0 01-2.56 1.44c-2.3 0-4.12-1.6-4.12-4.95s1.87-4.93 4-4.93a2.9 2.9 0 012.81 1.68V52zm-4.65 7.51c1.71 0 2.14-1.46 2.14-2.77 0-1.55-.75-2.81-2.16-2.81-.93 0-2 .68-2 2.92.02 1.15.53 2.61 2.02 2.61zM34.5 52h2.41v1.66c.52-1 1.09-1.91 2.62-1.91a3.89 3.89 0 01.49 0v2.55a5.7 5.7 0 00-.72 0 2 2 0 00-2.3 2.24v5h-2.5zM49 59.66c0 1.13.25 1.38.56 1.49v.38h-2.72a4.19 4.19 0 01-.23-1.13 3.92 3.92 0 01-3.1 1.38A2.68 2.68 0 0140.6 59a2.93 2.93 0 012.79-3.06l2.26-.34c.4-.05.89-.22.89-.76 0-1.06-1-1.11-1.66-1.11a1.35 1.35 0 00-1.55 1.33H40.9c.29-2.93 2.32-3.35 4.29-3.35 1.35 0 3.81.42 3.81 2.77zm-2.46-2.79a3.69 3.69 0 01-1.71.52c-.94.16-1.71.4-1.71 1.44A1.1 1.1 0 0044.29 60a2.09 2.09 0 002.25-1.89zm7.31 4.66h-2.52v-7.78h-1.39V52h1.39v-.77c0-2 1.08-2.74 2.8-2.74h1.3v2h-.7c-.87 0-.88.27-.88 1.07V52h1.63v1.8h-1.63z"/></svg>