<svg id="Camada_1" data-name="Camada 1" xmlns="http://www.w3.org/2000/svg" viewBox="0 0 453.88 100.25"><defs><style>.cls-1{fill:#4c1a06;}.cls-2{fill:#33aba7;}.cls-3{fill:#45a770;}.cls-4{fill:#50a439;}.cls-5{fill:#26add5;}</style></defs><title>logo-cessa</title><path class="cls-1" d="M50.37,15.82V17.7a1.43,1.43,0,0,0,.33.95,2.58,2.58,0,0,0,.86.64,4.28,4.28,0,0,0,1.25.36,10.59,10.59,0,0,0,1.53.11A10.47,10.47,0,0,0,56,19.63a5.7,5.7,0,0,0,1.5-.43,2.85,2.85,0,0,0,1.09-.88A2.39,2.39,0,0,0,59,16.85a1.94,1.94,0,0,0-.29-1.09,2.29,2.29,0,0,0-.85-.74,6.08,6.08,0,0,0-1.3-.51c-.5-.15-1-.3-1.62-.44l-2.41-.56c-.92-.21-1.8-.44-2.66-.69a7.39,7.39,0,0,1-2.26-1.08A5.3,5.3,0,0,1,46,9.9a6.45,6.45,0,0,1-.61-3,7.87,7.87,0,0,1,.14-1.38A7,7,0,0,1,46.06,4,6.83,6.83,0,0,1,47,2.52a5.51,5.51,0,0,1,1.58-1.28A9.43,9.43,0,0,1,50.9.34,13.35,13.35,0,0,1,54.06,0a11,11,0,0,1,4,.66,8,8,0,0,1,2.7,1.64,6.05,6.05,0,0,1,1.5,2.14,5.69,5.69,0,0,1,.47,2.19V8.5H58.22V6.66A2.17,2.17,0,0,0,58,5.74a2.52,2.52,0,0,0-.75-.91,4.3,4.3,0,0,0-1.39-.69,7.63,7.63,0,0,0-2.14-.26A6.48,6.48,0,0,0,52.36,4a4.25,4.25,0,0,0-1.27.45,2.82,2.82,0,0,0-.92.83,2.16,2.16,0,0,0-.36,1.27A2.26,2.26,0,0,0,50,7.64a2,2,0,0,0,.6.68,2.79,2.79,0,0,0,.78.37l.77.22,5.47,1.34a19.14,19.14,0,0,1,2.22.69A6.45,6.45,0,0,1,61.75,12a5,5,0,0,1,1.3,1.72,6,6,0,0,1,.48,2.53A7.39,7.39,0,0,1,63,19.18a6.33,6.33,0,0,1-1.35,2,6.87,6.87,0,0,1-1.82,1.29,10.28,10.28,0,0,1-2,.74,12.72,12.72,0,0,1-1.83.33c-.56.05-1,.08-1.34.08a16.41,16.41,0,0,1-4.07-.46A10.43,10.43,0,0,1,47.72,22,5.16,5.16,0,0,1,46,20.35a3.59,3.59,0,0,1-.58-1.94V15.82Z"/><path class="cls-1" d="M82,18.48a.83.83,0,0,0,.23.54.69.69,0,0,0,.52.27h1.13V23H80.17a1.84,1.84,0,0,1-.71-.16,2.65,2.65,0,0,1-.72-.43,2.26,2.26,0,0,1-.54-.68,1.66,1.66,0,0,1-.22-.85v-.44a5.38,5.38,0,0,1-2.16,2.2,6.13,6.13,0,0,1-3.06.8A9.06,9.06,0,0,1,69.63,23a6.67,6.67,0,0,1-2.52-1.59,7.3,7.3,0,0,1-1.68-2.74,11.19,11.19,0,0,1-.61-3.91,9.83,9.83,0,0,1,.7-3.89A7.52,7.52,0,0,1,70.1,6.5,9.84,9.84,0,0,1,73.32,6a5.58,5.58,0,0,1,1.31.16A6.6,6.6,0,0,1,76,6.57a6.8,6.8,0,0,1,1.17.67,4.2,4.2,0,0,1,.89.83V6.57h4Zm-4.69-3.76a9.21,9.21,0,0,0-.16-1.67,5.07,5.07,0,0,0-.57-1.64,3.55,3.55,0,0,0-1.22-1.25,3.84,3.84,0,0,0-2.05-.5,3.78,3.78,0,0,0-2.06.5,3.44,3.44,0,0,0-1.21,1.25,5.34,5.34,0,0,0-.58,1.64,10.14,10.14,0,0,0-.15,1.67,10.32,10.32,0,0,0,.15,1.71,5.34,5.34,0,0,0,.58,1.64,3.42,3.42,0,0,0,1.21,1.24,3.88,3.88,0,0,0,2.06.48,3.94,3.94,0,0,0,2.05-.48,3.53,3.53,0,0,0,1.22-1.24,5.07,5.07,0,0,0,.57-1.64A9.39,9.39,0,0,0,77.32,14.72Z"/><path class="cls-1" d="M87.23,11.1a1,1,0,0,0-.27-.63.77.77,0,0,0-.57-.31h-1V6.41h4.1a1.45,1.45,0,0,1,.72.2,2.56,2.56,0,0,1,.62.52,2.87,2.87,0,0,1,.46.69,1.86,1.86,0,0,1,.17.75v.56A7.1,7.1,0,0,1,92,8.21a4.84,4.84,0,0,1,1-1.05A5.42,5.42,0,0,1,96.48,6a7.09,7.09,0,0,1,2.29.36,5.21,5.21,0,0,1,1.83,1.06,5.08,5.08,0,0,1,1.21,1.74,5.82,5.82,0,0,1,.46,2.41v6.81a1,1,0,0,0,.25.63.69.69,0,0,0,.56.31h1.06V23h-3.53a1.88,1.88,0,0,1-1-.3,3.06,3.06,0,0,1-.86-.75,3.83,3.83,0,0,1-.61-1,2.8,2.8,0,0,1-.24-1.1V12.94a9.68,9.68,0,0,0,0-1,2.66,2.66,0,0,0-.32-1.06,2.42,2.42,0,0,0-.86-.85,3.29,3.29,0,0,0-1.61-.34,3.36,3.36,0,0,0-2.46,1,3.89,3.89,0,0,0-1,2.88v6.4A2.64,2.64,0,0,1,91.37,21a3.56,3.56,0,0,1-.62,1,3.32,3.32,0,0,1-.89.75,2,2,0,0,1-1,.3H85.35V19.29h1A.76.76,0,0,0,87,19a.87.87,0,0,0,.27-.6Z"/><path class="cls-1" d="M64,47h2.72v3.75H64.16a3.79,3.79,0,0,1-1.38-.25,5.75,5.75,0,0,1-1.23-.64A6.92,6.92,0,0,1,60.49,49a5.65,5.65,0,0,1-.8-1L55.41,42H53v5.31a2.79,2.79,0,0,1-.3,1.24,4.27,4.27,0,0,1-1.87,1.92,2.62,2.62,0,0,1-1.21.31h-4V47h1.69a1.16,1.16,0,0,0,.75-.31A.89.89,0,0,0,48.4,46V33.78A1.62,1.62,0,0,0,48,32.72a1.29,1.29,0,0,0-1-.54H45.59V28.31h12a7.86,7.86,0,0,1,3.63.72,6.28,6.28,0,0,1,2.14,1.73,5.7,5.7,0,0,1,1,2.1,7.69,7.69,0,0,1,.27,1.79,12.35,12.35,0,0,1-.16,2,6.24,6.24,0,0,1-.64,2,5.25,5.25,0,0,1-1.39,1.68A6.13,6.13,0,0,1,60,41.38Zm-7.72-8.81a4.47,4.47,0,0,0,2.74-.69,2.84,2.84,0,0,0,.89-2.38,3.73,3.73,0,0,0-.13-.95,2.31,2.31,0,0,0-.48-1,2.7,2.7,0,0,0-1-.74,4,4,0,0,0-1.67-.3H53v6Z"/><path class="cls-1" d="M84.85,46.1a.86.86,0,0,0,.29.62.83.83,0,0,0,.62.28h1v3.75H83a2.5,2.5,0,0,1-.69-.12,2.59,2.59,0,0,1-.78-.39,2.5,2.5,0,0,1-.64-.69,1.84,1.84,0,0,1-.26-1v-.65a4.92,4.92,0,0,1-2,2.42,5.64,5.64,0,0,1-3.14.89,7,7,0,0,1-2.27-.36,4.63,4.63,0,0,1-1.8-1.11,5.1,5.1,0,0,1-1.17-1.9,8.09,8.09,0,0,1-.42-2.76V38.72a.81.81,0,0,0-.25-.56.72.72,0,0,0-.53-.29H68V34.12h3.82a2.63,2.63,0,0,1,1.08.33,2.72,2.72,0,0,1,.76.67,2.85,2.85,0,0,1,.46.88,3.34,3.34,0,0,1,.14.94v7.5A4,4,0,0,0,74.51,46a2.15,2.15,0,0,0,.65.92,2.26,2.26,0,0,0,.93.46,4.42,4.42,0,0,0,1,.12,3.88,3.88,0,0,0,1.13-.17,2.82,2.82,0,0,0,1.09-.61,3.48,3.48,0,0,0,.83-1.15,4.47,4.47,0,0,0,.33-1.85v-5a1,1,0,0,0-.25-.58.72.72,0,0,0-.53-.3H78.6V34.12h3.72a2.41,2.41,0,0,1,1.77.78,2.88,2.88,0,0,1,.76,2.1Z"/><path class="cls-1" d="M89.83,38.72a.87.87,0,0,0-.25-.58.77.77,0,0,0-.57-.27H88V34.12h3.38a2.7,2.7,0,0,1,.92.19,3.19,3.19,0,0,1,.87.52,2.84,2.84,0,0,1,.64.75,1.61,1.61,0,0,1,.25.86V37h.07c.23-.42.47-.82.72-1.22a4.82,4.82,0,0,1,.9-1.06A4,4,0,0,1,96.94,34a4.51,4.51,0,0,1,1.7-.29l.42,0,.43,0v4.44a3,3,0,0,0-.61-.07h-.65a5,5,0,0,0-2.06.36,3.19,3.19,0,0,0-1.22.94,3.25,3.25,0,0,0-.59,1.28,6.12,6.12,0,0,0-.16,1.39v8.66H89.83Z"/><path class="cls-1" d="M117.65,46.19a.86.86,0,0,0,.23.55.71.71,0,0,0,.52.26h1.12v3.75H115.8a2,2,0,0,1-.7-.15,2.68,2.68,0,0,1-.72-.44,2.56,2.56,0,0,1-.55-.67,1.79,1.79,0,0,1-.21-.86v-.44a5.47,5.47,0,0,1-2.16,2.21,6.12,6.12,0,0,1-3.06.79,9.3,9.3,0,0,1-3.13-.51,6.82,6.82,0,0,1-2.52-1.6,7.49,7.49,0,0,1-1.69-2.73,11.51,11.51,0,0,1-.61-3.91,9.79,9.79,0,0,1,.71-3.89A7.8,7.8,0,0,1,103,35.83a7.6,7.6,0,0,1,2.71-1.61,9.59,9.59,0,0,1,3.22-.54,6.24,6.24,0,0,1,1.31.16,7,7,0,0,1,1.31.44,7.19,7.19,0,0,1,1.18.67,4.47,4.47,0,0,1,.89.83v-1.5h4ZM113,42.44a9.13,9.13,0,0,0-.16-1.67,4.92,4.92,0,0,0-.58-1.65A3.52,3.52,0,0,0,111,37.87a4.49,4.49,0,0,0-4.12,0,3.58,3.58,0,0,0-1.2,1.25,5.39,5.39,0,0,0-.58,1.65,10,10,0,0,0-.15,1.67,10.21,10.21,0,0,0,.15,1.7,5.24,5.24,0,0,0,.58,1.64,3.39,3.39,0,0,0,1.2,1.24A4.66,4.66,0,0,0,111,47a3.34,3.34,0,0,0,1.21-1.24,4.79,4.79,0,0,0,.58-1.64A9.28,9.28,0,0,0,113,42.44Z"/><path class="cls-1" d="M127.22,45.44a.88.88,0,0,0,.29.64.89.89,0,0,0,.64.3h2.19v4.37h-4.13a2.48,2.48,0,0,1-1.18-.31A3.94,3.94,0,0,1,124,49.6a4.46,4.46,0,0,1-.8-1.25,3.77,3.77,0,0,1-.31-1.53V32.94a.93.93,0,0,0-.25-.6.74.74,0,0,0-.56-.28h-1.38V28.31h3.75a2.49,2.49,0,0,1,1.19.28,3,3,0,0,1,.89.72,3.31,3.31,0,0,1,.55.94,2.75,2.75,0,0,1,.19.93Z"/><path class="cls-2" d="M27.13,60.67H25.26a2.12,2.12,0,0,0-1.72.89v4.67a6.58,6.58,0,0,0,6.57,6.57H41V64.57a9.22,9.22,0,0,0-9.19-9.19H27.13Z"/><path class="cls-2" d="M30.11,78.92A12.7,12.7,0,0,1,17.42,66.23V61.56a2.1,2.1,0,0,0-1.72-.89H13.83V55.38H9.18A9.21,9.21,0,0,0,0,64.57V87.16a9.21,9.21,0,0,0,9.18,9.18H31.77A9.21,9.21,0,0,0,41,87.16V78.92Z"/><path class="cls-3" d="M86.54,72.8V64.57a9.22,9.22,0,0,0-9.19-9.19H54.76a9.21,9.21,0,0,0-9.18,9.19V72.8Z"/><path class="cls-3" d="M45.58,78.92v8.24a9.21,9.21,0,0,0,9.18,9.18H77.35a9.21,9.21,0,0,0,9.19-9.18V78.92Z"/><path class="cls-4" d="M132.11,72.8V64.57a9.21,9.21,0,0,0-9.18-9.19H100.34a9.22,9.22,0,0,0-9.19,9.19V72.8Z"/><path class="cls-4" d="M91.15,78.92v8.24a9.21,9.21,0,0,0,9.19,9.18h22.59a9.21,9.21,0,0,0,9.18-9.18V78.92Z"/><path class="cls-5" d="M20.48,46.55a13,13,0,0,1-13-13c0-9.7,13-21.53,13-21.53s13,11.83,13,21.53A13,13,0,0,1,20.48,46.55Z"/><path class="cls-1" d="M157.9,55.4c2.08,0,5.48.89,5.48,3.1v1.21H162V58.9c0-1.38-2.38-2.13-4.07-2.13a5.77,5.77,0,0,0-5.75,6.09c0,3.5,2.48,6.31,5.81,6.31a6.7,6.7,0,0,0,4.8-2.06l.83,1.06A7.77,7.77,0,0,1,158,70.55c-4.29,0-7.31-3.42-7.31-7.69A7.2,7.2,0,0,1,157.9,55.4Z"/><path class="cls-1" d="M166.11,61.5a.41.41,0,0,0-.46-.45h-.87V59.82h1.48c.89,0,1.27.37,1.27,1.23v5.06c0,1.65.27,3.11,2.29,3.11,2.38,0,3.86-2.11,3.86-4.38v-5h1.41v8.79a.41.41,0,0,0,.46.46h.88V70.3H175c-.88,0-1.27-.37-1.27-1.17v-.48a7.18,7.18,0,0,1,0-.75h0a4.48,4.48,0,0,1-4.09,2.65c-2.48,0-3.52-1.33-3.52-4.06Z"/><path class="cls-1" d="M178.72,61.5a.41.41,0,0,0-.46-.45h-.87V59.82h1.46c.87,0,1.27.35,1.27,1.18v.71a6.22,6.22,0,0,1-.05.79h.05a3.57,3.57,0,0,1,3.31-2.79,2.93,2.93,0,0,1,.56.06v1.4a3.73,3.73,0,0,0-.52,0,3.36,3.36,0,0,0-3,2.71,6.85,6.85,0,0,0-.29,2V70.3h-1.42Z"/><path class="cls-1" d="M185.87,67.74a4.28,4.28,0,0,0,3.23,1.58c1.17,0,2.21-.56,2.21-1.67,0-2.29-5.88-1.87-5.88-5.25,0-1.9,1.63-2.83,3.73-2.83,1.06,0,3.19.41,3.19,1.89v.9H191v-.5c0-.77-1.13-1.06-1.82-1.06-1.46,0-2.33.5-2.33,1.52,0,2.35,5.88,1.81,5.88,5.29,0,1.75-1.59,2.94-3.67,2.94a5,5,0,0,1-4-1.83Z"/><path class="cls-1" d="M200,59.57A5.49,5.49,0,1,1,194.46,65,5.42,5.42,0,0,1,200,59.57Zm0,9.71A4.13,4.13,0,0,0,204.06,65a4.08,4.08,0,1,0-8.15,0A4.14,4.14,0,0,0,200,69.28Z"/><path class="cls-1" d="M217.61,59.57a3.71,3.71,0,0,1,3.42,2h0s0-.36,0-.8V57.34a.42.42,0,0,0-.46-.46h-.87V55.65h1.48c.89,0,1.27.37,1.27,1.27V68.61a.41.41,0,0,0,.46.46h.87V70.3h-1.46c-.87,0-1.25-.4-1.25-1.17a5,5,0,0,1,0-.66h0a3.78,3.78,0,0,1-3.6,2.08c-2.82,0-4.57-2.25-4.57-5.5S214.86,59.57,217.61,59.57Zm3.46,5.48c0-2.13-1.08-4.21-3.33-4.21-1.86,0-3.38,1.56-3.38,4.21s1.36,4.23,3.31,4.23C219.43,69.28,221.07,68,221.07,65.05Z"/><path class="cls-1" d="M230.28,59.57c2.9,0,4.4,2.23,4.4,4.83,0,.25,0,.71,0,.71h-8a4,4,0,0,0,4.07,4.17A4.68,4.68,0,0,0,233.81,68l.68,1.06a5.94,5.94,0,0,1-3.89,1.5,5.31,5.31,0,0,1-5.49-5.48A5.13,5.13,0,0,1,230.28,59.57ZM233.22,64c-.08-2.17-1.41-3.24-3-3.24a3.6,3.6,0,0,0-3.6,3.24Z"/><path class="cls-1" d="M243.6,56.94h-1.35V55.65h8.38c.89,0,1.27.37,1.27,1.27v1.46h-1.38v-1a.41.41,0,0,0-.46-.46h-5v5.34h5.5v1.29h-5.5v5a.41.41,0,0,0,.46.46h5.15a.41.41,0,0,0,.46-.46v-1h1.35V69c0,.9-.37,1.27-1.27,1.27h-6.34c-.89,0-1.27-.37-1.27-1.27Z"/><path class="cls-1" d="M254.42,67.74a4.28,4.28,0,0,0,3.23,1.58c1.17,0,2.21-.56,2.21-1.67,0-2.29-5.88-1.87-5.88-5.25,0-1.9,1.63-2.83,3.73-2.83,1.07,0,3.19.41,3.19,1.89v.9h-1.33v-.5c0-.77-1.13-1.06-1.82-1.06-1.46,0-2.33.5-2.33,1.52,0,2.35,5.88,1.81,5.88,5.29,0,1.75-1.59,2.94-3.67,2.94a5,5,0,0,1-4-1.83Z"/><path class="cls-1" d="M264,61.5a.41.41,0,0,0-.46-.45h-.88V59.82h1.44c.9,0,1.25.37,1.25,1.1,0,.42,0,.71,0,.71h0A3.77,3.77,0,0,1,269,59.57c2.81,0,4.56,2.25,4.56,5.5s-2,5.48-4.69,5.48a3.72,3.72,0,0,1-3.44-2h0s0,.38,0,.92v5H264Zm4.71,7.8c1.85,0,3.37-1.56,3.37-4.23s-1.35-4.21-3.31-4.21c-1.75,0-3.4,1.25-3.4,4.23C265.36,67.2,266.51,69.3,268.7,69.3Z"/><path class="cls-1" d="M280.41,59.57c2.9,0,4.4,2.23,4.4,4.83,0,.25,0,.71,0,.71h-8a4,4,0,0,0,4.07,4.17A4.67,4.67,0,0,0,283.93,68l.69,1.06a6,6,0,0,1-3.9,1.5,5.31,5.31,0,0,1-5.48-5.48A5.13,5.13,0,0,1,280.41,59.57ZM283.35,64c-.08-2.17-1.42-3.24-3-3.24A3.61,3.61,0,0,0,276.78,64Z"/><path class="cls-1" d="M292.19,59.57c1.18,0,3.73.5,3.73,2.23v.93h-1.34v-.6c0-.88-1.52-1.29-2.39-1.29a4.21,4.21,0,0,0,0,8.42,4.63,4.63,0,0,0,3.37-1.48l.67,1.06a5.54,5.54,0,0,1-4.1,1.71,5.31,5.31,0,0,1-5.51-5.48A5.36,5.36,0,0,1,292.19,59.57Z"/><path class="cls-1" d="M298.75,61.5a.41.41,0,0,0-.46-.45h-.87V59.82h1.48c.89,0,1.27.37,1.27,1.27v7.52a.41.41,0,0,0,.46.46h.87V70.3H300c-.89,0-1.27-.37-1.27-1.27Zm0-5.85h1.38v1.79h-1.38Z"/><path class="cls-1" d="M309.32,63.84h.58v-.13c0-2.18-.79-3-2.71-3-.52,0-2,.15-2,.92v.67H303.8v-1c0-1.46,2.5-1.77,3.41-1.77,3.32,0,4.11,1.77,4.11,4v5a.41.41,0,0,0,.46.46h.87V70.3h-1.43c-.9,0-1.26-.4-1.26-1.25,0-.46,0-.77,0-.77h-.05a3.7,3.7,0,0,1-3.48,2.27c-1.75,0-3.56-1-3.56-3.1C302.9,64,307.51,63.84,309.32,63.84Zm-2.63,5.5c2,0,3.21-2.08,3.21-3.9V65h-.6c-1.65,0-4.94.05-4.94,2.4A2.08,2.08,0,0,0,306.69,69.34Z"/><path class="cls-1" d="M314.88,57.34a.41.41,0,0,0-.46-.46h-.87V55.65H315c.9,0,1.27.37,1.27,1.27V68.61a.41.41,0,0,0,.46.46h.87V70.3h-1.47c-.9,0-1.28-.37-1.28-1.27Z"/><path class="cls-1" d="M320.12,61.5a.41.41,0,0,0-.46-.45h-.88V59.82h1.48c.9,0,1.27.37,1.27,1.27v7.52a.41.41,0,0,0,.46.46h.88V70.3h-1.48c-.9,0-1.27-.37-1.27-1.27Zm-.05-5.85h1.38v1.79h-1.38Z"/><path class="cls-1" d="M324.24,69.38l5.9-7.35c.4-.5.83-1,.83-1v0a10.26,10.26,0,0,1-1,0H326.1a.4.4,0,0,0-.46.46v.81H324.3V61.09c0-.9.38-1.27,1.28-1.27h7.27v.93L327,68.09c-.41.5-.87,1-.87,1v0s.37,0,1.06,0h4.33a.41.41,0,0,0,.46-.46v-.81h1.34V69c0,.9-.38,1.27-1.27,1.27h-7.78Z"/><path class="cls-1" d="M341.08,63.84h.59v-.13c0-2.18-.8-3-2.71-3-.52,0-2,.15-2,.92v.67h-1.35v-1c0-1.46,2.5-1.77,3.42-1.77,3.31,0,4.1,1.77,4.1,4v5a.41.41,0,0,0,.46.46h.88V70.3H343c-.9,0-1.25-.4-1.25-1.25,0-.46,0-.77,0-.77h0a3.72,3.72,0,0,1-3.48,2.27c-1.75,0-3.57-1-3.57-3.1C334.66,64,339.27,63.84,341.08,63.84Zm-2.62,5.5c2,0,3.21-2.08,3.21-3.9V65h-.61c-1.65,0-4.94.05-4.94,2.4A2.08,2.08,0,0,0,338.46,69.34Z"/><path class="cls-1" d="M351.21,59.57c1.19,0,3.73.5,3.73,2.23v.93h-1.33v-.6c0-.88-1.52-1.29-2.4-1.29a4.21,4.21,0,0,0,0,8.42,4.64,4.64,0,0,0,3.38-1.48l.67,1.06a5.67,5.67,0,0,1-4.15,1.71l-.17.9a1.5,1.5,0,0,1,1.46,1.48c0,1.21-1,1.64-2,1.64a5.19,5.19,0,0,1-1-.1v-1a3.29,3.29,0,0,0,.87.12c.55,0,1.07-.14,1.07-.7s-.46-.71-1.19-.71l-.31,0,.39-1.73a5.24,5.24,0,0,1-4.54-5.4A5.36,5.36,0,0,1,351.21,59.57Z"/><path class="cls-1" d="M363.11,63.84h.59v-.13c0-2.18-.8-3-2.71-3-.52,0-2.05.15-2.05.92v.67h-1.35v-1c0-1.46,2.5-1.77,3.42-1.77,3.31,0,4.1,1.77,4.1,4v5a.41.41,0,0,0,.46.46h.88V70.3H365c-.9,0-1.25-.4-1.25-1.25,0-.46,0-.77,0-.77h0a3.72,3.72,0,0,1-3.48,2.27c-1.75,0-3.57-1-3.57-3.1C356.69,64,361.3,63.84,363.11,63.84Zm-3.19-8.21c1.4,0,1.69,1.5,2.63,1.5.69,0,.83-.9.83-1.44h1.11c0,1.6-.67,2.44-1.94,2.44-1.42,0-1.69-1.48-2.65-1.48-.69,0-.83.87-.83,1.42H358C358,56.46,358.63,55.63,359.92,55.63Zm.57,13.71c2,0,3.21-2.08,3.21-3.9V65h-.61c-1.64,0-4.94.05-4.94,2.4A2.08,2.08,0,0,0,360.49,69.34Z"/><path class="cls-1" d="M373.24,59.57A5.49,5.49,0,1,1,367.72,65,5.43,5.43,0,0,1,373.24,59.57Zm0,9.71A4.13,4.13,0,0,0,377.33,65a4.08,4.08,0,1,0-8.15,0A4.13,4.13,0,0,0,373.26,69.28Z"/><path class="cls-1" d="M151.54,92.42a5.36,5.36,0,0,0,3.8,1.79,2.68,2.68,0,0,0,2.89-2.61c0-3.62-7.23-2.89-7.23-7.44,0-2,1.77-3.75,4.48-3.75,1.42,0,4,.6,4,2.52v1h-1.37v-.68c0-.88-1.21-1.53-2.57-1.53-1.89,0-3,1.11-3,2.36,0,3.4,7.23,2.56,7.23,7.4a4.09,4.09,0,0,1-4.44,4,6.19,6.19,0,0,1-4.64-2.08Z"/><path class="cls-1" d="M167.92,88.85h.59v-.12c0-2.19-.79-3-2.71-3-.52,0-2,.14-2,.91v.67H162.4v-1c0-1.46,2.5-1.77,3.42-1.77,3.31,0,4.11,1.77,4.11,4v5a.4.4,0,0,0,.45.46h.88v1.23h-1.44c-.9,0-1.25-.39-1.25-1.25,0-.46,0-.77,0-.77h0a3.7,3.7,0,0,1-3.48,2.27c-1.75,0-3.57-1-3.57-3.1C161.5,89,166.11,88.85,167.92,88.85Zm-2.62,5.5c2,0,3.21-2.08,3.21-3.89V90h-.61c-1.64,0-4.94,0-4.94,2.39A2.08,2.08,0,0,0,165.3,94.35Z"/><path class="cls-1" d="M173.51,86.52a.42.42,0,0,0-.46-.46h-.87V84.83h1.45c.88,0,1.28.37,1.28,1.17v.47a5.83,5.83,0,0,1,0,.76h0a4.44,4.44,0,0,1,4.16-2.65c2.61,0,3.53,1.48,3.53,4.06v5a.4.4,0,0,0,.46.46h.87v1.23h-1.48c-.89,0-1.27-.37-1.27-1.27V89c0-1.65-.25-3.11-2.27-3.11a4,4,0,0,0-3.82,3,5.42,5.42,0,0,0-.16,1.42v5h-1.42Z"/><path class="cls-1" d="M190.37,84.58c2.9,0,4.4,2.23,4.4,4.83,0,.25,0,.71,0,.71h-8a4,4,0,0,0,4.07,4.17A4.67,4.67,0,0,0,193.89,93l.69,1.06a6,6,0,0,1-3.9,1.5,5.31,5.31,0,0,1-5.48-5.48A5.13,5.13,0,0,1,190.37,84.58ZM193.31,89c-.08-2.17-1.42-3.23-3-3.23A3.6,3.6,0,0,0,186.74,89Z"/><path class="cls-1" d="M203,88.85h.59v-.12c0-2.19-.8-3-2.71-3-.52,0-2,.14-2,.91v.67h-1.35v-1c0-1.46,2.5-1.77,3.42-1.77,3.31,0,4.1,1.77,4.1,4v5a.41.41,0,0,0,.46.46h.88v1.23h-1.44c-.9,0-1.25-.39-1.25-1.25,0-.46,0-.77,0-.77h0a3.72,3.72,0,0,1-3.48,2.27c-1.75,0-3.57-1-3.57-3.1C196.62,89,201.23,88.85,203,88.85Zm-2.62,5.5c2,0,3.21-2.08,3.21-3.89V90H203c-1.64,0-4.94,0-4.94,2.39A2.08,2.08,0,0,0,200.42,94.35Z"/><path class="cls-1" d="M208.63,86.52a.42.42,0,0,0-.46-.46h-.88V84.83h1.46c.88,0,1.27.37,1.27,1.17v.47a7.26,7.26,0,0,1,0,.76h0a4.32,4.32,0,0,1,3.8-2.65,2.89,2.89,0,0,1,3.25,2.62h0A4.27,4.27,0,0,1,221,84.58c2.54,0,3.48,1.48,3.48,4.06v5a.41.41,0,0,0,.46.46h.87v1.23H224.3c-.89,0-1.27-.37-1.27-1.27V89c0-1.71-.35-3.13-2.27-3.13a3.77,3.77,0,0,0-3.31,3,4.87,4.87,0,0,0-.19,1.52v5h-1.42V89c0-1.59-.23-3.13-2.21-3.13A3.84,3.84,0,0,0,210.21,89a5.24,5.24,0,0,0-.16,1.39v5h-1.42Z"/><path class="cls-1" d="M232.22,84.58c2.9,0,4.4,2.23,4.4,4.83,0,.25,0,.71,0,.71h-8.05a4,4,0,0,0,4.07,4.17A4.68,4.68,0,0,0,235.75,93l.68,1.06a5.94,5.94,0,0,1-3.89,1.5,5.31,5.31,0,0,1-5.49-5.48A5.13,5.13,0,0,1,232.22,84.58ZM235.16,89c-.08-2.17-1.42-3.23-3-3.23A3.59,3.59,0,0,0,228.6,89Z"/><path class="cls-1" d="M239.45,86.52a.41.41,0,0,0-.45-.46h-.88V84.83h1.46c.87,0,1.27.37,1.27,1.17v.47a7.26,7.26,0,0,1,0,.76h0A4.46,4.46,0,0,1,245,84.58c2.61,0,3.52,1.48,3.52,4.06v5a.41.41,0,0,0,.46.46h.88v1.23H248.4c-.9,0-1.28-.37-1.28-1.27V89c0-1.65-.25-3.11-2.27-3.11a4,4,0,0,0-3.81,3,5,5,0,0,0-.17,1.42v5h-1.42Z"/><path class="cls-1" d="M252.25,86h-1.37V84.83h1.39v-2.9h1.4v2.9h2.63V86h-2.63v5.33c0,2.46,1.56,2.77,2.35,2.77a2.44,2.44,0,0,0,.48,0v1.27a3.38,3.38,0,0,1-.6.05c-1.21,0-3.65-.4-3.65-3.9Z"/><path class="cls-1" d="M263.45,84.58A5.49,5.49,0,1,1,257.92,90,5.42,5.42,0,0,1,263.45,84.58Zm0,9.71A4.13,4.13,0,0,0,267.53,90a4.08,4.08,0,1,0-8.15,0A4.13,4.13,0,0,0,263.47,94.29Z"/><path class="cls-1" d="M281.49,84.58c2.9,0,4.4,2.23,4.4,4.83,0,.25,0,.71,0,.71H277.8a4,4,0,0,0,4.07,4.17A4.68,4.68,0,0,0,285,93l.68,1.06a5.94,5.94,0,0,1-3.89,1.5,5.31,5.31,0,0,1-5.48-5.48A5.12,5.12,0,0,1,281.49,84.58ZM284.43,89c-.08-2.17-1.41-3.23-3-3.23a3.59,3.59,0,0,0-3.6,3.23Z"/><path class="cls-1" d="M294.25,92.42A5.35,5.35,0,0,0,298,94.21a2.68,2.68,0,0,0,2.9-2.61c0-3.62-7.23-2.89-7.23-7.44,0-2,1.77-3.75,4.48-3.75,1.42,0,4,.6,4,2.52v1h-1.38v-.68c0-.88-1.21-1.53-2.56-1.53-1.9,0-3,1.11-3,2.36,0,3.4,7.23,2.56,7.23,7.4a4.1,4.1,0,0,1-4.44,4,6.23,6.23,0,0,1-4.65-2.08Z"/><path class="cls-1" d="M310.63,88.85h.58v-.12c0-2.19-.79-3-2.7-3-.53,0-2.05.14-2.05.91v.67h-1.35v-1c0-1.46,2.5-1.77,3.42-1.77,3.31,0,4.1,1.77,4.1,4v5a.41.41,0,0,0,.46.46H314v1.23h-1.44c-.9,0-1.25-.39-1.25-1.25,0-.46,0-.77,0-.77h0a3.72,3.72,0,0,1-3.48,2.27c-1.75,0-3.57-1-3.57-3.1C304.21,89,308.82,88.85,310.63,88.85ZM308,94.35c2,0,3.21-2.08,3.21-3.89V90h-.6c-1.65,0-4.94,0-4.94,2.39A2.08,2.08,0,0,0,308,94.35Z"/><path class="cls-1" d="M316.17,86.52a.41.41,0,0,0-.45-.46h-.88V84.83h1.48c.9,0,1.27.37,1.27,1.23v5.06c0,1.65.27,3.11,2.29,3.11,2.38,0,3.86-2.11,3.86-4.38v-5h1.42v8.79a.41.41,0,0,0,.46.46h.87v1.23h-1.44c-.87,0-1.27-.37-1.27-1.16v-.48a6.94,6.94,0,0,1,0-.75h0a4.46,4.46,0,0,1-4.08,2.64c-2.48,0-3.53-1.33-3.53-4.06Zm5.22-5.86H323l-1.81,2.48h-1.23Z"/><path class="cls-1" d="M332.56,84.58a3.71,3.71,0,0,1,3.42,2h0s0-.36,0-.79v-3.4a.42.42,0,0,0-.46-.46h-.88V80.66h1.48c.9,0,1.27.38,1.27,1.27V93.62a.41.41,0,0,0,.46.46h.88v1.23h-1.46c-.88,0-1.25-.39-1.25-1.16a5.05,5.05,0,0,1,0-.67h0a3.8,3.8,0,0,1-3.61,2.08c-2.81,0-4.56-2.25-4.56-5.5S329.81,84.58,332.56,84.58ZM336,90.06c0-2.13-1.09-4.21-3.34-4.21-1.85,0-3.37,1.56-3.37,4.21s1.35,4.23,3.31,4.23C334.37,94.29,336,93,336,90.06Z"/><path class="cls-1" d="M345.23,84.58c2.9,0,4.4,2.23,4.4,4.83,0,.25,0,.71,0,.71h-8a4,4,0,0,0,4.07,4.17A4.67,4.67,0,0,0,348.75,93l.69,1.06a6,6,0,0,1-3.9,1.5,5.31,5.31,0,0,1-5.48-5.48A5.13,5.13,0,0,1,345.23,84.58ZM348.17,89c-.08-2.17-1.42-3.23-3-3.23A3.6,3.6,0,0,0,341.6,89Z"/><path class="cls-1" d="M356.57,94h.27c.37,0,.6-.06.75-.46l4.79-12.9H364l4.79,12.9c.15.4.36.46.75.46h.25v1.29h-.67c-1,0-1.35-.21-1.73-1.21l-1.27-3.46h-5.81L359,94.1c-.38,1-.67,1.21-1.71,1.21h-.69Zm9.11-4.65-1.94-5.23c-.25-.69-.56-1.9-.56-1.9h-.05s-.31,1.21-.56,1.9l-1.92,5.23Z"/><path class="cls-1" d="M371.83,86.52a.42.42,0,0,0-.46-.46h-.88V84.83H372c.88,0,1.27.37,1.27,1.17v.47a7.26,7.26,0,0,1,0,.76h0a4.31,4.31,0,0,1,3.8-2.65,2.9,2.9,0,0,1,3.25,2.62h0a4.26,4.26,0,0,1,3.85-2.62c2.55,0,3.49,1.48,3.49,4.06v5a.4.4,0,0,0,.45.46H389v1.23H387.5c-.9,0-1.27-.37-1.27-1.27V89c0-1.71-.36-3.13-2.27-3.13a3.78,3.78,0,0,0-3.32,3,5.19,5.19,0,0,0-.19,1.52v5H379V89c0-1.59-.23-3.13-2.21-3.13A3.84,3.84,0,0,0,373.41,89a4.86,4.86,0,0,0-.17,1.39v5h-1.41Z"/><path class="cls-1" d="M391.17,82.35a.42.42,0,0,0-.46-.46h-.88V80.66h1.48c.9,0,1.27.38,1.27,1.27v3.79c0,.48,0,.86,0,.86h0a3.81,3.81,0,0,1,3.57-2c2.81,0,4.56,2.25,4.56,5.5s-2,5.48-4.73,5.48a3.83,3.83,0,0,1-3.44-2h0s0,.36,0,.86v.91h-1.37Zm4.71,12c1.85,0,3.37-1.56,3.37-4.23s-1.37-4.21-3.31-4.21c-1.75,0-3.4,1.25-3.4,4.23C392.54,92.21,393.63,94.31,395.88,94.31Z"/><path class="cls-1" d="M403.51,86.52a.42.42,0,0,0-.46-.46h-.88V84.83h1.48c.9,0,1.27.37,1.27,1.27v7.52a.41.41,0,0,0,.46.46h.88v1.23h-1.48c-.9,0-1.27-.37-1.27-1.27Zm-.05-5.86h1.38v1.79h-1.38Z"/><path class="cls-1" d="M412.82,84.58c2.9,0,4.4,2.23,4.4,4.83,0,.25,0,.71,0,.71h-8.05a4,4,0,0,0,4.07,4.17A4.64,4.64,0,0,0,416.34,93l.69,1.06a6,6,0,0,1-3.9,1.5,5.31,5.31,0,0,1-5.48-5.48A5.13,5.13,0,0,1,412.82,84.58ZM415.76,89c-.08-2.17-1.42-3.23-3-3.23A3.59,3.59,0,0,0,409.2,89Z"/><path class="cls-1" d="M420.05,86.52a.41.41,0,0,0-.45-.46h-.88V84.83h1.46c.87,0,1.27.37,1.27,1.17v.47a7.26,7.26,0,0,1,0,.76h0a4.46,4.46,0,0,1,4.17-2.65c2.61,0,3.52,1.48,3.52,4.06v5a.41.41,0,0,0,.46.46h.88v1.23H429c-.9,0-1.28-.37-1.28-1.27V89c0-1.65-.25-3.11-2.27-3.11a4,4,0,0,0-3.81,3,5,5,0,0,0-.17,1.42v5h-1.42Z"/><path class="cls-1" d="M432.85,86h-1.37V84.83h1.39v-2.9h1.4v2.9h2.63V86h-2.63v5.33c0,2.46,1.56,2.77,2.35,2.77a2.44,2.44,0,0,0,.48,0v1.27a3.38,3.38,0,0,1-.6.05c-1.21,0-3.65-.4-3.65-3.9Z"/><path class="cls-1" d="M445,88.85h.59v-.12c0-2.19-.8-3-2.71-3-.52,0-2.05.14-2.05.91v.67h-1.35v-1c0-1.46,2.5-1.77,3.42-1.77,3.31,0,4.1,1.77,4.1,4v5a.41.41,0,0,0,.46.46h.88v1.23H446.9c-.9,0-1.25-.39-1.25-1.25,0-.46,0-.77,0-.77h0a3.72,3.72,0,0,1-3.48,2.27c-1.75,0-3.57-1-3.57-3.1C438.58,89,443.19,88.85,445,88.85Zm-2.62,5.5c2,0,3.21-2.08,3.21-3.89V90H445c-1.64,0-4.94,0-4.94,2.39A2.08,2.08,0,0,0,442.38,94.35Z"/><path class="cls-1" d="M450.57,82.35a.42.42,0,0,0-.46-.46h-.88V80.66h1.48c.9,0,1.28.38,1.28,1.27V93.62a.4.4,0,0,0,.45.46h.88v1.23h-1.48c-.9,0-1.27-.37-1.27-1.27Z"/></svg>