
<svg id="Camada_1" data-name="Camada 1" xmlns="http://www.w3.org/2000/svg" viewBox="0 0 453.32 96.34">
	<defs>
	<style>.cls-1{fill:#4a1d0e;}.cls-2{fill:#2db3af;}.cls-3{fill:#45af75;}.cls-4{fill:#50ac32;}.cls-5{fill:#0fb8e5;}.cls-6{fill:#432216;}
</style>
</defs>
<title>logo_cessa
</title>
<path class="cls-1" d="M50.37,15.82V17.7a1.41,1.41,0,0,0,.33.95,2.58,2.58,0,0,0,.86.64,4,4,0,0,0,1.25.36,9.84,9.84,0,0,0,1.53.11A10.23,10.23,0,0,0,56,19.63a5.6,5.6,0,0,0,1.5-.43,2.84,2.84,0,0,0,1.09-.88A2.4,2.4,0,0,0,59,16.85a2,2,0,0,0-.29-1.09,2.33,2.33,0,0,0-.85-.74,6.06,6.06,0,0,0-1.3-.51c-.5-.15-1-.3-1.62-.44l-2.41-.56c-.92-.21-1.8-.44-2.66-.69a7.36,7.36,0,0,1-2.26-1.08A5.38,5.38,0,0,1,46,9.9a6.44,6.44,0,0,1-.61-3,8.07,8.07,0,0,1,.14-1.38A7.62,7.62,0,0,1,46.06,4,6.74,6.74,0,0,1,47,2.52a5.6,5.6,0,0,1,1.58-1.28A9.62,9.62,0,0,1,50.9.34,13.48,13.48,0,0,1,54.06,0a11.13,11.13,0,0,1,4,.66,8,8,0,0,1,2.7,1.64,6.15,6.15,0,0,1,1.5,2.14,5.7,5.7,0,0,1,.47,2.19V8.5H58.22V6.66A2.11,2.11,0,0,0,58,5.74a2.45,2.45,0,0,0-.75-.91,4.52,4.52,0,0,0-1.39-.69,8.15,8.15,0,0,0-2.14-.26A6.2,6.2,0,0,0,52.36,4a4.48,4.48,0,0,0-1.27.45,2.93,2.93,0,0,0-.92.83,2.14,2.14,0,0,0-.36,1.27A2.25,2.25,0,0,0,50,7.64a2.06,2.06,0,0,0,.6.68,2.54,2.54,0,0,0,.78.37l.77.22,5.47,1.34a21.9,21.9,0,0,1,2.22.69A6.39,6.39,0,0,1,61.75,12a5,5,0,0,1,1.3,1.72,6.1,6.1,0,0,1,.48,2.53A7.5,7.5,0,0,1,63,19.18a6.36,6.36,0,0,1-1.35,2,6.84,6.84,0,0,1-1.82,1.29,9.62,9.62,0,0,1-2,.74,11.32,11.32,0,0,1-1.83.33c-.56.05-1,.08-1.34.08a15.94,15.94,0,0,1-4.07-.46A10.24,10.24,0,0,1,47.72,22,5.22,5.22,0,0,1,46,20.35a3.53,3.53,0,0,1-.58-1.94V15.82ZM82,18.48a.83.83,0,0,0,.23.54.67.67,0,0,0,.52.27h1.13V23H80.17a1.75,1.75,0,0,1-.71-.16,2.65,2.65,0,0,1-.72-.43,2.23,2.23,0,0,1-.54-.68,1.68,1.68,0,0,1-.22-.85v-.44a5.32,5.32,0,0,1-2.16,2.2,6.08,6.08,0,0,1-3.06.8A9,9,0,0,1,69.63,23a6.55,6.55,0,0,1-2.52-1.59,7.18,7.18,0,0,1-1.68-2.74,11.27,11.27,0,0,1-.61-3.91,10,10,0,0,1,.7-3.89A7.5,7.5,0,0,1,70.1,6.5,10.08,10.08,0,0,1,73.32,6a5.8,5.8,0,0,1,1.31.16A7.21,7.21,0,0,1,76,6.57a7.53,7.53,0,0,1,1.17.67,3.9,3.9,0,0,1,.89.83V6.57h4Zm-4.69-3.76a9.35,9.35,0,0,0-.16-1.67,5.08,5.08,0,0,0-.57-1.64,3.65,3.65,0,0,0-1.22-1.25,3.85,3.85,0,0,0-2-.5,3.8,3.8,0,0,0-2.06.5A3.53,3.53,0,0,0,70,11.41a5.35,5.35,0,0,0-.58,1.64,9.34,9.34,0,0,0-.15,1.67,9.71,9.71,0,0,0,.15,1.71A5.26,5.26,0,0,0,70,18.07a3.43,3.43,0,0,0,1.21,1.24,3.8,3.8,0,0,0,2.06.48,3.88,3.88,0,0,0,2-.48,3.53,3.53,0,0,0,1.22-1.24,5,5,0,0,0,.57-1.64,8.85,8.85,0,0,0,.17-1.71Zm9.92-3.62a1,1,0,0,0-.27-.63.8.8,0,0,0-.57-.31h-1V6.41h4.1a1.53,1.53,0,0,1,.72.2,2.81,2.81,0,0,1,.62.52,2.87,2.87,0,0,1,.46.69,1.79,1.79,0,0,1,.17.75v.56A8.51,8.51,0,0,1,92,8.21a5,5,0,0,1,1-1.05A5.41,5.41,0,0,1,96.48,6a7.41,7.41,0,0,1,2.29.36,5.32,5.32,0,0,1,1.83,1.06,5.15,5.15,0,0,1,1.21,1.74,5.88,5.88,0,0,1,.46,2.41v6.81a1,1,0,0,0,.25.63.66.66,0,0,0,.56.31h1.06V23h-3.53a1.8,1.8,0,0,1-1-.3,3.08,3.08,0,0,1-.86-.75,3.78,3.78,0,0,1-.61-1,2.75,2.75,0,0,1-.24-1.1V12.94a8.34,8.34,0,0,0,0-1,2.66,2.66,0,0,0-.32-1.06,2.5,2.5,0,0,0-.86-.85,3.32,3.32,0,0,0-1.61-.34,3.39,3.39,0,0,0-2.46,1,3.92,3.92,0,0,0-1,2.88V20a2.64,2.64,0,0,1-.28,1,3.43,3.43,0,0,1-.62,1,3.2,3.2,0,0,1-.89.75,2,2,0,0,1-1,.3H85.35V19.29h1A.76.76,0,0,0,87,19a.84.84,0,0,0,.27-.6ZM64,47h2.72v3.75H64.16a3.63,3.63,0,0,1-1.38-.25,5.75,5.75,0,0,1-1.23-.64A6.76,6.76,0,0,1,60.49,49a5.57,5.57,0,0,1-.8-1l-4.28-6H53v5.31a2.8,2.8,0,0,1-.3,1.24,4.24,4.24,0,0,1-1.87,1.92,2.56,2.56,0,0,1-1.21.31h-4V47h1.69a1.15,1.15,0,0,0,.75-.31A.88.88,0,0,0,48.4,46V33.78a1.61,1.61,0,0,0-.4-1.06,1.31,1.31,0,0,0-1-.54H45.59V28.31h12a8,8,0,0,1,3.63.72,6.29,6.29,0,0,1,2.14,1.73,5.9,5.9,0,0,1,1,2.1,7.83,7.83,0,0,1,.27,1.79,12.17,12.17,0,0,1-.16,2,6.33,6.33,0,0,1-.64,2,5.13,5.13,0,0,1-1.39,1.68A6,6,0,0,1,60,41.38Zm-7.72-8.81A4.49,4.49,0,0,0,59,37.5a2.87,2.87,0,0,0,.89-2.38,3.82,3.82,0,0,0-.13-.95,2.38,2.38,0,0,0-.48-1,2.72,2.72,0,0,0-1-.74,4,4,0,0,0-1.67-.3H53v6ZM84.85,46.1a.87.87,0,0,0,.29.62.82.82,0,0,0,.62.28h1v3.75H83a2.33,2.33,0,0,1-.69-.12,2.38,2.38,0,0,1-.78-.39,2.35,2.35,0,0,1-.64-.69,1.85,1.85,0,0,1-.26-1V47.9a4.86,4.86,0,0,1-2,2.42,5.64,5.64,0,0,1-3.14.89,6.74,6.74,0,0,1-2.27-.36,4.5,4.5,0,0,1-1.8-1.11,5,5,0,0,1-1.17-1.9,8.08,8.08,0,0,1-.42-2.76V38.72a.85.85,0,0,0-.25-.56.75.75,0,0,0-.53-.29H68V34.12h3.82a2.72,2.72,0,0,1,1.08.33,2.86,2.86,0,0,1,.76.67,3,3,0,0,1,.46.88,3.34,3.34,0,0,1,.14.94v7.5A4,4,0,0,0,74.51,46a2.15,2.15,0,0,0,.65.92,2.2,2.2,0,0,0,.93.46,4.21,4.21,0,0,0,1,.12,4,4,0,0,0,1.13-.17,2.87,2.87,0,0,0,1.09-.61,3.39,3.39,0,0,0,.83-1.15,4.47,4.47,0,0,0,.33-1.85v-5a1,1,0,0,0-.25-.58.74.74,0,0,0-.53-.3H78.6V34.12h3.72a2.44,2.44,0,0,1,1.77.78,2.87,2.87,0,0,1,.76,2.1Zm5-7.38a.9.9,0,0,0-.25-.58.81.81,0,0,0-.57-.27H88V34.12h3.38a2.85,2.85,0,0,1,.92.19,3.19,3.19,0,0,1,.87.52,2.87,2.87,0,0,1,.64.75,1.65,1.65,0,0,1,.25.86V37h.07c.23-.42.47-.82.72-1.22a5.06,5.06,0,0,1,.9-1.06A3.91,3.91,0,0,1,96.94,34a4.68,4.68,0,0,1,1.7-.29h.85v4.44a4.07,4.07,0,0,0-.61-.07h-.65a5.18,5.18,0,0,0-2.06.36,3.14,3.14,0,0,0-1.22.94,3.25,3.25,0,0,0-.59,1.28,5.93,5.93,0,0,0-.16,1.39v8.66H89.83Zm27.82,7.47a.85.85,0,0,0,.23.55.71.71,0,0,0,.52.26h1.12v3.75H115.8a1.87,1.87,0,0,1-.7-.15,2.68,2.68,0,0,1-.72-.44,2.38,2.38,0,0,1-.55-.67,1.82,1.82,0,0,1-.21-.86v-.44a5.41,5.41,0,0,1-2.16,2.21,6.07,6.07,0,0,1-3.06.79,9.29,9.29,0,0,1-3.13-.51,6.69,6.69,0,0,1-2.52-1.6,7.51,7.51,0,0,1-1.69-2.73,11.55,11.55,0,0,1-.61-3.91,9.8,9.8,0,0,1,.71-3.89A7.85,7.85,0,0,1,103,35.83a7.54,7.54,0,0,1,2.71-1.61,9.76,9.76,0,0,1,3.22-.54,6.43,6.43,0,0,1,1.31.16,7.47,7.47,0,0,1,1.31.44,7.63,7.63,0,0,1,1.18.67,5,5,0,0,1,.89.83v-1.5h4ZM113,42.44a9.35,9.35,0,0,0-.16-1.67,4.85,4.85,0,0,0-.58-1.65A3.59,3.59,0,0,0,111,37.87a4.53,4.53,0,0,0-4.12,0,3.51,3.51,0,0,0-1.2,1.25,5.41,5.41,0,0,0-.58,1.65,9.34,9.34,0,0,0-.15,1.67,9.68,9.68,0,0,0,.15,1.7,5.26,5.26,0,0,0,.58,1.64,3.4,3.4,0,0,0,1.2,1.24A4.63,4.63,0,0,0,111,47a3.27,3.27,0,0,0,1.21-1.24,4.73,4.73,0,0,0,.58-1.64A9.41,9.41,0,0,0,113,42.44Zm14.22,3a.86.86,0,0,0,.29.64.83.83,0,0,0,.64.3h2.19v4.37h-4.13a2.45,2.45,0,0,1-1.18-.31,3.8,3.8,0,0,1-1-.84,4.44,4.44,0,0,1-.8-1.25,3.81,3.81,0,0,1-.31-1.53V32.94a1,1,0,0,0-.25-.6.76.76,0,0,0-.56-.28H120.7V28.31h3.75a2.6,2.6,0,0,1,1.19.28,3.1,3.1,0,0,1,.89.72,3.41,3.41,0,0,1,.55.94,2.71,2.71,0,0,1,.19.93Z"/>
<path class="cls-2" d="M27.13,60.67H25.26a2.14,2.14,0,0,0-1.72.89v4.67a6.57,6.57,0,0,0,6.57,6.57H41V64.57a9.22,9.22,0,0,0-9.19-9.19H27.13Z"/>
<path class="cls-2" d="M30.11,78.92A12.69,12.69,0,0,1,17.42,66.23V61.56a2.1,2.1,0,0,0-1.72-.89H13.83V55.38H9.18A9.21,9.21,0,0,0,0,64.57V87.16a9.21,9.21,0,0,0,9.18,9.18H31.77A9.21,9.21,0,0,0,41,87.16V78.92Z"/>
<path class="cls-3" d="M86.54,72.8V64.57a9.22,9.22,0,0,0-9.19-9.19H54.76a9.21,9.21,0,0,0-9.18,9.19V72.8Zm-41,6.12v8.24a9.21,9.21,0,0,0,9.18,9.18H77.35a9.21,9.21,0,0,0,9.19-9.18V78.92Z"/>
<path class="cls-4" d="M132.11,72.8V64.57a9.21,9.21,0,0,0-9.18-9.19H100.34a9.22,9.22,0,0,0-9.19,9.19V72.8Zm-41,6.12v8.24a9.21,9.21,0,0,0,9.19,9.18h22.59a9.21,9.21,0,0,0,9.18-9.18V78.92Z"/>
<path class="cls-5" d="M20.48,46.55a13,13,0,0,1-13-13c0-9.7,13-21.53,13-21.53s13,11.83,13,21.53A13,13,0,0,1,20.48,46.55Z"/>
<path class="cls-6" d="M157.55,56.57c2,0,5.19.85,5.19,2.94v1.14h-1.3v-.76c0-1.31-2.25-2-3.85-2a5.46,5.46,0,0,0-5.44,5.77,5.66,5.66,0,0,0,5.5,6,6.35,6.35,0,0,0,4.54-2l.79,1a7.35,7.35,0,0,1-5.35,2.25,7,7,0,0,1-6.93-7.28A6.83,6.83,0,0,1,157.55,56.57Z"/>
<path class="cls-6" d="M165.92,62.35a.39.39,0,0,0-.43-.43h-.83V60.75h1.4c.85,0,1.2.36,1.2,1.17v4.79c0,1.56.26,2.94,2.18,2.94,2.25,0,3.65-2,3.65-4.14V60.75h1.34v8.33a.39.39,0,0,0,.43.44h.83v1.16h-1.36c-.83,0-1.2-.35-1.2-1.1v-.46a6.39,6.39,0,0,1,0-.71h0a4.24,4.24,0,0,1-3.87,2.51c-2.35,0-3.34-1.27-3.34-3.85Z"/>
<path class="cls-6" d="M178.46,62.35a.4.4,0,0,0-.44-.43h-.83V60.75h1.39c.83,0,1.2.34,1.2,1.13v.67a7.18,7.18,0,0,1,0,.75h0a3.39,3.39,0,0,1,3.14-2.65,2.69,2.69,0,0,1,.53.06V62a3.39,3.39,0,0,0-.49,0,3.17,3.17,0,0,0-2.88,2.56,6.51,6.51,0,0,0-.28,1.94v4.18h-1.34Z"/>
<path class="cls-6" d="M185.82,68.25a4.05,4.05,0,0,0,3.06,1.5c1.1,0,2.09-.53,2.09-1.58,0-2.17-5.56-1.77-5.56-5,0-1.79,1.53-2.68,3.53-2.68,1,0,3,.39,3,1.79v.85h-1.27v-.47c0-.73-1.06-1-1.71-1-1.38,0-2.21.47-2.21,1.44,0,2.23,5.56,1.72,5.56,5,0,1.65-1.5,2.78-3.47,2.78a4.75,4.75,0,0,1-3.81-1.74Z"/>
<path class="cls-6" d="M199.77,60.52a5.2,5.2,0,1,1,0,10.4,5.2,5.2,0,1,1,0-10.4Zm0,9.19a3.9,3.9,0,0,0,3.85-4,3.86,3.86,0,1,0-7.71,0A3.91,3.91,0,0,0,199.79,69.71Z"/>
<path class="cls-6" d="M217.66,60.52a3.49,3.49,0,0,1,3.23,1.85h0a6.94,6.94,0,0,1,0-.75V58.41a.39.39,0,0,0-.43-.44h-.83V56.81H221c.85,0,1.21.35,1.21,1.2V69.08a.38.38,0,0,0,.43.44h.83v1.16h-1.38c-.83,0-1.19-.37-1.19-1.1a4.65,4.65,0,0,1,0-.64h0a3.59,3.59,0,0,1-3.41,2c-2.66,0-4.32-2.13-4.32-5.21S215.05,60.52,217.66,60.52Zm3.27,5.19c0-2-1-4-3.15-4-1.76,0-3.2,1.48-3.2,4s1.28,4,3.14,4C219.37,69.71,220.93,68.53,220.93,65.71Z"/>
<path class="cls-6" d="M230.25,60.52c2.74,0,4.17,2.11,4.17,4.58,0,.23,0,.67,0,.67h-7.62a3.76,3.76,0,0,0,3.85,3.94,4.45,4.45,0,0,0,3-1.22l.65,1a5.63,5.63,0,0,1-3.69,1.42,5,5,0,0,1-5.19-5.19A4.85,4.85,0,0,1,230.25,60.52ZM233,64.7c-.07-2.05-1.34-3.06-2.8-3.06a3.4,3.4,0,0,0-3.41,3.06Z"/>
<path class="cls-6" d="M244.05,58h-1.28V56.81h7.93c.85,0,1.2.35,1.2,1.2v1.38h-1.3v-.93a.39.39,0,0,0-.43-.43h-4.74v5h5.21v1.23h-5.21V69a.39.39,0,0,0,.43.44h4.88a.38.38,0,0,0,.43-.44V68.1h1.29v1.38c0,.85-.36,1.2-1.21,1.2h-6c-.85,0-1.2-.35-1.2-1.2Z"/>
<path class="cls-6" d="M254.89,68.25a4,4,0,0,0,3.06,1.5c1.1,0,2.09-.53,2.09-1.58,0-2.17-5.57-1.77-5.57-5,0-1.79,1.54-2.68,3.53-2.68,1,0,3,.39,3,1.79v.85h-1.26v-.47c0-.73-1.06-1-1.72-1-1.38,0-2.21.47-2.21,1.44,0,2.23,5.57,1.72,5.57,5,0,1.65-1.5,2.78-3.47,2.78a4.75,4.75,0,0,1-3.81-1.74Z"/>
<path class="cls-6" d="M264.54,62.35a.4.4,0,0,0-.44-.43h-.82V60.75h1.36c.85,0,1.18.36,1.18,1,0,.39,0,.67,0,.67h0a3.56,3.56,0,0,1,3.42-1.95c2.66,0,4.32,2.13,4.32,5.21s-1.88,5.19-4.44,5.19A3.52,3.52,0,0,1,265.88,69h0s0,.36,0,.87v4.72h-1.34ZM269,69.73c1.76,0,3.2-1.48,3.2-4s-1.29-4-3.14-4c-1.66,0-3.22,1.18-3.22,4C265.84,67.74,266.93,69.73,269,69.73Z"/>
<path class="cls-6" d="M280.68,60.52c2.75,0,4.17,2.11,4.17,4.58,0,.23,0,.67,0,.67h-7.62A3.77,3.77,0,0,0,281,69.71a4.45,4.45,0,0,0,3-1.22l.65,1A5.63,5.63,0,0,1,281,70.92a5,5,0,0,1-5.19-5.19A4.85,4.85,0,0,1,280.68,60.52Zm2.79,4.18c-.08-2.05-1.35-3.06-2.81-3.06a3.41,3.41,0,0,0-3.41,3.06Z"/>
<path class="cls-6" d="M292.43,60.52c1.12,0,3.53.47,3.53,2.11v.89H294.7v-.58c0-.82-1.44-1.22-2.27-1.22a4,4,0,0,0,0,8,4.41,4.41,0,0,0,3.2-1.4l.63,1a5.26,5.26,0,0,1-3.89,1.62,5,5,0,0,1-5.21-5.19A5.08,5.08,0,0,1,292.43,60.52Z"/>
<path class="cls-6" d="M299.24,62.35a.4.4,0,0,0-.44-.43H298V60.75h1.4c.85,0,1.2.36,1.2,1.21v7.12a.39.39,0,0,0,.44.44h.83v1.16h-1.41c-.85,0-1.2-.35-1.2-1.2Zm0-5.54h1.3V58.5h-1.3Z"/>
<path class="cls-6" d="M309.84,64.56h.55v-.12c0-2.07-.75-2.8-2.56-2.8-.5,0-1.94.14-1.94.87v.63h-1.28v-1c0-1.38,2.37-1.67,3.24-1.67,3.13,0,3.88,1.67,3.88,3.81v4.75a.39.39,0,0,0,.44.44H313v1.16h-1.37c-.84,0-1.18-.37-1.18-1.18,0-.44,0-.73,0-.73h0a3.52,3.52,0,0,1-3.3,2.15c-1.65,0-3.37-1-3.37-2.94C303.76,64.68,308.12,64.56,309.84,64.56Zm-2.49,5.21c1.9,0,3-2,3-3.69v-.45h-.57c-1.56,0-4.68,0-4.68,2.27A2,2,0,0,0,307.35,69.77Z"/>
<path class="cls-6" d="M315.7,58.41a.4.4,0,0,0-.43-.44h-.83V56.81h1.4c.85,0,1.2.35,1.2,1.2V69.08a.39.39,0,0,0,.44.44h.83v1.16h-1.4c-.85,0-1.21-.35-1.21-1.2Z"/>
<path class="cls-6" d="M321.25,62.35a.4.4,0,0,0-.44-.43H320V60.75h1.41c.84,0,1.2.36,1.2,1.21v7.12a.39.39,0,0,0,.43.44h.83v1.16h-1.4c-.85,0-1.2-.35-1.2-1.2Zm0-5.54h1.3V58.5h-1.3Z"/>
<path class="cls-6" d="M325.75,69.81l5.58-7c.38-.48.79-.91.79-.91v0a9.12,9.12,0,0,1-1,0H327.5a.39.39,0,0,0-.43.43v.77h-1.26V62c0-.85.35-1.21,1.2-1.21h6.89v.89l-5.57,7c-.39.47-.83.91-.83.91v0s.36,0,1,0h4.11a.39.39,0,0,0,.43-.44v-.77h1.26v1.19c0,.85-.35,1.2-1.2,1.2h-7.36Z"/>
<path class="cls-6" d="M342.29,64.56h.55v-.12c0-2.07-.75-2.8-2.57-2.8-.49,0-1.93.14-1.93.87v.63h-1.28v-1c0-1.38,2.37-1.67,3.23-1.67,3.14,0,3.89,1.67,3.89,3.81v4.75a.39.39,0,0,0,.44.44h.83v1.16h-1.37c-.84,0-1.18-.37-1.18-1.18,0-.44,0-.73,0-.73h0a3.52,3.52,0,0,1-3.3,2.15c-1.65,0-3.37-1-3.37-2.94C336.21,64.68,340.57,64.56,342.29,64.56Zm-2.49,5.21c1.9,0,3-2,3-3.69v-.45h-.57c-1.56,0-4.68,0-4.68,2.27A2,2,0,0,0,339.8,69.77Z"/>
<path class="cls-6" d="M352.47,60.52c1.13,0,3.54.47,3.54,2.11v.89h-1.27v-.58c0-.82-1.44-1.22-2.27-1.22a4,4,0,0,0,0,8,4.38,4.38,0,0,0,3.2-1.4l.63,1a5.36,5.36,0,0,1-3.93,1.62l-.15.85a1.42,1.42,0,0,1,1.38,1.4c0,1.14-.93,1.56-1.9,1.56a4.56,4.56,0,0,1-1-.1v-.95a3,3,0,0,0,.83.12c.51,0,1-.14,1-.67s-.43-.67-1.12-.67l-.3,0,.38-1.64a5,5,0,0,1-4.31-5.11A5.08,5.08,0,0,1,352.47,60.52Z"/>
<path class="cls-6" d="M364.34,64.56h.55v-.12c0-2.07-.75-2.8-2.57-2.8-.49,0-1.93.14-1.93.87v.63h-1.28v-1c0-1.38,2.37-1.67,3.23-1.67,3.14,0,3.89,1.67,3.89,3.81v4.75a.39.39,0,0,0,.44.44h.83v1.16h-1.37c-.85,0-1.18-.37-1.18-1.18,0-.44,0-.73,0-.73h0a3.52,3.52,0,0,1-3.3,2.15c-1.66,0-3.37-1-3.37-2.94C358.26,64.68,362.62,64.56,364.34,64.56Zm-3-7.77c1.32,0,1.6,1.42,2.48,1.42.65,0,.79-.85.79-1.36h1.05c0,1.52-.63,2.3-1.84,2.3s-1.59-1.4-2.5-1.4c-.65,0-.79.83-.79,1.35h-1C359.48,57.58,360.09,56.79,361.32,56.79Zm.53,13c1.89,0,3-2,3-3.69v-.45h-.57c-1.56,0-4.68,0-4.68,2.27A2,2,0,0,0,361.85,69.77Z"/>
<path class="cls-6" d="M374.52,60.52a5.2,5.2,0,1,1-5.23,5.15A5.14,5.14,0,0,1,374.52,60.52Zm0,9.19a3.91,3.91,0,0,0,3.85-4,3.86,3.86,0,1,0-7.72,0A3.91,3.91,0,0,0,374.54,69.71Z"/>
<path class="cls-6" d="M392.8,60.52c2.74,0,4.17,2.11,4.17,4.58,0,.23-.05.67-.05.67h-7.61a3.76,3.76,0,0,0,3.85,3.94,4.45,4.45,0,0,0,3-1.22l.65,1a5.63,5.63,0,0,1-3.69,1.42,5,5,0,0,1-5.19-5.19A4.85,4.85,0,0,1,392.8,60.52Zm2.78,4.18c-.08-2.05-1.34-3.06-2.8-3.06a3.4,3.4,0,0,0-3.41,3.06Z"/>
<path class="cls-6" d="M400.24,62.35a.39.39,0,0,0-.43-.43H399V60.75h1.38c.83,0,1.21.36,1.21,1.11v.45a5,5,0,0,1-.05.71h.05a4.07,4.07,0,0,1,3.59-2.5A2.75,2.75,0,0,1,408.24,63h0a4.05,4.05,0,0,1,3.66-2.48c2.4,0,3.29,1.4,3.29,3.85v4.71a.39.39,0,0,0,.44.44h.83v1.16h-1.41c-.85,0-1.2-.35-1.2-1.2V64.7c0-1.62-.34-3-2.15-3a3.57,3.57,0,0,0-3.14,2.8,4.7,4.7,0,0,0-.18,1.44v4.7h-1.34v-6c0-1.5-.22-3-2.09-3a3.64,3.64,0,0,0-3.24,2.92,4.82,4.82,0,0,0-.16,1.32v4.7h-1.34Z"/>
<path class="cls-6" d="M151.53,92.44a5.07,5.07,0,0,0,3.6,1.7,2.54,2.54,0,0,0,2.74-2.47c0-3.43-6.85-2.74-6.85-7,0-1.94,1.68-3.56,4.24-3.56,1.35,0,3.75.58,3.75,2.39v1h-1.3V83.8c0-.83-1.14-1.44-2.43-1.44-1.79,0-2.84,1-2.84,2.23,0,3.21,6.85,2.43,6.85,7a3.88,3.88,0,0,1-4.2,3.83,5.86,5.86,0,0,1-4.4-2Z"/>
<path class="cls-6" d="M167.64,89.07h.55V89c0-2.07-.75-2.8-2.56-2.8-.5,0-1.94.13-1.94.87v.63h-1.28v-1c0-1.38,2.37-1.68,3.24-1.68,3.13,0,3.88,1.68,3.88,3.81v4.76A.39.39,0,0,0,170,94h.83v1.17h-1.36c-.85,0-1.19-.38-1.19-1.19,0-.43,0-.73,0-.73h0a3.51,3.51,0,0,1-3.29,2.15c-1.66,0-3.38-1-3.38-2.94C161.56,89.19,165.92,89.07,167.64,89.07Zm-2.49,5.21c1.9,0,3-2,3-3.69v-.46h-.57c-1.56,0-4.68,0-4.68,2.27A2,2,0,0,0,165.15,94.28Z"/>
<path class="cls-6" d="M173.52,86.86a.39.39,0,0,0-.43-.44h-.83V85.26h1.38c.83,0,1.21.35,1.21,1.1v.46a6.39,6.39,0,0,1,0,.71h0A4.2,4.2,0,0,1,178.79,85c2.47,0,3.34,1.4,3.34,3.85v4.72a.39.39,0,0,0,.43.43h.83v1.17H182c-.85,0-1.2-.36-1.2-1.21V89.23c0-1.56-.24-3-2.16-3A3.79,3.79,0,0,0,175,89.09a4.83,4.83,0,0,0-.16,1.34v4.76h-1.34Z"/>
<path class="cls-6" d="M190.08,85c2.75,0,4.17,2.11,4.17,4.58,0,.24,0,.67,0,.67h-7.62a3.77,3.77,0,0,0,3.85,4,4.45,4.45,0,0,0,3-1.22l.65,1a5.63,5.63,0,0,1-3.69,1.42,5,5,0,0,1-5.19-5.19A4.86,4.86,0,0,1,190.08,85Zm2.79,4.19c-.08-2.06-1.35-3.06-2.81-3.06a3.4,3.4,0,0,0-3.41,3.06Z"/>
<path class="cls-6" d="M202.68,89.07h.55V89c0-2.07-.75-2.8-2.57-2.8-.49,0-1.93.13-1.93.87v.63h-1.28v-1c0-1.38,2.36-1.68,3.23-1.68,3.14,0,3.89,1.68,3.89,3.81v4.76A.39.39,0,0,0,205,94h.82v1.17h-1.36c-.85,0-1.18-.38-1.18-1.19,0-.43,0-.73,0-.73h0a3.52,3.52,0,0,1-3.3,2.15c-1.66,0-3.37-1-3.37-2.94C196.6,89.19,201,89.07,202.68,89.07Zm-2.49,5.21c1.89,0,3-2,3-3.69v-.46h-.57c-1.56,0-4.68,0-4.68,2.27A2,2,0,0,0,200.19,94.28Z"/>
<path class="cls-6" d="M208.56,86.86a.4.4,0,0,0-.43-.44h-.83V85.26h1.38c.83,0,1.2.35,1.2,1.1v.46a6.39,6.39,0,0,1,0,.71h0A4.08,4.08,0,0,1,213.47,85a2.74,2.74,0,0,1,3.08,2.49h0A4,4,0,0,1,220.24,85c2.41,0,3.3,1.4,3.3,3.85v4.72A.39.39,0,0,0,224,94h.83v1.17h-1.4c-.85,0-1.2-.36-1.2-1.21V89.21c0-1.62-.34-3-2.15-3a3.57,3.57,0,0,0-3.14,2.8,4.66,4.66,0,0,0-.18,1.44v4.7h-1.34v-6c0-1.5-.22-3-2.09-3a3.63,3.63,0,0,0-3.24,2.92,4.73,4.73,0,0,0-.16,1.32v4.7h-1.34Z"/>
<path class="cls-6" d="M231.49,85c2.75,0,4.17,2.11,4.17,4.58,0,.24,0,.67,0,.67H228a3.77,3.77,0,0,0,3.85,4,4.42,4.42,0,0,0,3-1.22l.65,1a5.63,5.63,0,0,1-3.69,1.42,5,5,0,0,1-5.19-5.19A4.86,4.86,0,0,1,231.49,85Zm2.79,4.19c-.08-2.06-1.34-3.06-2.8-3.06a3.41,3.41,0,0,0-3.42,3.06Z"/>
<path class="cls-6" d="M238.94,86.86a.4.4,0,0,0-.44-.44h-.83V85.26h1.39c.82,0,1.2.35,1.2,1.1v.46a6.39,6.39,0,0,1,0,.71h0a4.21,4.21,0,0,1,4-2.51c2.46,0,3.33,1.4,3.33,3.85v4.72A.39.39,0,0,0,248,94h.83v1.17H247.4c-.85,0-1.2-.36-1.2-1.21V89.23c0-1.56-.24-3-2.15-3a3.77,3.77,0,0,0-3.61,2.81,4.83,4.83,0,0,0-.16,1.34v4.76h-1.34Z"/>
<path class="cls-6" d="M251.65,86.38h-1.3V85.26h1.32V82.52H253v2.74h2.49v1.12H253v5.06c0,2.32,1.48,2.62,2.23,2.62a2.16,2.16,0,0,0,.45,0v1.21a4.87,4.87,0,0,1-.57,0c-1.14,0-3.45-.37-3.45-3.69Z"/>
<path class="cls-6" d="M262.84,85a5.2,5.2,0,1,1-5.23,5.15A5.14,5.14,0,0,1,262.84,85Zm0,9.2a3.92,3.92,0,0,0,3.85-4,3.86,3.86,0,1,0-7.72,0A3.92,3.92,0,0,0,262.86,94.22Z"/>
<path class="cls-6" d="M281.12,85c2.74,0,4.16,2.11,4.16,4.58,0,.24,0,.67,0,.67h-7.61a3.76,3.76,0,0,0,3.84,4,4.42,4.42,0,0,0,3-1.22l.65,1a5.63,5.63,0,0,1-3.69,1.42,5,5,0,0,1-5.19-5.19A4.86,4.86,0,0,1,281.12,85Zm2.78,4.19c-.08-2.06-1.34-3.06-2.8-3.06a3.41,3.41,0,0,0-3.42,3.06Z"/>
<path class="cls-6" d="M294.38,92.44a5.09,5.09,0,0,0,3.6,1.7,2.54,2.54,0,0,0,2.74-2.47c0-3.43-6.85-2.74-6.85-7,0-1.94,1.68-3.56,4.24-3.56,1.35,0,3.75.58,3.75,2.39v1h-1.3V83.8c0-.83-1.14-1.44-2.43-1.44-1.79,0-2.84,1-2.84,2.23,0,3.21,6.85,2.43,6.85,7a3.88,3.88,0,0,1-4.2,3.83,5.86,5.86,0,0,1-4.4-2Z"/>
<path class="cls-6" d="M310.49,89.07H311V89c0-2.07-.75-2.8-2.56-2.8-.5,0-1.94.13-1.94.87v.63h-1.28v-1c0-1.38,2.37-1.68,3.24-1.68,3.13,0,3.88,1.68,3.88,3.81v4.76a.39.39,0,0,0,.44.43h.83v1.17h-1.37c-.84,0-1.18-.38-1.18-1.19,0-.43,0-.73,0-.73h0a3.51,3.51,0,0,1-3.29,2.15c-1.66,0-3.38-1-3.38-2.94C304.41,89.19,308.77,89.07,310.49,89.07ZM308,94.28c1.9,0,3-2,3-3.69v-.46h-.57c-1.56,0-4.68,0-4.68,2.27A2,2,0,0,0,308,94.28Z"/>
<path class="cls-6" d="M316.33,86.86a.4.4,0,0,0-.43-.44h-.83V85.26h1.4c.85,0,1.2.35,1.2,1.16v4.8c0,1.56.26,2.94,2.17,2.94,2.26,0,3.66-2,3.66-4.15V85.26h1.34v8.33a.39.39,0,0,0,.43.43h.83v1.17h-1.36c-.83,0-1.2-.36-1.2-1.11v-.45c0-.4,0-.71,0-.71h0a4.25,4.25,0,0,1-3.87,2.5c-2.35,0-3.34-1.26-3.34-3.85Zm4.94-5.55h1.5l-1.72,2.35h-1.16Z"/>
<path class="cls-6" d="M332.44,85a3.51,3.51,0,0,1,3.24,1.86h0s0-.34,0-.75V82.91a.39.39,0,0,0-.44-.43h-.83V81.31h1.4c.85,0,1.21.36,1.21,1.21V93.59a.39.39,0,0,0,.43.43h.83v1.17H336.9c-.83,0-1.19-.38-1.19-1.11a4.58,4.58,0,0,1,0-.63h0a3.57,3.57,0,0,1-3.41,2c-2.66,0-4.32-2.13-4.32-5.21S329.83,85,332.44,85Zm3.27,5.19c0-2-1-4-3.15-4-1.76,0-3.2,1.48-3.2,4s1.28,4,3.14,4C334.16,94.22,335.71,93,335.71,90.21Z"/>
<path class="cls-6" d="M345,85c2.75,0,4.17,2.11,4.17,4.58,0,.24,0,.67,0,.67h-7.62a3.76,3.76,0,0,0,3.85,4,4.45,4.45,0,0,0,3-1.22l.65,1a5.63,5.63,0,0,1-3.69,1.42,5,5,0,0,1-5.19-5.19A4.86,4.86,0,0,1,345,85Zm2.79,4.19c-.08-2.06-1.35-3.06-2.81-3.06a3.4,3.4,0,0,0-3.41,3.06Z"/>
<path class="cls-6" d="M357,94h.25c.36,0,.57-.06.71-.43l4.54-12.22h1.48l4.54,12.22c.14.37.34.43.71.43h.24v1.23h-.63c-1,0-1.29-.2-1.64-1.15L366,90.76h-5.51L359.23,94c-.36.95-.64,1.15-1.62,1.15H357Zm8.62-4.4-1.84-5c-.23-.65-.53-1.8-.53-1.8h0s-.29,1.15-.53,1.8l-1.82,5Z"/>
<path class="cls-6" d="M372,86.86a.4.4,0,0,0-.44-.44h-.83V85.26h1.39c.82,0,1.2.35,1.2,1.1v.46a6.39,6.39,0,0,1,0,.71h0A4.08,4.08,0,0,1,376.91,85,2.75,2.75,0,0,1,380,87.51h0A4,4,0,0,1,383.68,85c2.41,0,3.3,1.4,3.3,3.85v4.72a.38.38,0,0,0,.43.43h.83v1.17h-1.4c-.85,0-1.21-.36-1.21-1.21V89.21c0-1.62-.33-3-2.15-3a3.58,3.58,0,0,0-3.14,2.8,5,5,0,0,0-.17,1.44v4.7h-1.35v-6c0-1.5-.21-3-2.09-3a3.62,3.62,0,0,0-3.23,2.92,4.73,4.73,0,0,0-.16,1.32v4.7H372Z"/>
<path class="cls-6" d="M390.91,82.91a.39.39,0,0,0-.44-.43h-.83V81.31h1.41c.84,0,1.2.36,1.2,1.21v3.59c0,.45,0,.81,0,.81h0a3.59,3.59,0,0,1,3.37-1.9c2.67,0,4.33,2.13,4.33,5.21s-1.88,5.19-4.49,5.19a3.62,3.62,0,0,1-3.25-1.91h0a7.45,7.45,0,0,1,0,.81v.87h-1.3Zm4.46,11.33c1.75,0,3.19-1.48,3.19-4s-1.3-4-3.13-4c-1.66,0-3.22,1.18-3.22,4C392.21,92.25,393.24,94.24,395.37,94.24Z"/>
<path class="cls-6" d="M403.18,86.86a.39.39,0,0,0-.43-.44h-.83V85.26h1.4c.85,0,1.21.35,1.21,1.2v7.13A.38.38,0,0,0,405,94h.83v1.17h-1.4c-.85,0-1.21-.36-1.21-1.21Zm0-5.55h1.3V83h-1.3Z"/>
<path class="cls-6" d="M412.6,85c2.74,0,4.16,2.11,4.16,4.58,0,.24,0,.67,0,.67H409.1a3.78,3.78,0,0,0,3.85,4,4.42,4.42,0,0,0,3-1.22l.66,1a5.64,5.64,0,0,1-3.7,1.42,5,5,0,0,1-5.19-5.19A4.86,4.86,0,0,1,412.6,85Zm2.78,4.19c-.08-2.06-1.34-3.06-2.8-3.06a3.41,3.41,0,0,0-3.42,3.06Z"/>
<path class="cls-6" d="M420,86.86a.4.4,0,0,0-.43-.44h-.83V85.26h1.38c.83,0,1.2.35,1.2,1.1v.46a6.39,6.39,0,0,1,0,.71h0A4.22,4.22,0,0,1,425.31,85c2.47,0,3.34,1.4,3.34,3.85v4.72a.38.38,0,0,0,.43.43h.83v1.17h-1.4c-.85,0-1.21-.36-1.21-1.21V89.23c0-1.56-.23-3-2.15-3a3.79,3.79,0,0,0-3.61,2.81,4.83,4.83,0,0,0-.16,1.34v4.76H420Z"/>
<path class="cls-6" d="M432.75,86.38h-1.3V85.26h1.32V82.52h1.33v2.74h2.48v1.12H434.1v5.06c0,2.32,1.48,2.62,2.22,2.62a2.34,2.34,0,0,0,.46,0v1.21a5.09,5.09,0,0,1-.57,0c-1.15,0-3.46-.37-3.46-3.69Z"/>
<path class="cls-6" d="M444.85,89.07h.55V89c0-2.07-.75-2.8-2.56-2.8-.49,0-1.94.13-1.94.87v.63h-1.28v-1c0-1.38,2.37-1.68,3.24-1.68,3.14,0,3.89,1.68,3.89,3.81v4.76a.38.38,0,0,0,.43.43H448v1.17h-1.36c-.85,0-1.19-.38-1.19-1.19,0-.43,0-.73,0-.73h0a3.51,3.51,0,0,1-3.29,2.15c-1.66,0-3.38-1-3.38-2.94C438.77,89.19,443.14,89.07,444.85,89.07Zm-2.48,5.21c1.89,0,3-2,3-3.69v-.46h-.57c-1.56,0-4.67,0-4.67,2.27A2,2,0,0,0,442.37,94.28Z"/>
<path class="cls-6" d="M450.71,82.91a.39.39,0,0,0-.43-.43h-.83V81.31h1.4c.85,0,1.21.36,1.21,1.21V93.59a.39.39,0,0,0,.43.43h.83v1.17h-1.4c-.85,0-1.21-.36-1.21-1.21Z"/>
</svg>