<?xml version="1.0" encoding="utf-8"?>
<!-- Generator: Adobe Illustrator 24.1.2, SVG Export Plug-In . SVG Version: 6.00 Build 0)  -->
<svg version="1.1" id="Camada_1" xmlns="http://www.w3.org/2000/svg" xmlns:xlink="http://www.w3.org/1999/xlink" x="0px" y="0px"
	 viewBox="0 0 150.69 40.75" style="enable-background:new 0 0 150.69 40.75;" xml:space="preserve">
<style type="text/css">
	.st0{fill:#2D2D73;}
	.st1{fill-rule:evenodd;clip-rule:evenodd;fill:#F08108;}
	.st2{fill-rule:evenodd;clip-rule:evenodd;fill:#2D2D73;}
</style>
<path class="st0" d="M4.36,40.09c-0.15,0.2-0.44,0.24-0.65,0.09c-0.2-0.16-0.24-0.45-0.09-0.65c0.65-0.84,1.11-1.77,1.41-2.76
	c0.33-1.07,0.48-2.2,0.47-3.36c-0.02-3.34-1.18-5.62-2.5-8.22c-0.31-0.62-0.64-1.26-0.96-1.94C0.75,20.53,0,17.43,0,14.41
	c0-2.56,0.55-5.08,1.76-7.27l0,0c1.22-2.2,3.11-4.08,5.8-5.36C9.93,0.66,12.92,0,16.61,0c1.23-0.02,2.48,0.12,3.71,0.41
	c3.24,0.75,6.36,2.51,8.68,4.94c2.34,2.44,3.88,5.56,3.94,9c0.02,0.98-0.08,1.99-0.32,3.01c-0.13,0.86-0.06,1.09,0.16,1.84
	l0.04,0.12c0.5,1.35,1.09,2.42,1.57,3.29c0.47,0.86,0.84,1.53,0.93,2.11c0.16,1.14-0.58,1.76-3.11,2.18l0.01,0.01
	c0.45,0.64,0.99,1.4,0.99,2.06c0,0.57-0.31,1.01-1.17,1.14c0.17,0.16,0.34,0.34,0.47,0.53c0.38,0.55,0.47,1.13-0.27,1.64
	c-0.27,0.18-0.41,0.35-0.47,0.49c-0.03,0.07-0.04,0.14-0.03,0.19c0.02,0.06,0.05,0.1,0.09,0.14c0.04,0.04,0.09,0.06,0.12,0.07h0l0,0
	c0.25,0.02,0.41,0.17,0.5,0.41l0,0c0.07,0.18,0.08,0.46,0.03,0.78c-0.04,0.28-0.11,0.6-0.23,0.94c-0.36,1.05-1.12,2.21-2.21,2.4
	c-1.22,0.2-2.77,0.09-3.92,0c-0.46-0.04-0.87-0.07-1.15-0.07c-0.09,0-0.18,0.02-0.26,0.05c-0.13,0.06-0.25,0.17-0.33,0.33
	c-0.1,0.18-0.16,0.42-0.16,0.71l0,0c0,0.38,0.1,0.84,0.34,1.37c0.11,0.23,0,0.51-0.23,0.61c-0.23,0.11-0.51,0-0.61-0.23
	c-0.29-0.65-0.42-1.24-0.42-1.75l0,0c0-0.45,0.1-0.84,0.27-1.15c0.19-0.34,0.45-0.59,0.76-0.73c0.2-0.09,0.41-0.13,0.64-0.13
	c0.3,0,0.73,0.03,1.22,0.07c1.11,0.08,2.59,0.19,3.7,0.01c0.69-0.12,1.22-1,1.49-1.79c0.1-0.27,0.16-0.54,0.19-0.76
	c0.01-0.08,0.02-0.15,0.02-0.21c-0.13-0.05-0.27-0.13-0.38-0.24c-0.16-0.15-0.3-0.35-0.36-0.58c-0.06-0.24-0.06-0.51,0.06-0.79
	c0.12-0.29,0.37-0.6,0.81-0.89c0.14-0.1,0.11-0.23,0.03-0.35c-0.15-0.22-0.41-0.45-0.62-0.63l0,0l0,0l-0.07-0.06l-0.03-0.02
	c-0.13-0.12-0.21-0.26-0.24-0.41c0-0.02-0.01-0.03-0.01-0.05c-0.02-0.12-0.01-0.23,0.02-0.34c0.04-0.12,0.11-0.22,0.2-0.3
	c0.01-0.01,0.03-0.02,0.04-0.03c0.09-0.06,0.19-0.1,0.3-0.1h0.04c0.68,0,0.9-0.11,0.9-0.27c0-0.37-0.45-0.99-0.82-1.52
	c-0.17-0.24-0.32-0.45-0.44-0.65c-0.03-0.06-0.05-0.11-0.06-0.18c-0.04-0.25,0.14-0.49,0.39-0.52c2.42-0.33,3.13-0.67,3.05-1.25
	c-0.06-0.41-0.39-1.02-0.82-1.79c-0.49-0.89-1.11-2-1.63-3.42l0,0l-0.01-0.03l-0.04-0.14c-0.26-0.9-0.35-1.18-0.18-2.25
	c0-0.02,0-0.04,0.01-0.07c0.22-0.95,0.32-1.88,0.3-2.79c-0.05-3.19-1.49-6.09-3.68-8.37c-2.2-2.3-5.16-3.96-8.22-4.68
	c-1.16-0.27-2.34-0.4-3.48-0.38l0,0h0c-3.55,0-6.41,0.62-8.67,1.69C5.45,3.8,3.7,5.54,2.57,7.58h0l0,0
	c-1.13,2.05-1.64,4.41-1.64,6.83c0,2.88,0.72,5.84,1.96,8.45c0.31,0.67,0.64,1.3,0.95,1.91c1.37,2.7,2.57,5.07,2.6,8.63
	c0.01,1.25-0.15,2.48-0.51,3.64C5.58,38.14,5.07,39.17,4.36,40.09z"/>
<path class="st1" d="M13.81,3.16l-2.68,2.57h1.34c0.6,3.16,2.64,5.04,5.92,5.81c-1.42-1.68-3.02-3.97-2.79-5.64l1.17-0.17
	L13.81,3.16L13.81,3.16z M6.75,5.94l3.68,1.36L9.39,7.88c0.38,1.65,2.68,3.23,4.6,4.3c-3.35,0.43-5.92-0.61-7.58-3.35L5.15,9.29
	L6.75,5.94L6.75,5.94z M21.62,2.75l2.84,2.39l-1.21-0.05c-0.03,2.81-1.57,4.42-4.41,5c1.01-1.45,2.09-3.45,1.61-4.96l-1.09-0.19
	L21.62,2.75L21.62,2.75z M3.07,16.04l3.78,1.04l-0.51-1.07c1.27-1.12,4.06-1.66,6.24-1.41c-2.46-2.3-5.15-2.35-8.12-1.1l-0.74-1.12
	L3.07,16.04L3.07,16.04z M7.72,22.89l0.61-3.86l0.74,0.9c2.06-0.17,4.97-3.19,5.23-5.78c1.17,3.56-0.7,7-3.67,8.5l0.71,1.13
	L7.72,22.89L7.72,22.89z M27.95,8.47l0.22,4.09l-0.83-1.05c-1.66,3.6-8.03,4.02-11.14,1.56c2.27,0.86,7.53-0.64,8.67-3.33l-0.6-1.02
	L27.95,8.47L27.95,8.47z M28.3,18.43l-2.13,3.04l-0.2-1.32c-3.23,0.82-6.9-0.52-8.37-3.98c1.91,1.77,6.08,2.15,7.73,0.91l-0.01-1.18
	L28.3,18.43z"/>
<path class="st1" d="M108.47,11.69h7.4l-0.01,17.87h-5.75l0.16-2.38h-5.19l-1.16,2.38h-6.31L108.47,11.69L108.47,11.69z
	 M106.59,23.47h3.56l0.53-7.45L106.59,23.47z"/>
<path class="st2" d="M136.29,11.69h14.06v4.16h-8.39v2.58h7.07v4.16h-7.07v2.8h8.73v4.16h-14.4V11.69L136.29,11.69z M118.04,11.69
	h8.25c1.25,0,2.33,0.14,3.26,0.42c0.93,0.28,1.7,0.69,2.31,1.22c0.6,0.53,1.06,1.18,1.36,1.96c0.3,0.78,0.46,1.68,0.46,2.7
	c-0.01,0.83-0.14,1.6-0.38,2.3c-0.25,0.71-0.63,1.34-1.18,1.9c-0.54,0.56-1.28,1-2.19,1.32c-0.92,0.32-2.03,0.48-3.35,0.48h-2.9
	v5.58h-5.64V11.69L118.04,11.69z M123.68,15.85v3.97h2.44c0.62,0,1.14-0.16,1.55-0.48c0.41-0.32,0.62-0.86,0.62-1.6
	c0-1.26-0.98-1.88-2.94-1.88H123.68L123.68,15.85z M80.3,11.69h5.34l6.12,9.75l-0.19-3.97v-5.78h5.43v17.87h-5.34l-6.11-9.74
	l0.19,4.07v5.68H80.3V11.69L80.3,11.69z M61.27,11.69h5.67v10.75c0,0.74,0.08,1.34,0.25,1.8c0.17,0.47,0.44,0.82,0.82,1.05
	c0.38,0.23,0.9,0.35,1.54,0.35c0.96,0,1.64-0.26,2.05-0.79c0.41-0.53,0.61-1.33,0.61-2.41V11.69h5.67v10.16
	c0,1.47-0.18,2.73-0.54,3.78c-0.36,1.05-0.89,1.91-1.59,2.55c-0.7,0.65-1.56,1.12-2.58,1.43c-1.02,0.3-2.21,0.45-3.56,0.45
	c-1.36,0-2.55-0.15-3.58-0.44c-1.02-0.29-1.89-0.76-2.6-1.41c-0.71-0.65-1.25-1.5-1.61-2.55c-0.36-1.05-0.55-2.32-0.55-3.81V11.69
	L61.27,11.69z M45.38,11.69H58.8v4.16h-7.75v3.24h6.14v4.16h-6.14v6.3h-5.67V11.69z"/>
<path class="st2" d="M45.77,37.27v-4.2h2.99v0.74h-2.11v0.95h1.84v0.74h-1.84v1.77H45.77L45.77,37.27z M52.08,34.15v3.11h-0.77
	v-0.43h-0.01c-0.1,0.17-0.23,0.29-0.39,0.38c-0.17,0.09-0.35,0.13-0.56,0.13c-0.32,0-0.58-0.1-0.77-0.29
	c-0.2-0.19-0.29-0.48-0.29-0.86v-2.05h0.83v1.93c0,0.38,0.17,0.58,0.52,0.58c0.1,0,0.2-0.02,0.3-0.07c0.1-0.05,0.17-0.12,0.24-0.23
	c0.07-0.11,0.1-0.24,0.1-0.41v-1.8H52.08L52.08,34.15z M52.84,37.27v-3.11h0.79v0.46h0.01c0.2-0.36,0.51-0.54,0.93-0.54
	c0.23,0,0.42,0.04,0.58,0.12c0.17,0.08,0.29,0.2,0.38,0.36c0.09,0.16,0.14,0.34,0.14,0.56v2.15h-0.82v-1.88
	c0-0.19-0.03-0.34-0.09-0.46c-0.07-0.11-0.21-0.17-0.44-0.17c-0.22,0-0.38,0.07-0.49,0.21c-0.1,0.14-0.15,0.31-0.15,0.51v1.78H52.84
	L52.84,37.27z M56.23,35.68c0-0.22,0.03-0.42,0.08-0.61c0.05-0.2,0.13-0.37,0.24-0.52c0.11-0.15,0.24-0.27,0.41-0.35
	c0.16-0.08,0.35-0.13,0.56-0.13c0.39,0,0.69,0.16,0.91,0.49h0.01v-1.5h0.81v4.2h-0.8v-0.39h-0.01c-0.08,0-0.14,0.02-0.2,0.06
	c-0.06,0.04-0.13,0.09-0.22,0.18c-0.09,0.08-0.17,0.13-0.24,0.17c-0.07,0.04-0.14,0.06-0.23,0.06c-0.25,0-0.46-0.06-0.67-0.18
	c-0.2-0.12-0.35-0.31-0.47-0.56C56.29,36.36,56.23,36.05,56.23,35.68L56.23,35.68z M57.07,35.74c0,0.23,0.06,0.44,0.16,0.64
	c0.11,0.19,0.28,0.29,0.51,0.29c0.16,0,0.3-0.04,0.41-0.12c0.11-0.08,0.19-0.19,0.24-0.33c0.05-0.13,0.08-0.28,0.08-0.44
	c0-0.67-0.23-1-0.71-1c-0.24,0-0.42,0.09-0.53,0.27C57.13,35.23,57.07,35.46,57.07,35.74L57.07,35.74z M59.77,36.46
	c0-0.31,0.08-0.55,0.25-0.71c0.17-0.16,0.39-0.26,0.65-0.3l0.75-0.11c0.18-0.03,0.27-0.1,0.27-0.23c0-0.25-0.16-0.38-0.49-0.38
	c-0.16,0-0.29,0.03-0.38,0.09c-0.09,0.06-0.14,0.18-0.16,0.35h-0.79c0.02-0.25,0.08-0.46,0.18-0.62c0.1-0.16,0.25-0.28,0.44-0.36
	c0.19-0.08,0.42-0.12,0.71-0.12c0.37,0,0.66,0.05,0.85,0.16c0.19,0.11,0.31,0.23,0.36,0.36c0.05,0.13,0.08,0.26,0.08,0.38v1.69
	c0,0.13,0.01,0.25,0.04,0.33c0.02,0.08,0.07,0.13,0.15,0.15v0.12H61.8c-0.05-0.15-0.07-0.27-0.08-0.37
	c-0.08,0.09-0.17,0.17-0.27,0.24c-0.09,0.07-0.2,0.11-0.31,0.15c-0.12,0.04-0.25,0.06-0.39,0.06c-0.16,0-0.31-0.03-0.46-0.08
	c-0.15-0.06-0.27-0.15-0.37-0.29C59.82,36.84,59.77,36.67,59.77,36.46L59.77,36.46z M61.7,35.75c-0.07,0.06-0.17,0.1-0.3,0.13
	c-0.13,0.03-0.26,0.05-0.39,0.08c-0.13,0.03-0.23,0.08-0.3,0.14c-0.08,0.06-0.11,0.17-0.11,0.32c0,0.11,0.04,0.2,0.11,0.26
	c0.08,0.06,0.17,0.09,0.28,0.09c0.1-0.01,0.21-0.03,0.31-0.07c0.11-0.04,0.2-0.11,0.28-0.2c0.08-0.09,0.12-0.21,0.12-0.34V35.75
	L61.7,35.75z M64.21,37.32c-0.29-0.04-0.52-0.14-0.7-0.3c-0.17-0.16-0.29-0.35-0.36-0.56c-0.07-0.21-0.1-0.44-0.1-0.67
	c0-0.35,0.05-0.64,0.16-0.9c0.1-0.26,0.26-0.46,0.49-0.6c0.22-0.14,0.5-0.21,0.84-0.21c0.19,0,0.39,0.03,0.59,0.1
	c0.2,0.07,0.37,0.19,0.52,0.37c0.15,0.18,0.24,0.42,0.26,0.71h-0.83c-0.02-0.13-0.08-0.25-0.16-0.35c-0.08-0.1-0.22-0.15-0.38-0.15
	c-0.23,0.01-0.4,0.1-0.5,0.28c-0.1,0.18-0.15,0.38-0.15,0.62c0,0.27,0.04,0.5,0.12,0.71c0.08,0.2,0.25,0.3,0.52,0.3
	c0.12,0,0.23-0.03,0.31-0.1c0.08-0.06,0.15-0.14,0.18-0.23c0.04-0.08,0.06-0.16,0.06-0.22h0.83c0,0.1-0.03,0.21-0.08,0.34
	c-0.04,0.13-0.11,0.26-0.22,0.39c-0.1,0.13-0.24,0.24-0.42,0.34c-0.18,0.09-0.4,0.14-0.65,0.15l-0.17,0.24
	c0.05-0.01,0.11-0.02,0.18-0.02c0.12,0,0.23,0.03,0.34,0.11c0.11,0.07,0.16,0.19,0.16,0.35c0,0.17-0.07,0.31-0.2,0.42
	c-0.13,0.11-0.31,0.16-0.52,0.16c-0.11,0-0.21-0.01-0.29-0.03c-0.08-0.02-0.21-0.06-0.38-0.12l0.12-0.28
	c0.21,0.06,0.36,0.09,0.46,0.09c0.06,0,0.12-0.02,0.18-0.06c0.06-0.04,0.09-0.1,0.09-0.17c0-0.06-0.02-0.11-0.07-0.15
	c-0.04-0.04-0.1-0.05-0.16-0.05c-0.05,0-0.13,0.01-0.24,0.04l-0.11-0.11L64.21,37.32L64.21,37.32z M66.27,36.46
	c0-0.31,0.08-0.55,0.25-0.71c0.17-0.16,0.39-0.26,0.65-0.3l0.75-0.11c0.18-0.03,0.27-0.1,0.27-0.23c0-0.25-0.16-0.38-0.49-0.38
	c-0.16,0-0.29,0.03-0.38,0.09c-0.09,0.06-0.14,0.18-0.16,0.35h-0.79c0.02-0.25,0.08-0.46,0.18-0.62c0.1-0.16,0.25-0.28,0.44-0.36
	c0.19-0.08,0.42-0.12,0.71-0.12c0.37,0,0.65,0.05,0.84,0.16c0.19,0.11,0.31,0.23,0.37,0.36c0.06,0.13,0.08,0.26,0.08,0.38v1.69
	c0,0.13,0.01,0.25,0.03,0.33c0.02,0.08,0.07,0.13,0.15,0.15v0.12h-0.87c-0.05-0.15-0.08-0.27-0.08-0.37
	c-0.08,0.09-0.17,0.17-0.26,0.24c-0.1,0.07-0.2,0.11-0.31,0.15c-0.11,0.04-0.25,0.06-0.39,0.06c-0.16,0-0.31-0.03-0.46-0.08
	c-0.15-0.06-0.27-0.15-0.37-0.29C66.32,36.84,66.27,36.67,66.27,36.46L66.27,36.46z M68.2,35.75c-0.07,0.06-0.17,0.1-0.3,0.13
	c-0.13,0.03-0.26,0.05-0.39,0.08c-0.13,0.03-0.23,0.08-0.3,0.14c-0.07,0.06-0.11,0.17-0.11,0.32c0,0.11,0.04,0.2,0.11,0.26
	c0.07,0.06,0.17,0.09,0.28,0.09c0.1-0.01,0.21-0.03,0.31-0.07c0.11-0.04,0.2-0.11,0.28-0.2c0.07-0.09,0.11-0.21,0.11-0.34V35.75
	L68.2,35.75z M66.69,33.79c0.04-0.24,0.12-0.41,0.25-0.54c0.12-0.12,0.27-0.18,0.44-0.18c0.05,0,0.14,0.02,0.28,0.04l0.28,0.12
	c0.02,0,0.05,0.01,0.1,0.03c0.05,0.01,0.09,0.03,0.13,0.03c0.15-0.01,0.25-0.09,0.29-0.24h0.38c-0.06,0.25-0.14,0.43-0.25,0.53
	c-0.11,0.11-0.24,0.17-0.4,0.17c-0.09-0.01-0.24-0.04-0.43-0.11l-0.25-0.07c-0.11-0.02-0.17-0.04-0.19-0.04
	c-0.14,0-0.22,0.08-0.25,0.25H66.69L66.69,33.79z M71.89,35.71c0-0.26-0.05-0.48-0.16-0.67c-0.11-0.19-0.3-0.28-0.58-0.28
	c-0.29,0-0.48,0.1-0.59,0.28c-0.11,0.19-0.16,0.41-0.16,0.66c0,0.26,0.06,0.48,0.16,0.67c0.11,0.19,0.3,0.28,0.59,0.28
	c0.28,0,0.48-0.09,0.58-0.28C71.84,36.19,71.89,35.97,71.89,35.71L71.89,35.71z M69.55,35.71c0-0.22,0.03-0.43,0.1-0.63
	c0.06-0.2,0.17-0.37,0.3-0.52c0.13-0.15,0.3-0.27,0.5-0.36c0.2-0.08,0.44-0.13,0.7-0.13c0.24,0,0.46,0.04,0.65,0.11
	c0.2,0.08,0.36,0.19,0.5,0.33c0.14,0.14,0.25,0.32,0.32,0.52c0.08,0.21,0.11,0.43,0.11,0.68c0,0.31-0.06,0.59-0.18,0.84
	c-0.12,0.25-0.3,0.44-0.54,0.58c-0.24,0.14-0.52,0.21-0.86,0.21c-0.36,0-0.67-0.08-0.91-0.23c-0.24-0.16-0.41-0.36-0.52-0.61
	C69.6,36.25,69.55,35.99,69.55,35.71L69.55,35.71z M74.74,35.68c0-0.22,0.03-0.42,0.08-0.61c0.06-0.2,0.14-0.37,0.24-0.52
	c0.11-0.15,0.25-0.27,0.41-0.35c0.16-0.08,0.35-0.13,0.56-0.13c0.39,0,0.69,0.16,0.91,0.49h0.01v-1.5h0.81v4.2h-0.8v-0.39h-0.01
	c-0.08,0-0.15,0.02-0.21,0.06c-0.06,0.04-0.13,0.09-0.22,0.18c-0.09,0.08-0.17,0.13-0.24,0.17c-0.07,0.04-0.15,0.06-0.23,0.06
	c-0.24,0-0.46-0.06-0.66-0.18c-0.2-0.12-0.35-0.31-0.47-0.56C74.8,36.36,74.74,36.05,74.74,35.68L74.74,35.68z M75.58,35.74
	c0,0.23,0.05,0.44,0.16,0.64c0.1,0.19,0.28,0.29,0.51,0.29c0.17,0,0.31-0.04,0.41-0.12c0.11-0.08,0.19-0.19,0.24-0.33
	c0.05-0.13,0.08-0.28,0.08-0.44c0-0.67-0.24-1-0.71-1c-0.24,0-0.42,0.09-0.53,0.27C75.64,35.23,75.58,35.46,75.58,35.74L75.58,35.74
	z M78.25,35.65c0-0.27,0.05-0.54,0.15-0.77c0.1-0.24,0.27-0.43,0.49-0.58c0.23-0.15,0.51-0.22,0.86-0.22c0.35,0,0.64,0.08,0.86,0.24
	c0.22,0.16,0.37,0.37,0.46,0.63c0.09,0.26,0.14,0.54,0.14,0.85v0.15h-2.14c0.04,0.51,0.28,0.76,0.74,0.76c0.13,0,0.24-0.03,0.33-0.1
	c0.1-0.06,0.16-0.15,0.19-0.24h0.84c-0.07,0.21-0.16,0.39-0.29,0.54c-0.13,0.15-0.29,0.26-0.47,0.34c-0.19,0.08-0.39,0.11-0.6,0.11
	C78.76,37.35,78.25,36.78,78.25,35.65L78.25,35.65z M79.09,35.41h1.27c-0.02-0.2-0.08-0.37-0.2-0.49c-0.11-0.12-0.26-0.17-0.43-0.17
	C79.36,34.74,79.15,34.97,79.09,35.41L79.09,35.41z M83.1,37.27l1.49-4.2h1.01l1.48,4.2h-0.96l-0.27-0.86h-1.55l-0.3,0.86H83.1
	L83.1,37.27z M85.08,34.01l-0.53,1.67h1.07l-0.53-1.67H85.08L85.08,34.01z M88.34,35.78c0,0.25,0.06,0.46,0.18,0.63
	c0.12,0.17,0.3,0.25,0.54,0.25c0.24,0,0.41-0.1,0.52-0.29c0.11-0.2,0.16-0.41,0.16-0.64c0-0.27-0.05-0.5-0.17-0.68
	c-0.11-0.18-0.29-0.27-0.53-0.27C88.57,34.78,88.34,35.11,88.34,35.78L88.34,35.78z M87.57,35.48v-1.33h0.77v0.46h0.03
	c0.07,0,0.14-0.02,0.19-0.06c0.05-0.04,0.12-0.1,0.21-0.2c0.09-0.09,0.17-0.16,0.24-0.21c0.08-0.05,0.17-0.07,0.28-0.07
	c0.17,0,0.34,0.03,0.49,0.1c0.16,0.07,0.3,0.17,0.41,0.3c0.12,0.13,0.22,0.3,0.28,0.51c0.07,0.21,0.11,0.44,0.11,0.7
	c0,0.28-0.05,0.54-0.13,0.8c-0.09,0.25-0.23,0.46-0.42,0.62c-0.19,0.17-0.44,0.24-0.75,0.24c-0.17,0-0.32-0.02-0.43-0.07
	c-0.11-0.05-0.2-0.1-0.26-0.17c-0.06-0.06-0.12-0.15-0.18-0.24h-0.01v1.61h-0.82V35.48L87.57,35.48z M93.3,35.71
	c0-0.26-0.05-0.48-0.16-0.67c-0.11-0.19-0.3-0.28-0.58-0.28c-0.29,0-0.48,0.1-0.59,0.28c-0.11,0.19-0.16,0.41-0.16,0.66
	c0,0.26,0.05,0.48,0.16,0.67c0.11,0.19,0.3,0.28,0.59,0.28c0.28,0,0.48-0.09,0.58-0.28C93.25,36.19,93.3,35.97,93.3,35.71
	L93.3,35.71z M90.96,35.71c0-0.22,0.03-0.43,0.1-0.63c0.07-0.2,0.17-0.37,0.3-0.52c0.13-0.15,0.3-0.27,0.5-0.36
	c0.2-0.08,0.44-0.13,0.7-0.13c0.24,0,0.45,0.04,0.65,0.11c0.2,0.08,0.37,0.19,0.5,0.33c0.14,0.14,0.25,0.32,0.32,0.52
	c0.07,0.21,0.11,0.43,0.11,0.68c0,0.31-0.06,0.59-0.18,0.84c-0.12,0.25-0.3,0.44-0.54,0.58c-0.24,0.14-0.52,0.21-0.86,0.21
	c-0.37,0-0.67-0.08-0.91-0.23c-0.24-0.16-0.42-0.36-0.53-0.61C91.02,36.25,90.96,35.99,90.96,35.71L90.96,35.71z M94.74,37.27v-3.11
	h0.82v3.11H94.74L94.74,37.27z M94.74,33.79v-0.77h0.82v0.77H94.74L94.74,33.79z M98.49,35.71c0-0.26-0.06-0.48-0.16-0.67
	c-0.11-0.19-0.3-0.28-0.58-0.28c-0.28,0-0.48,0.1-0.59,0.28C97.05,35.23,97,35.45,97,35.71c0,0.26,0.05,0.48,0.16,0.67
	c0.11,0.19,0.3,0.28,0.59,0.28c0.28,0,0.48-0.09,0.58-0.28C98.43,36.19,98.49,35.97,98.49,35.71L98.49,35.71z M96.15,35.71
	c0-0.22,0.03-0.43,0.09-0.63c0.07-0.2,0.17-0.37,0.3-0.52c0.13-0.15,0.3-0.27,0.5-0.36c0.2-0.08,0.44-0.13,0.71-0.13
	c0.24,0,0.45,0.04,0.65,0.11c0.2,0.08,0.36,0.19,0.5,0.33c0.14,0.14,0.25,0.32,0.32,0.52c0.07,0.21,0.11,0.43,0.11,0.68
	c0,0.31-0.06,0.59-0.18,0.84c-0.12,0.25-0.3,0.44-0.54,0.58c-0.24,0.14-0.52,0.21-0.86,0.21c-0.37,0-0.67-0.08-0.91-0.23
	c-0.24-0.16-0.42-0.36-0.53-0.61C96.2,36.25,96.15,35.99,96.15,35.71L96.15,35.71z M101.31,36.46c0-0.31,0.08-0.55,0.25-0.71
	c0.17-0.16,0.39-0.26,0.65-0.3l0.75-0.11c0.18-0.03,0.27-0.1,0.27-0.23c0-0.25-0.17-0.38-0.49-0.38c-0.17,0-0.29,0.03-0.38,0.09
	c-0.09,0.06-0.14,0.18-0.16,0.35h-0.79c0.03-0.25,0.08-0.46,0.19-0.62c0.1-0.16,0.25-0.28,0.44-0.36c0.19-0.08,0.42-0.12,0.71-0.12
	c0.37,0,0.65,0.05,0.84,0.16c0.2,0.11,0.32,0.23,0.37,0.36c0.05,0.13,0.08,0.26,0.08,0.38v1.69c0,0.13,0.01,0.25,0.03,0.33
	c0.02,0.08,0.07,0.13,0.15,0.15v0.12h-0.88c-0.05-0.15-0.08-0.27-0.08-0.37c-0.08,0.09-0.17,0.17-0.27,0.24
	c-0.09,0.07-0.2,0.11-0.31,0.15c-0.11,0.04-0.24,0.06-0.38,0.06c-0.16,0-0.31-0.03-0.46-0.08c-0.15-0.06-0.27-0.15-0.37-0.29
	C101.36,36.84,101.31,36.67,101.31,36.46L101.31,36.46z M103.24,35.75c-0.07,0.06-0.17,0.1-0.3,0.13c-0.13,0.03-0.26,0.05-0.39,0.08
	c-0.13,0.03-0.23,0.08-0.3,0.14c-0.08,0.06-0.11,0.17-0.11,0.32c0,0.11,0.04,0.2,0.11,0.26c0.07,0.06,0.17,0.09,0.28,0.09
	c0.1-0.01,0.21-0.03,0.31-0.07c0.11-0.04,0.2-0.11,0.28-0.2c0.07-0.09,0.11-0.21,0.11-0.34V35.75L103.24,35.75z M101.88,32.98h0.89
	l0.56,0.86h-0.6L101.88,32.98L101.88,32.98z M106.46,37.27v-4.2h1.94c0.21,0,0.39,0.03,0.55,0.1c0.16,0.07,0.3,0.16,0.4,0.28
	c0.11,0.12,0.19,0.26,0.24,0.42c0.05,0.16,0.08,0.33,0.08,0.51c0,0.4-0.1,0.72-0.3,0.98c-0.2,0.26-0.54,0.38-1.01,0.38h-1.02v1.52
	H106.46L106.46,37.27z M107.34,35.03h0.82c0.19,0,0.33-0.03,0.42-0.09c0.09-0.06,0.15-0.13,0.18-0.22c0.03-0.08,0.04-0.19,0.04-0.31
	c0-0.2-0.05-0.35-0.14-0.46c-0.09-0.1-0.29-0.15-0.6-0.15h-0.72V35.03L107.34,35.03z M110.05,35.65c0-0.27,0.05-0.54,0.15-0.77
	c0.1-0.24,0.26-0.43,0.49-0.58c0.22-0.15,0.51-0.22,0.85-0.22c0.36,0,0.64,0.08,0.86,0.24c0.22,0.16,0.37,0.37,0.46,0.63
	c0.09,0.26,0.14,0.54,0.14,0.85v0.15h-2.14c0.04,0.51,0.28,0.76,0.74,0.76c0.12,0,0.24-0.03,0.33-0.1c0.1-0.06,0.16-0.15,0.19-0.24
	h0.84c-0.07,0.21-0.16,0.39-0.29,0.54c-0.13,0.15-0.29,0.26-0.47,0.34c-0.18,0.08-0.38,0.11-0.6,0.11
	C110.56,37.35,110.05,36.78,110.05,35.65L110.05,35.65z M110.89,35.41h1.27c-0.02-0.2-0.09-0.37-0.2-0.49
	c-0.12-0.12-0.26-0.17-0.43-0.17C111.16,34.74,110.95,34.97,110.89,35.41L110.89,35.41z M113.33,36.27h0.85
	c0,0.31,0.22,0.46,0.67,0.46c0.18,0,0.31-0.04,0.4-0.1c0.09-0.06,0.13-0.14,0.13-0.21c0-0.12-0.12-0.21-0.35-0.26
	c-0.23-0.06-0.46-0.12-0.7-0.17c-0.24-0.06-0.44-0.15-0.62-0.28c-0.17-0.13-0.26-0.33-0.26-0.59c0-0.2,0.05-0.37,0.14-0.53
	c0.09-0.16,0.23-0.28,0.42-0.37c0.19-0.09,0.42-0.14,0.71-0.14c0.37,0,0.66,0.06,0.87,0.17c0.2,0.11,0.34,0.25,0.41,0.39
	c0.07,0.15,0.11,0.3,0.12,0.46h-0.81c-0.02-0.13-0.07-0.22-0.14-0.29c-0.08-0.07-0.21-0.1-0.41-0.1c-0.33,0-0.49,0.1-0.49,0.29
	c0,0.1,0.11,0.19,0.33,0.24c0.23,0.06,0.46,0.11,0.71,0.17c0.25,0.06,0.46,0.15,0.64,0.28c0.17,0.13,0.27,0.33,0.27,0.58
	c0,0.22-0.05,0.42-0.17,0.57c-0.11,0.17-0.27,0.29-0.47,0.38c-0.21,0.08-0.45,0.12-0.72,0.12c-0.21,0-0.41-0.02-0.59-0.06
	c-0.18-0.04-0.34-0.11-0.48-0.2c-0.14-0.09-0.25-0.2-0.32-0.34C113.38,36.62,113.34,36.46,113.33,36.27L113.33,36.27z M117.46,35.77
	c0,0.59,0.24,0.89,0.7,0.89c0.21,0,0.37-0.08,0.49-0.24c0.13-0.15,0.19-0.39,0.19-0.7c0-0.26-0.04-0.45-0.13-0.6
	c-0.08-0.15-0.18-0.24-0.29-0.28c-0.11-0.05-0.2-0.07-0.29-0.07c-0.19,0-0.35,0.08-0.48,0.22
	C117.52,35.16,117.46,35.41,117.46,35.77L117.46,35.77z M116.61,35.77c0-0.36,0.06-0.66,0.18-0.92c0.12-0.25,0.28-0.45,0.49-0.58
	c0.21-0.13,0.45-0.2,0.71-0.2c0.39,0,0.68,0.18,0.86,0.55h0.01v-0.47h0.79v4.32h-0.83v-1.59h-0.01c-0.17,0.31-0.46,0.47-0.88,0.47
	c-0.28,0-0.53-0.07-0.73-0.22c-0.2-0.15-0.35-0.34-0.45-0.59C116.66,36.3,116.61,36.04,116.61,35.77L116.61,35.77z M123.17,34.15
	v3.11h-0.78v-0.43h-0.01c-0.1,0.17-0.22,0.29-0.39,0.38c-0.16,0.09-0.35,0.13-0.55,0.13c-0.32,0-0.58-0.1-0.77-0.29
	c-0.19-0.19-0.29-0.48-0.29-0.86v-2.05h0.82v1.93c0,0.38,0.17,0.58,0.53,0.58c0.1,0,0.2-0.02,0.29-0.07
	c0.1-0.05,0.18-0.12,0.24-0.23c0.06-0.11,0.1-0.24,0.1-0.41v-1.8H123.17L123.17,34.15z M123.95,37.27v-3.11h0.82v3.11H123.95
	L123.95,37.27z M123.95,33.79v-0.77h0.82v0.77H123.95L123.95,33.79z M125.34,36.27h0.85c0,0.31,0.23,0.46,0.67,0.46
	c0.18,0,0.31-0.04,0.4-0.1c0.08-0.06,0.13-0.14,0.13-0.21c0-0.12-0.12-0.21-0.35-0.26c-0.23-0.06-0.47-0.12-0.7-0.17
	c-0.24-0.06-0.45-0.15-0.62-0.28c-0.17-0.13-0.26-0.33-0.26-0.59c0-0.2,0.05-0.37,0.14-0.53c0.09-0.16,0.23-0.28,0.42-0.37
	c0.19-0.09,0.42-0.14,0.7-0.14c0.38,0,0.67,0.06,0.87,0.17c0.2,0.11,0.34,0.25,0.41,0.39c0.07,0.15,0.11,0.3,0.11,0.46h-0.81
	c-0.02-0.13-0.07-0.22-0.14-0.29c-0.08-0.07-0.21-0.1-0.4-0.1c-0.33,0-0.5,0.1-0.5,0.29c0,0.1,0.11,0.19,0.34,0.24
	c0.22,0.06,0.46,0.11,0.71,0.17c0.25,0.06,0.47,0.15,0.64,0.28c0.18,0.13,0.26,0.33,0.26,0.58c0,0.22-0.06,0.42-0.17,0.57
	c-0.11,0.17-0.27,0.29-0.48,0.38c-0.21,0.08-0.44,0.12-0.72,0.12c-0.21,0-0.41-0.02-0.58-0.06c-0.19-0.04-0.34-0.11-0.48-0.2
	c-0.14-0.09-0.24-0.2-0.32-0.34C125.38,36.62,125.34,36.46,125.34,36.27L125.34,36.27z M128.59,36.46c0-0.31,0.09-0.55,0.26-0.71
	c0.17-0.16,0.38-0.26,0.65-0.3l0.75-0.11c0.18-0.03,0.27-0.1,0.27-0.23c0-0.25-0.17-0.38-0.49-0.38c-0.17,0-0.29,0.03-0.38,0.09
	c-0.09,0.06-0.14,0.18-0.16,0.35h-0.79c0.02-0.25,0.09-0.46,0.19-0.62c0.1-0.16,0.25-0.28,0.44-0.36c0.19-0.08,0.42-0.12,0.71-0.12
	c0.37,0,0.65,0.05,0.84,0.16c0.19,0.11,0.32,0.23,0.37,0.36c0.05,0.13,0.08,0.26,0.08,0.38v1.69c0,0.13,0.01,0.25,0.03,0.33
	c0.03,0.08,0.07,0.13,0.15,0.15v0.12h-0.88c-0.05-0.15-0.08-0.27-0.08-0.37c-0.08,0.09-0.17,0.17-0.27,0.24
	c-0.09,0.07-0.2,0.11-0.31,0.15c-0.12,0.04-0.24,0.06-0.39,0.06c-0.16,0-0.31-0.03-0.46-0.08c-0.15-0.06-0.27-0.15-0.37-0.29
	C128.64,36.84,128.59,36.67,128.59,36.46L128.59,36.46z M130.52,35.75c-0.07,0.06-0.17,0.1-0.3,0.13c-0.13,0.03-0.26,0.05-0.38,0.08
	c-0.13,0.03-0.23,0.08-0.3,0.14c-0.08,0.06-0.11,0.17-0.11,0.32c0,0.11,0.04,0.2,0.11,0.26c0.08,0.06,0.17,0.09,0.29,0.09
	c0.1-0.01,0.21-0.03,0.31-0.07c0.11-0.04,0.2-0.11,0.28-0.2c0.08-0.09,0.11-0.21,0.11-0.34V35.75L130.52,35.75z M133.45,36.01v-0.77
	h1.64v0.77H133.45L133.45,36.01z M137.27,35.87v-2.81h0.89v2.73c0,0.2,0.04,0.37,0.11,0.5c0.07,0.13,0.17,0.22,0.28,0.27
	c0.11,0.06,0.23,0.08,0.36,0.08c0.56,0,0.84-0.27,0.84-0.81v-2.76h0.9v2.76c0,0.29-0.04,0.54-0.14,0.74
	c-0.09,0.21-0.21,0.37-0.37,0.48c-0.15,0.12-0.33,0.2-0.54,0.25c-0.2,0.05-0.42,0.08-0.66,0.08c-0.3,0-0.57-0.06-0.82-0.15
	c-0.25-0.1-0.46-0.26-0.62-0.48C137.35,36.53,137.27,36.24,137.27,35.87L137.27,35.87z M141.51,37.27v-4.2h2.99v0.74h-2.11v0.95
	h1.85v0.74h-1.85v1.77H141.51L141.51,37.27z M144.89,35.15c0.01-0.31,0.06-0.59,0.14-0.85c0.08-0.26,0.21-0.49,0.37-0.69
	c0.17-0.2,0.38-0.36,0.64-0.47c0.26-0.11,0.57-0.17,0.92-0.17c0.01,0,0.04,0,0.07,0c0.03,0,0.05,0,0.07,0
	c0.32,0.01,0.6,0.08,0.85,0.22c0.25,0.14,0.45,0.31,0.59,0.52c0.14,0.21,0.22,0.43,0.24,0.66h-0.88c-0.01-0.08-0.05-0.18-0.13-0.29
	c-0.08-0.11-0.18-0.2-0.32-0.28c-0.13-0.08-0.3-0.12-0.48-0.12c-0.13,0-0.27,0.02-0.4,0.07c-0.14,0.04-0.26,0.12-0.39,0.24
	c-0.12,0.11-0.22,0.27-0.3,0.47c-0.07,0.2-0.11,0.45-0.11,0.74c0,0.32,0.04,0.58,0.14,0.78c0.09,0.21,0.21,0.36,0.37,0.46
	c0.15,0.1,0.33,0.17,0.53,0.19c0.07,0.01,0.12,0.01,0.16,0.01c0.17,0,0.33-0.03,0.47-0.1c0.14-0.07,0.27-0.17,0.37-0.31
	c0.1-0.14,0.17-0.31,0.22-0.52h-0.97V35h1.75v2.26h-0.58l-0.09-0.53c-0.14,0.18-0.29,0.31-0.44,0.41c-0.15,0.1-0.3,0.16-0.45,0.19
	c-0.15,0.03-0.33,0.05-0.52,0.05c-0.24-0.01-0.46-0.06-0.69-0.16c-0.22-0.11-0.41-0.25-0.59-0.45c-0.17-0.19-0.31-0.43-0.41-0.71
	C144.94,35.79,144.89,35.49,144.89,35.15z"/>
</svg>
