<?xml version="1.0" encoding="utf-8"?>
<!-- Generator: Adobe Illustrator 24.1.2, SVG Export Plug-In . SVG Version: 6.00 Build 0)  -->
<svg version="1.1" id="Layer_1" xmlns="http://www.w3.org/2000/svg" xmlns:xlink="http://www.w3.org/1999/xlink" x="0px" y="0px"
	 viewBox="0 0 492.93 138.58" style="enable-background:new 0 0 492.93 138.58;" xml:space="preserve">
<g>
	<g>
		<path d="M219.79,50.65c14.45,0,21.44,6.01,21.44,15.99c0,5.57-3.74,10.43-9.24,12.37c6.68,1.77,12.49,7.86,12.49,15.46
			c0,9.81-7.08,17.23-23.4,17.23c-7.96,0-14.36-0.18-21.73-0.26l-0.59-0.62V51.53l0.59-0.62C206.52,50.82,213.3,50.65,219.79,50.65z
			 M209.07,76.01h10.32c9.24,0,11.3-4.95,11.3-9.1c0-4.33-1.87-9.1-11.11-9.1c-2.75,0-7.37,0-10.52-0.09V76.01z M209.07,83.25v21.39
			c4.13,0,8.26-0.09,11.9-0.09c10.62,0,12.78-6.1,12.78-10.6c0-4.42-2.85-10.69-13.37-10.69H209.07z"/>
		<path d="M283.77,84.84c3.24,1.06,5.6,4.06,6.98,7.51l4.33,10.34c0.98,2.39,2.16,4.77,4.42,6.36c-1.37,1.85-4.42,2.92-7.08,2.92
			c-3.93,0-5.31-1.95-6.88-5.74l-4.92-11.93c-1.67-4.06-3.83-7.24-9.93-7.24h-8.06v24.3c-1.57,0.26-3.54,0.35-5.21,0.35
			c-1.58,0-3.64-0.09-5.11-0.35V51.53l0.59-0.62c7.37-0.09,14.45-0.26,21.14-0.26c13.67,0,22.32,6.36,22.32,18.11
			C296.36,76.89,290.95,82.81,283.77,84.84z M262.64,79.54c3.83-0.09,8.16-0.18,10.91-0.18c9.64,0,12-5.48,12-10.6
			c0-5.39-2.36-10.69-12-10.69c-2.85,0-7.57,0-10.91-0.09V79.54z"/>
		<path d="M320.04,96.68l-5.21,14.76c-1.28,0.26-2.95,0.35-4.52,0.35c-1.87,0-3.74-0.27-5.11-0.62l-0.29-0.44L327.12,51
			c1.57-0.26,4.33-0.35,6-0.35s4.42,0.09,5.9,0.35l22.02,59.73c-1.48,0.88-3.84,1.24-6.1,1.24c-3.24,0-4.92-1.06-6.19-4.95
			l-3.64-10.34c-1.67,0-5.11,0.09-5.9,0.09h-13.47C324.95,96.77,321.71,96.68,320.04,96.68z M322.69,89.09
			c1.58,0,4.23-0.09,5.01-0.09h9.83c0.69,0,3.34,0.09,4.92,0.09l-4.52-12.81c-1.77-5.13-3.83-11.31-5.21-15.99h-0.49
			c-0.98,3.97-2.75,9.54-3.84,12.81L322.69,89.09z"/>
		<path d="M370.37,98.63c5.7,3.36,12.98,6.01,19.76,6.01c7.96,0,12.49-3.45,12.58-8.31c0-4.15-3.24-7.33-8.95-9.54l-11.6-4.51
			c-8.26-3.18-13.47-7.78-13.47-15.29c0-9.63,9.04-17.14,22.22-17.14c8.16,0,15.73,2.3,20.84,4.59c-0.1,2.65-1.67,5.57-3.84,7.34
			c-5.11-2.3-11.8-4.16-16.81-4.16c-7.28,0-11.8,3.62-11.8,8.31c0,3.89,3.34,6.1,8.16,7.95l11.41,4.42
			c8.45,3.18,14.75,8.57,14.75,16.44c0,10.16-7.86,17.76-24.09,17.76c-8.16,0-17.01-2.47-23.6-6.63
			C366.24,103.13,368.2,100.22,370.37,98.63z"/>
		<g>
			<path d="M425.84,51c1.48-0.26,3.64-0.35,5.21-0.35c1.58,0,3.64,0.09,5.21,0.35v60.35c-1.58,0.26-3.64,0.35-5.21,0.35
				c-1.57,0-3.73-0.09-5.21-0.35V51z"/>
			<path d="M492.12,103.22c0,0.97-0.1,2.56-0.29,3.71c-0.59,3-3.05,4.51-6.79,4.51h-25.66c-3.54,0-6.1-2.03-6.1-5.83V51.18
				l0.69-0.53h3.93c4.33,0,5.9,1.86,5.9,6.01v46.92c3.05-0.26,6.09-0.35,8.75-0.35H492.12z"/>
			<g>
				<path d="M208.81,30.72h-4.1v10.11c-0.93,0.18-2.14,0.22-2.98,0.22c-0.8,0-2.05-0.04-2.98-0.22V10.64l0.31-0.27
					c3.56-0.09,6.55-0.18,9.75-0.18c6.14,0,10.55,3.34,10.55,10.29C219.36,27.2,214.95,30.72,208.81,30.72z M204.71,26.18
					c1.47-0.05,3.07-0.09,3.74-0.09c3.96,0,4.76-3.25,4.76-5.61c0-2.4-0.8-5.61-4.76-5.61c-1.11,0-2.4,0-3.74-0.05V26.18z"/>
				<path d="M226.49,33.92l-2.09,6.95c-0.76,0.18-1.65,0.22-2.58,0.22c-0.93,0-2.14-0.13-2.85-0.4l-0.22-0.31l9.93-29.97
					c0.98-0.13,2.45-0.22,3.47-0.22c0.93,0,2.49,0.09,3.43,0.27l9.75,29.97c-0.85,0.49-2.27,0.76-3.43,0.76
					c-1.91,0-2.85-0.67-3.56-3.21l-1.25-4.05c-0.67,0-1.74,0.05-2.18,0.05h-6.23C228.22,33.97,227.2,33.97,226.49,33.92z
					 M227.96,29.2c0.62,0,1.56-0.05,2-0.05h3.83c0.4,0,1.25,0.05,1.87,0.05l-1.34-4.54c-0.75-2.54-1.74-5.97-2.4-8.64h-0.27
					c-0.45,2.27-1.38,5.48-1.96,7.52L227.96,29.2z"/>
				<path d="M251.51,18.65c0-1.2,0.04-2.05,0.04-3.3h-0.04c-0.62,0-2.05,0.04-2.67,0.04h-4.94c-0.18-0.89-0.22-1.78-0.22-2.49
					c0-0.67,0.05-1.6,0.22-2.49h21.28c0.18,0.62,0.31,1.56,0.31,2.32c0,1.96-1.02,2.67-3.2,2.67h-2.09c-0.62,0-2.05-0.04-2.67-0.04
					h-0.04c0,1.25,0.04,2.09,0.04,3.3v22.17c-1.02,0.18-2.14,0.22-3.03,0.22c-0.85,0-1.96-0.04-2.98-0.22V18.65z"/>
				<path d="M284.68,27.73c1.6,0.58,2.67,2.09,3.3,3.92l1.65,4.5c0.44,1.25,1.11,2.45,2.09,3.25c-0.76,1.07-2.4,1.78-3.96,1.78
					c-2.18,0-2.94-1.2-3.79-3.52l-1.87-5.3c-0.67-1.78-1.56-3.2-4.14-3.2h-2.71v11.67c-0.98,0.18-2.14,0.22-2.99,0.22
					c-0.75,0-2-0.04-2.94-0.22V10.64l0.31-0.27c3.56-0.09,6.95-0.18,10.15-0.18c6.19,0,10.46,3.07,10.46,9.39
					C290.25,23.81,287.57,26.71,284.68,27.73z M275.24,24.53c1.56-0.09,3.25-0.13,4.1-0.13c3.87,0,4.76-2.36,4.76-4.81
					c0-2.49-0.89-4.81-4.76-4.81c-1.07,0-2.72,0-4.1-0.05V24.53z"/>
				<path d="M296.52,10.41c0.89-0.18,2.18-0.22,2.98-0.22c0.85,0,2,0.05,2.98,0.22v30.41c-0.98,0.18-2.14,0.22-2.98,0.22
					c-0.8,0-2.09-0.04-2.98-0.22V10.41z"/>
				<path d="M314.69,33.92l-2.09,6.95c-0.76,0.18-1.65,0.22-2.58,0.22c-0.93,0-2.14-0.13-2.85-0.4l-0.22-0.31l9.93-29.97
					c0.98-0.13,2.45-0.22,3.47-0.22c0.93,0,2.49,0.09,3.43,0.27l9.75,29.97c-0.85,0.49-2.27,0.76-3.43,0.76
					c-1.91,0-2.85-0.67-3.56-3.21l-1.25-4.05c-0.67,0-1.74,0.05-2.18,0.05h-6.23C316.43,33.97,315.4,33.97,314.69,33.92z
					 M316.16,29.2c0.62,0,1.56-0.05,2-0.05h3.83c0.4,0,1.25,0.05,1.87,0.05l-1.34-4.54c-0.75-2.54-1.74-5.97-2.4-8.64h-0.27
					c-0.45,2.27-1.38,5.48-1.96,7.52L316.16,29.2z"/>
				<path d="M352.31,33.92l-2.09,6.95c-0.76,0.18-1.65,0.22-2.58,0.22c-0.93,0-2.14-0.13-2.85-0.4l-0.22-0.31l9.93-29.97
					c0.98-0.13,2.45-0.22,3.47-0.22c0.93,0,2.49,0.09,3.43,0.27l9.75,29.97c-0.85,0.49-2.27,0.76-3.43,0.76
					c-1.91,0-2.85-0.67-3.56-3.21l-1.25-4.05c-0.67,0-1.74,0.05-2.18,0.05h-6.23C354.05,33.97,353.02,33.97,352.31,33.92z
					 M353.78,29.2c0.62,0,1.56-0.05,2-0.05h3.83c0.4,0,1.25,0.05,1.87,0.05l-1.34-4.54c-0.75-2.54-1.74-5.97-2.4-8.64h-0.27
					c-0.45,2.27-1.38,5.48-1.96,7.52L353.78,29.2z"/>
				<path d="M376.98,10.46c1.29-0.22,2.99-0.31,4.01-0.31c1.07,0,2.54,0.09,3.79,0.31l3.43,12.34c0.31,1.25,1.42,5.83,1.69,7.61
					h0.31c0.27-1.78,1.38-6.37,1.69-7.61l3.38-12.34c1.34-0.22,2.76-0.31,3.78-0.31c1.07,0,2.72,0.09,4.05,0.31l2.36,30.28
					c-0.85,0.22-2.05,0.31-3.03,0.31c-0.94,0-1.78-0.04-2.63-0.18l-0.85-14.29c-0.18-2.76-0.35-6.86-0.35-9.66h-0.31l-5.21,19.37
					c-0.89,0.13-2.23,0.22-3.07,0.22c-0.8,0-2.14-0.09-3.03-0.22l-5.21-19.37h-0.31c-0.05,2.8-0.18,6.9-0.36,9.66l-0.85,14.29
					c-0.85,0.13-1.73,0.18-2.67,0.18c-0.93,0-2.14-0.09-2.98-0.31L376.98,10.46z"/>
				<path d="M416.7,33.92l-2.09,6.95c-0.76,0.18-1.65,0.22-2.58,0.22c-0.93,0-2.14-0.13-2.85-0.4l-0.22-0.31l9.93-29.97
					c0.98-0.13,2.45-0.22,3.47-0.22c0.93,0,2.49,0.09,3.43,0.27l9.75,29.97c-0.85,0.49-2.27,0.76-3.43,0.76
					c-1.91,0-2.85-0.67-3.56-3.21l-1.25-4.05c-0.67,0-1.74,0.05-2.18,0.05h-6.23C418.43,33.97,417.41,33.97,416.7,33.92z
					 M418.17,29.2c0.62,0,1.56-0.05,2-0.05H424c0.4,0,1.25,0.05,1.87,0.05l-1.34-4.54c-0.75-2.54-1.74-5.97-2.4-8.64h-0.27
					c-0.45,2.27-1.38,5.48-1.96,7.52L418.17,29.2z"/>
				<path d="M458.64,38.82c-1.96,1.6-5.57,2.23-7.97,2.23c-3.74,0-6.63-0.09-10.51-0.18l-0.31-0.27V10.64l0.31-0.27
					c3.83-0.13,6.77-0.18,10.51-0.18c2.4,0,6.01,0.62,7.97,2.23c4.1,3.3,4.85,8.02,4.85,13.18
					C463.49,30.81,462.78,35.53,458.64,38.82z M450.67,14.91c-1.69,0-3.07,0-4.85-0.05v21.51c1.78-0.04,3.16-0.04,4.85-0.04
					c5.83,0,6.68-5.84,6.68-10.73C457.35,20.7,456.5,14.91,450.67,14.91z"/>
				<path d="M473.28,33.92l-2.09,6.95c-0.76,0.18-1.65,0.22-2.58,0.22s-2.14-0.13-2.85-0.4l-0.22-0.31l9.93-29.97
					c0.98-0.13,2.45-0.22,3.47-0.22c0.93,0,2.49,0.09,3.43,0.27l9.75,29.97c-0.85,0.49-2.27,0.76-3.43,0.76
					c-1.91,0-2.85-0.67-3.56-3.21l-1.25-4.05c-0.67,0-1.74,0.05-2.18,0.05h-6.23C475.02,33.97,474,33.97,473.28,33.92z M474.76,29.2
					c0.62,0,1.56-0.05,2-0.05h3.83c0.4,0,1.25,0.05,1.87,0.05l-1.34-4.54c-0.75-2.54-1.74-5.97-2.4-8.64h-0.27
					c-0.45,2.27-1.38,5.48-1.96,7.52L474.76,29.2z"/>
				<path d="M237.43,0c0.88,0.46,2.08,1.86,2.39,3.18l-7.37,4.38c-0.74-0.27-1.42-1.26-1.65-2L237.43,0z"/>
			</g>
			<g>
				<path d="M206.11,129.86l3.4-0.02c1.53,0,2.29,0.72,2.29,2.16v5.69c-1.86,0.59-3.82,0.89-5.86,0.89c-1.04,0-1.96-0.17-2.76-0.52
					c-0.8-0.35-1.47-0.84-2.01-1.49c-0.54-0.65-0.95-1.45-1.22-2.39c-0.27-0.94-0.41-2.02-0.41-3.21c0-1.31,0.19-2.46,0.57-3.43
					c0.38-0.97,0.89-1.79,1.54-2.44c0.64-0.65,1.38-1.14,2.22-1.46c0.84-0.32,1.71-0.49,2.62-0.49c1.88,0,3.64,0.52,5.28,1.56
					c-0.01,0.23-0.07,0.47-0.16,0.7c-0.09,0.24-0.21,0.47-0.35,0.69c-0.14,0.22-0.3,0.43-0.48,0.61c-0.18,0.18-0.36,0.34-0.55,0.47
					c-1.2-0.78-2.41-1.17-3.64-1.17c-2.35,0-3.53,1.65-3.53,4.94c0,3.28,1.2,4.91,3.61,4.91c0.33,0,0.65-0.01,0.96-0.04
					c0.31-0.03,0.62-0.07,0.92-0.13v-1.45c0-0.33,0-0.62,0.01-0.87c0.01-0.24,0.02-0.45,0.03-0.63h-1.08
					c-0.62,0-1.05-0.12-1.29-0.36c-0.24-0.24-0.36-0.61-0.36-1.12C205.87,130.83,205.95,130.36,206.11,129.86z"/>
				<path d="M223.42,137.22c-1.54-1.28-2.32-3.4-2.32-6.34c0-1.27,0.15-2.38,0.44-3.34c0.3-0.96,0.72-1.76,1.28-2.41
					c0.56-0.65,1.23-1.14,2.02-1.47c0.79-0.33,1.69-0.5,2.68-0.5c1,0,1.89,0.17,2.69,0.5c0.8,0.33,1.48,0.83,2.03,1.48
					c0.55,0.66,0.98,1.47,1.28,2.42c0.3,0.96,0.44,2.07,0.44,3.32c0,1.26-0.15,2.36-0.44,3.32c-0.3,0.96-0.72,1.76-1.28,2.41
					c-0.56,0.65-1.23,1.14-2.03,1.47c-0.8,0.33-1.7,0.5-2.69,0.5C225.89,138.58,224.52,138.13,223.42,137.22z M225.17,134.23
					c0.39,1.13,1.18,1.69,2.36,1.69c0.59,0,1.07-0.15,1.44-0.44c0.37-0.3,0.66-0.67,0.87-1.13c0.21-0.45,0.35-0.96,0.42-1.53
					c0.07-0.56,0.11-1.12,0.11-1.67c0-0.51-0.02-1.07-0.05-1.69c-0.04-0.62-0.14-1.2-0.31-1.74c-0.17-0.54-0.45-1-0.82-1.36
					s-0.92-0.55-1.65-0.55c-0.69,0-1.22,0.18-1.59,0.53c-0.37,0.35-0.64,0.79-0.82,1.31c-0.18,0.52-0.29,1.07-0.34,1.66
					c-0.04,0.58-0.06,1.1-0.06,1.55c0,0.66,0.03,1.25,0.1,1.77C224.88,133.15,225,133.68,225.17,134.23z"/>
				<path d="M248.83,135.36l2.83-11.88c0.35-0.09,0.79-0.13,1.34-0.13c0.75,0,1.34,0.08,1.77,0.24l0.13,0.17l-4.05,14.5
					c-0.82,0.09-1.65,0.13-2.48,0.13c-0.83,0-1.43-0.1-1.8-0.31c-0.37-0.21-0.65-0.62-0.83-1.24l-3.59-13.05
					c0.78-0.33,1.42-0.5,1.93-0.5c0.61,0,1.05,0.14,1.34,0.41c0.29,0.27,0.51,0.71,0.67,1.3l1.67,6.17
					c0.26,0.97,0.53,2.28,0.82,3.94C248.62,135.27,248.7,135.36,248.83,135.36z"/>
				<path d="M267.57,133.89l-0.02,1.56v0.02c0.66-0.03,1.19-0.04,1.6-0.04h5c0,0.54-0.02,0.95-0.07,1.23
					c-0.17,1.11-0.91,1.67-2.21,1.67h-5.76c-0.62,0-1.11-0.18-1.46-0.54c-0.35-0.36-0.53-0.85-0.53-1.47v-12.68l0.15-0.15h9.33
					c0.09,0.42,0.13,0.87,0.13,1.36s-0.1,1-0.3,1.54h-5.89l0.02,1.56v1.51c0.37-0.01,0.86-0.02,1.47-0.02h3.3
					c0.13,0.4,0.19,0.87,0.19,1.38c0,0.52-0.07,1-0.19,1.43h-4.76V133.89z"/>
				<path d="M294.58,128.04c0,0.48-0.07,0.93-0.22,1.35c-0.14,0.43-0.33,0.81-0.57,1.15c-0.24,0.34-0.52,0.64-0.84,0.89
					c-0.32,0.25-0.66,0.44-1.01,0.57c0.75,0.27,1.31,0.94,1.67,1.99l0.65,1.84c0.24,0.72,0.61,1.25,1.08,1.6
					c-0.22,0.29-0.54,0.53-0.97,0.72c-0.43,0.2-0.91,0.29-1.43,0.29c-0.52,0-0.92-0.15-1.21-0.44c-0.29-0.3-0.56-0.81-0.8-1.55
					l-0.78-2.27c-0.16-0.43-0.37-0.76-0.64-1s-0.67-0.35-1.2-0.35h-0.89v5.41c-0.46,0.09-1.04,0.13-1.73,0.13s-1.26-0.04-1.71-0.13
					v-14.67l0.15-0.15c1.26-0.03,2.31-0.05,3.17-0.07c0.86-0.01,1.53-0.02,2.02-0.02c0.79,0,1.51,0.1,2.16,0.29
					c0.65,0.2,1.2,0.49,1.66,0.88c0.45,0.39,0.81,0.88,1.06,1.47C294.45,126.58,294.58,127.26,294.58,128.04z M287.42,125.92v4.26
					c0.65,0,1.2-0.01,1.67-0.03c0.46-0.02,0.83-0.11,1.11-0.26c0.28-0.15,0.49-0.37,0.64-0.64c0.14-0.27,0.22-0.67,0.22-1.2
					c0-1.41-0.68-2.11-2.03-2.11c-0.33,0-0.63,0-0.9,0C287.85,125.94,287.62,125.94,287.42,125.92z"/>
				<path d="M316.35,123.32l0.15,0.15v14.72c-0.58,0.13-1.26,0.2-2.05,0.2c-0.79,0-1.48-0.04-2.09-0.13l-3.4-7.75
					c-0.4-0.88-0.82-1.9-1.23-3.05l-0.07,0.02c0.17,2.11,0.26,4.26,0.26,6.47v4.31c-0.45,0.09-0.99,0.13-1.62,0.13
					s-1.17-0.04-1.6-0.13v-14.72c0.55-0.13,1.21-0.2,1.98-0.2s1.46,0.04,2.07,0.13l3.35,7.73c0.61,1.43,1.05,2.53,1.34,3.29
					l0.09-0.04c-0.17-2-0.26-4.13-0.26-6.38v-2.64c0-0.75,0.15-1.29,0.45-1.61c0.3-0.33,0.79-0.49,1.47-0.49H316.35z"/>
				<path d="M328.64,137.22c-1.54-1.28-2.32-3.4-2.32-6.34c0-1.27,0.15-2.38,0.44-3.34c0.3-0.96,0.72-1.76,1.28-2.41
					c0.56-0.65,1.23-1.14,2.02-1.47c0.79-0.33,1.69-0.5,2.68-0.5c1,0,1.89,0.17,2.69,0.5c0.8,0.33,1.48,0.83,2.03,1.48
					c0.55,0.66,0.98,1.47,1.28,2.42c0.3,0.96,0.44,2.07,0.44,3.32c0,1.26-0.15,2.36-0.44,3.32c-0.3,0.96-0.72,1.76-1.28,2.41
					c-0.56,0.65-1.23,1.14-2.03,1.47c-0.8,0.33-1.7,0.5-2.69,0.5C331.11,138.58,329.74,138.13,328.64,137.22z M330.4,134.23
					c0.39,1.13,1.18,1.69,2.36,1.69c0.59,0,1.07-0.15,1.44-0.44c0.37-0.3,0.66-0.67,0.86-1.13c0.21-0.45,0.35-0.96,0.42-1.53
					c0.07-0.56,0.11-1.12,0.11-1.67c0-0.51-0.02-1.07-0.05-1.69c-0.04-0.62-0.14-1.2-0.31-1.74c-0.17-0.54-0.45-1-0.82-1.36
					c-0.38-0.37-0.92-0.55-1.65-0.55c-0.69,0-1.22,0.18-1.59,0.53c-0.37,0.35-0.64,0.79-0.82,1.31c-0.18,0.52-0.29,1.07-0.34,1.66
					c-0.04,0.58-0.06,1.1-0.06,1.55c0,0.66,0.03,1.25,0.1,1.77C330.11,133.15,330.22,133.68,330.4,134.23z"/>
				<path d="M364.66,126.42l0.02,1.69v1.36h4.65c0.11,0.43,0.17,0.91,0.17,1.42s-0.06,0.98-0.17,1.42h-4.65v5.95
					c-0.46,0.09-1.03,0.13-1.72,0.13c-0.69,0-1.26-0.04-1.72-0.13v-14.65l0.15-0.13h9.26c0.09,0.36,0.13,0.81,0.13,1.35
					c0,0.54-0.15,0.94-0.45,1.2c-0.3,0.26-0.76,0.39-1.4,0.39H364.66z"/>
				<path d="M383.66,133.89l-0.02,1.56v0.02c0.66-0.03,1.19-0.04,1.6-0.04h5c0,0.54-0.02,0.95-0.07,1.23
					c-0.17,1.11-0.91,1.67-2.21,1.67h-5.76c-0.62,0-1.11-0.18-1.46-0.54c-0.35-0.36-0.53-0.85-0.53-1.47v-12.68l0.15-0.15h9.33
					c0.09,0.42,0.13,0.87,0.13,1.36s-0.1,1-0.3,1.54h-5.89l0.02,1.56v1.51c0.37-0.01,0.86-0.02,1.47-0.02h3.3
					c0.13,0.4,0.19,0.87,0.19,1.38c0,0.52-0.07,1-0.19,1.43h-4.76V133.89z"/>
				<path d="M409.63,137.3c-0.46,0.38-1.07,0.65-1.82,0.82c-0.75,0.17-1.58,0.26-2.49,0.26c-0.45,0-1.09-0.01-1.94-0.02
					c-0.84-0.01-1.9-0.04-3.17-0.06l-0.15-0.15v-14.57l0.15-0.15c0.84-0.03,1.71-0.05,2.61-0.07c0.9-0.01,1.85-0.02,2.85-0.02
					c1.23,0,2.25,0.2,3.07,0.58c0.82,0.39,1.48,0.92,1.97,1.6c0.49,0.68,0.84,1.48,1.04,2.39c0.2,0.92,0.3,1.9,0.3,2.95
					c0,1.44-0.17,2.69-0.5,3.74C411.22,135.68,410.58,136.57,409.63,137.3z M405.65,135.68c1.9,0,2.86-1.6,2.86-4.8
					c0-3.22-0.95-4.83-2.86-4.83c-0.46,0-0.87,0-1.22,0c-0.35,0-0.66-0.01-0.92-0.02v9.67c0.26-0.01,0.57-0.02,0.92-0.02
					C404.78,135.68,405.19,135.68,405.65,135.68z"/>
				<path d="M425.34,133.89l-0.02,1.56v0.02c0.66-0.03,1.19-0.04,1.6-0.04h5c0,0.54-0.02,0.95-0.07,1.23
					c-0.17,1.11-0.91,1.67-2.21,1.67h-5.76c-0.62,0-1.11-0.18-1.46-0.54c-0.35-0.36-0.53-0.85-0.53-1.47v-12.68l0.15-0.15h9.33
					c0.09,0.42,0.13,0.87,0.13,1.36s-0.1,1-0.3,1.54h-5.89l0.02,1.56v1.51c0.37-0.01,0.86-0.02,1.47-0.02h3.3
					c0.13,0.4,0.19,0.87,0.19,1.38c0,0.52-0.07,1-0.19,1.43h-4.76V133.89z"/>
				<path d="M452.35,128.04c0,0.48-0.07,0.93-0.22,1.35s-0.33,0.81-0.57,1.15c-0.24,0.34-0.52,0.64-0.84,0.89
					c-0.32,0.25-0.66,0.44-1.01,0.57c0.75,0.27,1.31,0.94,1.67,1.99l0.65,1.84c0.24,0.72,0.61,1.25,1.08,1.6
					c-0.22,0.29-0.54,0.53-0.97,0.72c-0.43,0.2-0.91,0.29-1.43,0.29c-0.52,0-0.92-0.15-1.21-0.44s-0.56-0.81-0.8-1.55l-0.78-2.27
					c-0.16-0.43-0.37-0.76-0.64-1c-0.27-0.23-0.67-0.35-1.2-0.35h-0.89v5.41c-0.46,0.09-1.04,0.13-1.73,0.13s-1.26-0.04-1.71-0.13
					v-14.67l0.15-0.15c1.26-0.03,2.31-0.05,3.17-0.07c0.86-0.01,1.53-0.02,2.02-0.02c0.79,0,1.51,0.1,2.16,0.29
					c0.65,0.2,1.2,0.49,1.66,0.88c0.45,0.39,0.81,0.88,1.06,1.47C452.23,126.58,452.35,127.26,452.35,128.04z M445.19,125.92v4.26
					c0.65,0,1.2-0.01,1.67-0.03s0.83-0.11,1.11-0.26c0.28-0.15,0.49-0.37,0.64-0.64c0.14-0.27,0.22-0.67,0.22-1.2
					c0-1.41-0.68-2.11-2.03-2.11c-0.33,0-0.63,0-0.9,0C445.62,125.94,445.39,125.94,445.19,125.92z"/>
				<path d="M466.07,135.16c-0.39,0-0.68-0.01-0.87-0.02l-0.93,3.14c-0.35,0.09-0.83,0.13-1.45,0.13c-0.69,0-1.26-0.08-1.69-0.24
					l-0.11-0.17l4.76-14.52c0.56-0.09,1.22-0.13,1.97-0.13c0.85,0,1.53,0.05,2.03,0.15l4.67,14.54c-0.51,0.27-1.08,0.41-1.71,0.41
					c-0.75,0-1.28-0.13-1.58-0.39c-0.3-0.26-0.56-0.76-0.78-1.49l-0.41-1.43c-0.19,0.01-0.47,0.02-0.84,0.02H466.07z M466.01,132.44
					l0.87-0.02h1.58c0.07,0,0.2,0,0.38,0.01s0.31,0.01,0.4,0.01l-0.37-1.34c-0.35-1.21-0.74-2.7-1.19-4.46h-0.13
					c-0.12,0.62-0.46,2-1.04,4.13L466.01,132.44z"/>
				<path d="M489.17,135.34h3.76c0,0.58-0.04,1.07-0.11,1.48c-0.07,0.41-0.3,0.77-0.69,1.06c-0.39,0.3-0.9,0.44-1.54,0.44h-4.89
					c-0.62,0-1.11-0.18-1.47-0.54c-0.36-0.36-0.54-0.85-0.54-1.47v-12.83l0.15-0.15h1.27c1.35,0,2.02,0.74,2.02,2.21v9.89
					C487.77,135.37,488.45,135.34,489.17,135.34z"/>
			</g>
		</g>
	</g>
	<path d="M82.59,60.93L82.59,60.93c0.94,0,1.88,0.02,2.82,0.06C84.47,60.95,83.53,60.93,82.59,60.93z"/>
	<path d="M85.41,60.99c1.87,0.08,3.72,0.23,5.54,0.46C89.12,61.22,87.27,61.07,85.41,60.99z"/>
	<path d="M122.81,74.36c-1.4-1.05-2.84-2.05-4.32-3C119.96,72.3,121.41,73.3,122.81,74.36L122.81,74.36z"/>
	<g>
		<path d="M111.07,70.25c-1.56-0.75-3.16-1.44-4.77-2.06c-4.94-1.91-10.11-3.2-15.37-3.86c-1.79-0.22-3.61-0.37-5.42-0.45
			c-0.91-0.04-1.83-0.06-2.75-0.06c-4.01,0-8.02,0.36-11.92,1.08c-2.86,0.53-5.71,1.25-8.48,2.16c-1.82,0.6-3.63,1.28-5.39,2.04
			c-3.48,1.5-6.86,3.31-10.04,5.4c-1.57,1.03-3.12,2.15-4.6,3.31c-11.27,8.88-19.43,21.38-22.96,35.21
			c-0.19,0.73-0.36,1.47-0.52,2.22c21.83-14.04,56.04-31.58,100.41-40.31c-0.47-0.31-0.93-0.62-1.4-0.92
			C115.67,72.63,113.39,71.36,111.07,70.25z"/>
	</g>
	<polygon points="72.08,21.74 72.08,21.74 181.12,69.84 181.12,69.84 	"/>
	<path d="M41.22,75.25c1.52-1.2,3.09-2.33,4.71-3.39C44.31,72.92,42.74,74.05,41.22,75.25z"/>
	<path d="M139.56,92.63C78.51,96.17,36.57,115.51,15.52,127.9C6.17,133.41,0.95,137.53,0,138.3v0.12h181.13V92.74
		C166.42,91.84,152.55,91.88,139.56,92.63z"/>
	<rect y="10.2" width="181.13" height="0.02"/>
	<path d="M16.54,117.04c0.32-1.95,0.72-3.88,1.2-5.78c3.69-14.47,12.09-27.05,23.48-36.02c1.52-1.2,3.09-2.33,4.71-3.39
		c3.24-2.13,6.68-3.98,10.27-5.52c1.8-0.77,3.64-1.47,5.52-2.08c2.81-0.92,5.71-1.66,8.68-2.21c3.95-0.73,8.03-1.11,12.19-1.11l0,0
		l0,0c0.94,0,1.88,0.02,2.82,0.06c1.87,0.08,3.72,0.23,5.54,0.46c5.48,0.68,10.75,2.03,15.73,3.95c1.66,0.64,3.29,1.35,4.88,2.11
		c2.39,1.15,4.7,2.44,6.92,3.85c1.48,0.94,2.92,1.94,4.32,3c4.48-0.83,9.05-1.56,13.73-2.18c11.7-1.56,24.01-2.45,36.88-2.44
		c2.55,0,5.12,0.04,7.72,0.11L72.08,21.74L0,79.9v49.28c0.98-0.84,6.62-5.57,16.38-12.04C16.43,117.11,16.49,117.07,16.54,117.04z"
		/>
	<path d="M70.3,19.54c0.51-0.41,1.14-0.63,1.78-0.63c0.39,0,0.78,0.08,1.14,0.24l107.9,47.6V10.22H0v66.05L70.3,19.54z"/>
	<polygon points="181.12,69.84 181.13,69.84 181.12,69.84 	"/>
	<polygon points="181.13,69.84 181.13,69.84 181.12,69.84 	"/>
	<path d="M11,120.92c-1.66,1.17-3.14,2.25-4.44,3.22C7.86,123.17,9.34,122.09,11,120.92z"/>
	<path d="M16.52,117.14c-2.02,1.34-3.86,2.61-5.52,3.78C12.66,119.75,14.51,118.48,16.52,117.14c0.01-0.04,0.01-0.07,0.02-0.11
		c0,0,0,0,0,0C16.54,117.07,16.53,117.11,16.52,117.14z"/>
	<path d="M173.41,69.73c2.55,0,5.12,0.04,7.72,0.11l0,0C178.53,69.77,175.96,69.73,173.41,69.73z"/>
	<path d="M6.57,124.14c1.29-0.97,2.77-2.05,4.44-3.22c1.66-1.17,3.5-2.44,5.52-3.78c0.01-0.04,0.01-0.07,0.02-0.11
		c-0.05,0.04-0.11,0.07-0.16,0.11C6.62,123.61,0.98,128.34,0,129.18v0.15C0,129.33,2.25,127.36,6.57,124.14z"/>
</g>
</svg>
