<svg xmlns="http://www.w3.org/2000/svg" viewBox="0 0 492.93 138.58"><path fill="#fff" d="M219.79 50.65c14.45 0 21.43 6 21.43 16A13.3 13.3 0 01232 79c6.68 1.77 12.49 7.86 12.49 15.47 0 9.8-7.08 17.23-23.4 17.23-8 0-14.36-.18-21.73-.27l-.59-.62V51.53l.59-.62c7.16-.09 13.94-.26 20.43-.26zM209.07 76h10.33c9.24 0 11.3-5 11.3-9.1 0-4.33-1.87-9.1-11.11-9.1-2.75 0-7.37 0-10.52-.09zm0 7.24v21.39c4.13 0 8.26-.09 11.9-.09 10.62 0 12.78-6.1 12.78-10.61s-2.85-10.69-13.37-10.69zM283.77 84.84c3.25 1.06 5.61 4.07 7 7.51l4.33 10.34c1 2.39 2.16 4.77 4.42 6.36-1.37 1.86-4.42 2.92-7.07 2.92-3.94 0-5.31-2-6.89-5.74l-4.93-11.93c-1.67-4.07-3.84-7.25-9.93-7.25h-8.06v24.3a33.12 33.12 0 01-5.21.36 31.82 31.82 0 01-5.12-.36V51.53l.59-.62c7.38-.09 14.46-.26 21.14-.26 13.67 0 22.32 6.36 22.32 18.11 0 8.13-5.36 14.05-12.59 16.08zm-21.13-5.3c3.83-.09 8.15-.18 10.91-.18 9.63 0 12-5.47 12-10.6 0-5.39-2.36-10.69-12-10.69-2.85 0-7.57 0-10.91-.09zM320 96.68l-5.21 14.76a23.5 23.5 0 01-4.52.35 21.84 21.84 0 01-5.12-.61l-.29-.45L327.12 51a45.32 45.32 0 016-.35A42.79 42.79 0 01339 51l22 59.73a12.7 12.7 0 01-6.1 1.24c-3.24 0-4.91-1.06-6.19-5l-3.64-10.34c-1.67 0-5.11.09-5.9.09h-13.43c-.74.05-4.03-.04-5.74-.04zm2.65-7.59c1.58 0 4.23-.09 5-.09h9.83c.69 0 3.34.09 4.92.09l-4.53-12.82c-1.77-5.12-3.83-11.31-5.21-16h-.49c-1 4-2.75 9.54-3.83 12.81zM370.37 98.63c5.7 3.35 13 6 19.76 6 8 0 12.48-3.45 12.58-8.31 0-4.15-3.24-7.33-8.94-9.54l-11.61-4.51C373.91 79.1 368.7 74.51 368.7 67c0-9.63 9-17.14 22.22-17.14a52.45 52.45 0 0120.84 4.6 10.6 10.6 0 01-3.84 7.33c-5.11-2.3-11.79-4.15-16.81-4.15-7.27 0-11.8 3.62-11.8 8.31 0 3.88 3.35 6.09 8.16 8l11.41 4.41c8.45 3.18 14.75 8.57 14.75 16.44 0 10.16-7.87 17.76-24.09 17.76a46.14 46.14 0 01-23.6-6.63 11.35 11.35 0 014.43-7.3zM425.84 51a34.29 34.29 0 015.21-.35 35.22 35.22 0 015.22.35v60.35a33.93 33.93 0 01-5.22.36 33 33 0 01-5.21-.36zM492.12 103.22a26.2 26.2 0 01-.29 3.71c-.59 3-3.05 4.51-6.79 4.51h-25.66c-3.54 0-6.1-2-6.1-5.83V51.18l.69-.53h3.93c4.33 0 5.91 1.85 5.91 6v46.92c3-.27 6.09-.36 8.74-.36zM208.81 30.72h-4.1v10.1a17.2 17.2 0 01-3 .23 17.58 17.58 0 01-3-.23V10.64l.31-.27c3.56-.09 6.55-.18 9.75-.18 6.14 0 10.55 3.34 10.55 10.29.04 6.72-4.32 10.24-10.51 10.24zm-4.1-4.54c1.47-.05 3.08-.09 3.75-.09 4 0 4.76-3.25 4.76-5.61s-.8-5.61-4.76-5.61h-3.75zM226.49 33.92l-2.1 6.95a11.44 11.44 0 01-2.58.22 9.3 9.3 0 01-2.85-.4l-.22-.31 9.93-30a30.49 30.49 0 013.47-.22 21.93 21.93 0 013.43.27l9.75 30a7.6 7.6 0 01-3.43.76c-1.91 0-2.85-.67-3.56-3.2l-1.25-4.06h-8.41c-.45.07-1.47.07-2.18-.01zM228 29.2h7.7l-1.34-4.54c-.75-2.54-1.73-6-2.4-8.64h-.27c-.44 2.27-1.38 5.48-2 7.53zM251.51 18.65v-3.29h-7.61a12.8 12.8 0 01-.23-2.49 13.17 13.17 0 01.23-2.5h21.28a9.36 9.36 0 01.31 2.32c0 2-1 2.67-3.2 2.67h-4.77v25.46a18.15 18.15 0 01-3 .23 18 18 0 01-3-.23zM284.68 27.73a5.92 5.92 0 013.32 3.92l1.65 4.5a7.37 7.37 0 002.1 3.25 5.07 5.07 0 01-4 1.78c-2.18 0-2.94-1.2-3.78-3.52l-1.87-5.3c-.67-1.78-1.56-3.2-4.14-3.2h-2.72v11.66a17.66 17.66 0 01-3 .23 17.44 17.44 0 01-2.94-.23V10.64l.31-.27c3.56-.09 6.95-.18 10.15-.18 6.19 0 10.47 3.07 10.47 9.4a8.48 8.48 0 01-5.55 8.14zm-9.44-3.2c1.56-.09 3.25-.14 4.1-.14 3.87 0 4.76-2.35 4.76-4.8s-.89-4.81-4.76-4.81h-4.1zM296.52 10.41a18.41 18.41 0 013-.22 18.69 18.69 0 013 .22v30.41a17.66 17.66 0 01-3 .23 17.39 17.39 0 01-3-.23zM314.69 33.92l-2.09 6.95a11.58 11.58 0 01-2.59.22 9.35 9.35 0 01-2.85-.4l-.22-.31 9.93-30a30.52 30.52 0 013.48-.22 21.9 21.9 0 013.42.27l9.75 30a7.6 7.6 0 01-3.43.76c-1.91 0-2.85-.67-3.56-3.2l-1.24-4.06h-8.42c-.44.07-1.47.07-2.18-.01zm1.47-4.72h7.71l-1.34-4.54c-.75-2.54-1.73-6-2.4-8.64h-.27c-.44 2.27-1.38 5.48-2 7.53zM352.31 33.92l-2.09 6.95a11.55 11.55 0 01-2.58.22 9.26 9.26 0 01-2.85-.4l-.22-.31 9.93-30a30.2 30.2 0 013.47-.22 22.12 22.12 0 013.43.27l9.75 30a7.63 7.63 0 01-3.43.76c-1.91 0-2.85-.67-3.56-3.2l-1.25-4.06h-8.41c-.45.07-1.5.07-2.19-.01zm1.47-4.72h7.7l-1.34-4.54c-.76-2.54-1.74-6-2.41-8.64h-.26c-.45 2.27-1.38 5.48-2 7.53zM377 10.46a27 27 0 014-.31 23.56 23.56 0 013.79.31l3.43 12.33c.31 1.25 1.42 5.84 1.69 7.62h.31c.27-1.78 1.38-6.37 1.69-7.62l3.39-12.33a24.66 24.66 0 013.78-.31 27.53 27.53 0 014.05.31l2.36 30.28a13.21 13.21 0 01-3 .31 17.07 17.07 0 01-2.63-.18L399 26.58c-.18-2.77-.35-6.86-.35-9.66h-.31l-5.24 19.36a23.26 23.26 0 01-3.08.22 23 23 0 01-3-.22l-5.21-19.36h-.31c-.05 2.8-.18 6.89-.36 9.66l-.85 14.29a17.51 17.51 0 01-2.67.18 13.16 13.16 0 01-3-.31zM416.7 33.92l-2.1 6.95a11.44 11.44 0 01-2.58.22 9.3 9.3 0 01-2.85-.4l-.22-.31 9.93-30a30.49 30.49 0 013.47-.22 22 22 0 013.43.27l9.75 30a7.63 7.63 0 01-3.43.76c-1.91 0-2.85-.67-3.56-3.2l-1.25-4.06h-8.41c-.45.07-1.47.07-2.18-.01zm1.47-4.72h7.7l-1.34-4.54c-.75-2.54-1.73-6-2.4-8.64h-.27c-.44 2.27-1.38 5.48-2 7.53zM458.64 38.82c-2 1.6-5.57 2.23-8 2.23-3.74 0-6.64-.09-10.51-.18l-.31-.27v-30l.31-.27c3.83-.13 6.77-.18 10.51-.18 2.4 0 6 .63 8 2.23 4.09 3.29 4.85 8 4.85 13.18s-.71 9.97-4.85 13.26zm-8-23.91h-4.86v21.5h4.86c5.83 0 6.68-5.84 6.68-10.73s-.82-10.77-6.65-10.77zM473.28 33.92l-2.09 6.95a11.49 11.49 0 01-2.58.22 9.3 9.3 0 01-2.85-.4l-.22-.31 9.93-30a30.49 30.49 0 013.47-.22 22 22 0 013.43.27l9.75 30a7.63 7.63 0 01-3.43.76c-1.91 0-2.85-.67-3.56-3.2l-1.25-4.06h-8.41c-.47.07-1.47.07-2.19-.01zm1.48-4.72h7.7l-1.34-4.54c-.75-2.54-1.74-6-2.4-8.64h-.27c-.45 2.27-1.38 5.48-2 7.53zM237.43 0a5.59 5.59 0 012.39 3.18l-7.37 4.38a3.28 3.28 0 01-1.65-2zM206.11 129.86h3.39c1.53 0 2.3.72 2.3 2.16v5.7a19.31 19.31 0 01-5.87.88 6.83 6.83 0 01-2.76-.52 5.24 5.24 0 01-2-1.49 6.51 6.51 0 01-1.22-2.39 11.38 11.38 0 01-.41-3.22 9.45 9.45 0 01.57-3.43 7 7 0 011.54-2.43 6.18 6.18 0 012.22-1.46 7 7 0 012.61-.49 9.68 9.68 0 015.28 1.56 2 2 0 01-.16.7 5 5 0 01-.34.7 3.51 3.51 0 01-.48.6 3.93 3.93 0 01-.55.47 6.61 6.61 0 00-3.64-1.17q-3.53 0-3.53 4.93t3.62 4.92c.33 0 .65 0 1-.05a9.26 9.26 0 00.92-.13v-1.45-.86-.63h-1.08a1.81 1.81 0 01-1.29-.36 1.55 1.55 0 01-.35-1.11 4.64 4.64 0 01.23-1.43zM223.42 137.22c-1.54-1.29-2.32-3.4-2.32-6.34a11.27 11.27 0 01.45-3.35 6.75 6.75 0 011.27-2.41 5.31 5.31 0 012-1.47 6.92 6.92 0 012.68-.5 7 7 0 012.7.5 5.26 5.26 0 012 1.48 6.9 6.9 0 011.28 2.42 12.78 12.78 0 010 6.65 6.68 6.68 0 01-1.28 2.41 5.24 5.24 0 01-2 1.47 6.84 6.84 0 01-2.7.5 6.23 6.23 0 01-4.08-1.36zm1.75-3a2.3 2.3 0 002.36 1.69 2.27 2.27 0 001.44-.44 3.06 3.06 0 00.87-1.13 5.07 5.07 0 00.42-1.52 13.63 13.63 0 00.11-1.67c0-.51 0-1.07-.06-1.69a6.88 6.88 0 00-.31-1.74 3.23 3.23 0 00-.82-1.36 2.27 2.27 0 00-1.65-.56 2.23 2.23 0 00-1.59.53 3.28 3.28 0 00-.82 1.31 6.79 6.79 0 00-.34 1.66c0 .58-.06 1.1-.06 1.55a13.44 13.44 0 00.1 1.77 8.86 8.86 0 00.35 1.61zM248.83 135.36l2.83-11.88a7 7 0 013.12.1l.13.18-4 14.5c-.82.08-1.65.13-2.48.13a3.78 3.78 0 01-1.79-.32 2 2 0 01-.83-1.24l-3.6-13.05a5.22 5.22 0 011.93-.5 1.92 1.92 0 011.34.41 2.78 2.78 0 01.67 1.3l1.67 6.17c.26 1 .53 2.28.82 3.94-.02.17.06.26.19.26zM267.57 133.89v1.55c.66 0 1.19-.05 1.59-.05h5a7.87 7.87 0 01-.07 1.24c-.17 1.11-.9 1.66-2.2 1.66h-5.76a2 2 0 01-1.46-.54 2 2 0 01-.53-1.47v-12.65l.15-.15h9.33a6.47 6.47 0 01.13 1.36 4.42 4.42 0 01-.3 1.54h-5.89V129.45h4.76a4.46 4.46 0 01.2 1.38 4.94 4.94 0 01-.2 1.43h-4.76zM294.58 128a4.08 4.08 0 01-.22 1.36 4.35 4.35 0 01-.57 1.14 4.18 4.18 0 01-.84.89 3.94 3.94 0 01-1 .57 3 3 0 011.67 2l.65 1.84a3.11 3.11 0 001.08 1.61 2.46 2.46 0 01-1 .72 3.36 3.36 0 01-1.43.29 1.65 1.65 0 01-1.21-.44 4.21 4.21 0 01-.8-1.55l-.78-2.27a2.37 2.37 0 00-.64-1 1.77 1.77 0 00-1.2-.34h-.88v5.41a10.39 10.39 0 01-1.74.13 9.71 9.71 0 01-1.7-.13v-14.65l.15-.15 3.17-.06h2a7.28 7.28 0 012.16.29 4.26 4.26 0 011.66.88 3.72 3.72 0 011.09 1.46 5.21 5.21 0 01.38 2zm-7.16-2.12v4.27h1.66a2.64 2.64 0 001.12-.26 1.52 1.52 0 00.64-.64 2.72 2.72 0 00.21-1.2 1.83 1.83 0 00-2-2.11h-.9c-.3 0-.53 0-.73-.02zM316.35 123.32l.15.16v14.71a9.33 9.33 0 01-2 .2 16 16 0 01-2.09-.13l-3.4-7.75c-.4-.88-.81-1.9-1.23-3h-.07c.18 2.11.26 4.26.26 6.47v4.31a9.23 9.23 0 01-1.62.13 8.82 8.82 0 01-1.6-.13v-14.75a8.74 8.74 0 012-.19 14.33 14.33 0 012.07.13l3.35 7.72c.61 1.43 1.05 2.53 1.34 3.29h.09c-.18-2-.26-4.13-.26-6.39v-2.64a2.35 2.35 0 01.45-1.61 2 2 0 011.47-.49zM328.64 137.22q-2.31-1.93-2.31-6.34a11.63 11.63 0 01.44-3.35 6.76 6.76 0 011.28-2.41 5.35 5.35 0 012-1.47 7.49 7.49 0 015.38 0 5.37 5.37 0 012 1.48 6.88 6.88 0 011.27 2.42 12.51 12.51 0 010 6.65 6.66 6.66 0 01-1.27 2.41 5.34 5.34 0 01-2 1.47 6.82 6.82 0 01-2.69.5 6.24 6.24 0 01-4.1-1.36zm1.76-3a2.52 2.52 0 003.8 1.25 3.15 3.15 0 00.86-1.13 5.07 5.07 0 00.42-1.52 11.91 11.91 0 00.11-1.67v-1.69a6.88 6.88 0 00-.32-1.74 3.13 3.13 0 00-.82-1.36 2.23 2.23 0 00-1.64-.56 2.19 2.19 0 00-1.59.53 3.3 3.3 0 00-.83 1.31 6.35 6.35 0 00-.33 1.66c-.05.58-.07 1.1-.07 1.55a15.41 15.41 0 00.1 1.77 8.91 8.91 0 00.31 1.61zM364.66 126.42v3.05h4.65a5.31 5.31 0 01.18 1.42 5.36 5.36 0 01-.18 1.42h-4.65v5.95a11.44 11.44 0 01-3.44 0v-14.65l.15-.13h9.26a5.71 5.71 0 01.13 1.35 1.53 1.53 0 01-.44 1.2 2.11 2.11 0 01-1.4.39zM383.66 133.89v1.55c.66 0 1.19-.05 1.59-.05h5a7.87 7.87 0 01-.07 1.24c-.17 1.11-.91 1.66-2.2 1.66h-5.76a2 2 0 01-1.46-.54 2 2 0 01-.53-1.47v-12.65l.15-.15h9.33a7.22 7.22 0 01.13 1.36 4.42 4.42 0 01-.3 1.54h-5.89V129.45h4.76a4.46 4.46 0 01.2 1.38 4.94 4.94 0 01-.2 1.43h-4.76zM409.63 137.3a4.45 4.45 0 01-1.82.83 11.27 11.27 0 01-2.49.26h-1.93l-3.17-.07-.16-.15v-14.59l.16-.15c.83 0 1.7-.05 2.6-.06s1.85 0 2.85 0a7.13 7.13 0 013.07.58 5 5 0 012 1.6 6.39 6.39 0 011 2.39 13.87 13.87 0 01.3 3 12.56 12.56 0 01-.49 3.74 5.41 5.41 0 01-1.92 2.62zm-4-1.62q2.85 0 2.85-4.8t-2.85-4.83h-2.14v9.67h.91zM425.34 133.89v1.55c.66 0 1.19-.05 1.6-.05h5a9.66 9.66 0 01-.06 1.24c-.18 1.11-.91 1.66-2.21 1.66h-5.76a2 2 0 01-1.46-.54 2 2 0 01-.53-1.47v-12.65l.15-.15h9.33a6.47 6.47 0 01.13 1.36 4.42 4.42 0 01-.3 1.54h-5.89V129.45h4.76a4.46 4.46 0 01.2 1.38 4.94 4.94 0 01-.2 1.43h-4.76zM452.35 128a4.35 4.35 0 01-.21 1.36 4.7 4.7 0 01-.58 1.14 4.18 4.18 0 01-.84.89 3.94 3.94 0 01-1 .57 3 3 0 011.67 2l.65 1.84a3.11 3.11 0 001.08 1.61 2.49 2.49 0 01-1 .72 3.39 3.39 0 01-1.43.29 1.62 1.62 0 01-1.21-.44 4.2 4.2 0 01-.81-1.55l-.77-2.27a2.47 2.47 0 00-.64-1 1.81 1.81 0 00-1.2-.34h-.89v5.41a10.26 10.26 0 01-1.73.13 9.75 9.75 0 01-1.71-.13v-14.65l.15-.15 3.17-.06h2a7.35 7.35 0 012.17.29 4.22 4.22 0 011.65.88A3.72 3.72 0 01452 126a5 5 0 01.35 2zm-7.16-2.12v4.27h1.66a2.6 2.6 0 001.12-.26 1.52 1.52 0 00.64-.64 2.72 2.72 0 00.21-1.2c0-1.4-.67-2.11-2-2.11h-.9c-.3 0-.53 0-.73-.02zM466.07 135.16h-.86l-.93 3.14a6.12 6.12 0 01-1.45.13 4.93 4.93 0 01-1.69-.24L461 138l4.76-14.52a12.66 12.66 0 012-.13 11 11 0 012 .15l4.71 14.5a3.43 3.43 0 01-1.71.41 2.45 2.45 0 01-1.58-.39 3.23 3.23 0 01-.78-1.49l-.41-1.43h-.84zm-.06-2.72h3.26l-.37-1.35c-.34-1.21-.74-2.69-1.18-4.45h-.14c-.11.62-.46 2-1 4.13zM489.17 135.34h3.76a9 9 0 01-.11 1.48 1.68 1.68 0 01-.69 1.06 2.51 2.51 0 01-1.54.44h-4.89a1.86 1.86 0 01-2-2v-12.84l.15-.16h1.27c1.35 0 2 .74 2 2.21v9.89c.65-.05 1.33-.08 2.05-.08zM0 79.9v49.43a173.85 173.85 0 0116.52-12.19 66.94 66.94 0 01106.29-42.78 277.88 277.88 0 0158.32-4.52l-109-48.1z"/><path fill="#fff" d="M70.3 19.54a2.83 2.83 0 012.92-.39l107.91 47.6V10.22H0v66z"/><path fill="#fff" d="M129.52 73.21l.57-.08c2-.32 4-.61 6-.89l1.36-.17c1.79-.24 3.59-.45 5.41-.65.56-.07 1.13-.13 1.7-.18 1.74-.18 3.49-.35 5.25-.5l1.84-.15c1.76-.14 3.54-.26 5.33-.36l1.8-.11q2.89-.15 5.83-.24h1.4c2.38-.06 4.78-.1 7.21-.1h.39c2.38 0 4.79 0 7.21.1h.25l-109-48.1L0 79.9v49.28a177.12 177.12 0 0116.38-12l.16-.1a66.93 66.93 0 01106.27-42.72q3.32-.61 6.71-1.15z"/><path fill="#fff" d="M40.83 79.24a64.16 64.16 0 00-21 35.67A291.36 291.36 0 01119 75.1a64.08 64.08 0 00-78.16 4.14zM139.56 92.63c-61 3.54-103 22.88-124 35.27A134.26 134.26 0 000 138.3v.12h181.13V92.74a350 350 0 00-41.57-.11z"/></svg>